<svg width="168" height="168" viewBox="0 0 168 168" fill="none" xmlns="http://www.w3.org/2000/svg">
<path d="M154 140L140 154L98 112V98H112L154 140Z" fill="#A8D5BA"/>
<path d="M63 112C35.7 112 14 90.3 14 63C14 35.7 35.7 14 63 14C90.3 14 112 35.7 112 63C112 90.3 90.3 112 63 112ZM63 28C43.4 28 28 43.4 28 63C28 82.6 43.4 98 63 98C82.6 98 98 82.6 98 63C98 43.4 82.6 28 63 28Z" fill="#A8D5BA"/>
<path d="M88.3662 93.8086L93.3166 88.8595L110.638 106.186L105.688 111.135L88.3662 93.8086Z" fill="#A8D5BA"/>
</svg>
