<svg width="29" height="29" viewBox="0 0 29 29" fill="none" xmlns="http://www.w3.org/2000/svg">
<path d="M16.021 1.28082C16.1619 1.36404 16.3029 1.44726 16.4482 1.533C16.5978 1.62548 16.7475 1.71796 16.9017 1.81324C17.2372 2.01285 17.5728 2.21226 17.9085 2.41151C18.0881 2.51936 18.2677 2.62722 18.4528 2.73834C19.396 3.29855 20.3516 3.83703 21.3059 4.37809C23.1609 5.4311 25.0059 6.49939 26.8252 7.61324C26.7636 7.96158 26.7636 7.96158 26.6439 8.33824C26.1795 8.5648 26.1795 8.5648 25.7377 8.70074C25.7078 8.92878 25.6779 9.15681 25.647 9.39176C25.6302 9.52003 25.6134 9.6483 25.5961 9.78045C25.5468 10.1788 25.5468 10.1788 25.5564 10.6945C25.6947 10.7468 25.8331 10.7992 25.9756 10.8531C26.4627 11.057 26.4627 11.057 27.0064 11.4195C26.9739 11.7602 26.9739 11.7602 26.8252 12.1445C26.4219 12.3433 26.4219 12.3433 25.8956 12.4928C25.7081 12.5477 25.5206 12.6026 25.3274 12.6592C25.1301 12.7137 24.9328 12.7681 24.7295 12.8242C24.5315 12.8814 24.3334 12.9387 24.1294 12.9976C23.6391 13.1389 23.1482 13.2773 22.6564 13.4132C22.7068 13.5257 22.7571 13.6382 22.809 13.754C23.0356 14.2627 23.2595 14.7725 23.4834 15.2824C23.5627 15.4594 23.642 15.6363 23.7237 15.8187C23.7979 15.9887 23.8721 16.1586 23.9485 16.3338C24.0178 16.4904 24.0871 16.647 24.1585 16.8084C24.2877 17.2195 24.2877 17.2195 24.1064 17.7632C23.927 17.853 23.927 17.853 23.7439 17.9445C24.342 18.6024 24.9402 19.2604 25.5564 19.9382C25.3752 20.482 25.3752 20.482 25.0127 20.6632C24.7788 21.5763 24.7578 22.3527 25.1939 23.2007C25.3299 23.5972 25.3299 23.5972 25.3752 23.9257C24.8237 24.4772 24.128 24.483 23.3843 24.609C23.2183 24.6382 23.0523 24.6675 22.8813 24.6976C22.3384 24.793 21.7951 24.8862 21.2517 24.9793C20.8795 25.044 20.5073 25.1087 20.1351 25.1736C19.2122 25.334 18.289 25.4926 17.3657 25.6507C16.7602 25.7548 16.1549 25.8604 15.5497 25.9663C14.9395 26.0728 14.329 26.1774 13.7185 26.282C13.5033 26.3196 13.288 26.3571 13.0663 26.3958C12.0134 26.5728 11.0349 26.6634 9.96892 26.6445C9.66585 26.6998 9.36348 26.7593 9.06267 26.8257C8.30331 25.5838 7.58782 24.3244 6.899 23.0421C6.79945 22.8576 6.6999 22.6731 6.59734 22.483C5.67564 20.7731 4.75862 19.0606 3.84293 17.3474C3.68222 17.0468 3.68222 17.0468 3.51826 16.7402C3.41537 16.5462 3.31248 16.3523 3.20647 16.1524C3.00498 15.7813 2.79688 15.4137 2.58183 15.0502C1.97696 14.0171 1.64664 13.2556 1.72204 12.0539C1.72391 11.9291 1.72578 11.8043 1.72771 11.6758C1.7482 11.0176 1.80224 10.7101 2.17517 10.1507C2.39947 10.2012 2.39947 10.2012 2.62829 10.2527C3.37491 10.346 3.97104 10.2658 4.71267 10.1507C4.46897 9.1269 3.9951 8.62286 3.25134 7.93043C2.00555 6.74396 2.00555 6.74396 1.96347 5.95438C1.96231 5.72798 1.96114 5.50158 1.95993 5.26832C1.95736 5.04239 1.95479 4.81645 1.95215 4.58368C1.99392 3.98824 1.99392 3.98824 2.35642 3.44449C2.71678 3.37242 3.08011 3.31521 3.44392 3.26324C3.71892 3.18397 3.99269 3.10038 4.26547 3.0138C5.24934 2.71352 6.24039 2.48473 7.24592 2.26991C7.429 2.23044 7.61208 2.19098 7.80071 2.15033C8.18475 2.06785 8.56889 1.98578 8.9531 1.90409C9.53846 1.77925 10.1233 1.65204 10.7081 1.52473C11.0833 1.44446 11.4585 1.36433 11.8338 1.28436C12.0936 1.22745 12.0936 1.22745 12.3586 1.16939C14.9448 0.626785 14.9448 0.626785 16.021 1.28082Z" fill="#D21E12"/>
<path d="M16.0209 1.28065C16.1619 1.36387 16.3028 1.44709 16.4481 1.53283C16.5978 1.62531 16.7474 1.71779 16.9017 1.81307C17.2371 2.01268 17.5727 2.21209 17.9084 2.41134C18.0881 2.51919 18.2677 2.62705 18.4527 2.73817C19.396 3.29838 20.3515 3.83686 21.3058 4.37792C23.1609 5.43093 25.0058 6.49922 26.8251 7.61307C26.7653 7.85232 26.7055 8.09157 26.6438 8.33807C26.4654 8.30015 26.2869 8.26223 26.103 8.22315C25.2923 8.10883 24.6487 8.30317 23.8784 8.54552C23.5886 8.63129 23.2987 8.71662 23.0088 8.80155C22.8607 8.84539 22.7125 8.88923 22.5599 8.9344C21.8456 9.13986 21.1253 9.31891 20.4035 9.49566C20.192 9.54751 20.192 9.54751 19.9762 9.60041C19.6911 9.67 19.4059 9.73936 19.1207 9.80847C18.6876 9.91363 18.2548 10.0202 17.8221 10.1269C16.2994 10.499 14.7845 10.8334 13.2313 11.0568C13.2313 10.9372 13.2313 10.8176 13.2313 10.6943C12.8127 10.5747 12.394 10.4551 11.9626 10.3318C11.9626 10.1524 11.9626 9.97295 11.9626 9.78807C11.7832 9.78807 11.6037 9.78807 11.4188 9.78807C11.4188 9.66845 11.4188 9.54882 11.4188 9.42557C11.1875 9.4063 11.1875 9.4063 10.9516 9.38663C10.2071 9.21581 9.70564 8.86914 9.10791 8.41737C8.99765 8.33666 8.88738 8.25595 8.77377 8.1728C7.9489 7.5641 7.15393 6.9221 6.37712 6.25299C6.00206 5.95325 6.00206 5.95325 5.56079 5.92093C4.7998 5.73235 4.32299 5.21835 3.74971 4.70174C3.63277 4.59882 3.51583 4.4959 3.39535 4.38987C3.10807 4.13664 2.82265 3.88131 2.5376 3.62557C2.71704 3.56576 2.89647 3.50595 3.08135 3.44432C3.25788 3.36096 3.43441 3.27759 3.61629 3.1917C4.53691 2.7947 5.50706 2.61586 6.48474 2.41134C6.6887 2.36785 6.89267 2.32437 7.10281 2.27957C7.53272 2.1883 7.96277 2.0977 8.39296 2.00773C9.04887 1.87022 9.70409 1.72974 10.3593 1.58899C10.7783 1.50043 11.1973 1.41204 11.6164 1.32384C11.8111 1.28193 12.0058 1.24003 12.2064 1.19685C14.9494 0.62947 14.9494 0.62947 16.0209 1.28065Z" fill="#7FBD68"/>
<path d="M6.1623 17.4004C6.40465 17.458 6.64622 17.5189 6.8873 17.5816C7.4161 17.5921 7.94017 17.5927 8.46868 17.5843C8.79935 17.5808 9.13001 17.5774 9.46067 17.574C9.63573 17.572 9.8108 17.57 9.99116 17.5679C11.1161 17.5568 12.241 17.5568 13.366 17.5547C14.3533 17.5523 15.3402 17.546 16.3274 17.5313C17.2838 17.5173 18.2397 17.5141 19.1962 17.5179C19.5594 17.5174 19.9225 17.5132 20.2855 17.5049C23.2757 17.4401 23.2757 17.4401 24.2417 18.2636C24.7513 18.7777 25.1637 19.3309 25.5561 19.9379C25.3748 20.4816 25.3748 20.4816 25.0123 20.6629C24.7784 21.5759 24.7574 22.3523 25.1936 23.2004C25.3295 23.5969 25.3295 23.5969 25.3748 23.9254C24.8234 24.4768 24.1276 24.4827 23.3839 24.6086C23.2179 24.6379 23.052 24.6671 22.881 24.6973C22.338 24.7926 21.7947 24.8858 21.2514 24.9789C20.8791 25.0436 20.5069 25.1084 20.1347 25.1733C19.2118 25.3337 18.2886 25.4923 17.3653 25.6504C16.7598 25.7544 16.1545 25.8601 15.5493 25.9659C14.9391 26.0724 14.3287 26.177 13.7182 26.2816C13.3953 26.338 13.3953 26.338 13.0659 26.3955C12.013 26.5725 11.0346 26.6631 9.96855 26.6441C9.66549 26.6994 9.36311 26.7589 9.0623 26.8254C8.28087 25.5425 7.53245 24.2444 6.80801 22.9285C6.70766 22.7495 6.60731 22.5706 6.50392 22.3862C6.41011 22.2156 6.3163 22.0451 6.21965 21.8693C6.09193 21.6389 6.09193 21.6389 5.96163 21.4038C5.90823 21.2789 5.85482 21.1541 5.7998 21.0254C5.85962 20.9058 5.91943 20.7861 5.98105 20.6629C6.10068 20.7825 6.2203 20.9021 6.34355 21.0254C6.76475 21.0855 6.76475 21.0855 7.25994 21.0832C7.45258 21.0868 7.64522 21.0904 7.8437 21.0941C8.15988 21.0972 8.15988 21.0972 8.48245 21.1004C8.81094 21.1057 8.81094 21.1057 9.14607 21.1111C9.7394 21.1202 10.3327 21.1277 10.9261 21.1343C11.4148 21.1401 11.9034 21.1472 12.3921 21.1542C16.1758 21.2087 19.9595 21.231 23.7436 21.2066C23.6431 20.5707 23.5489 20.0032 23.2791 19.4168C23.1931 19.2299 23.1071 19.043 23.0186 18.8504C22.9587 19.4485 22.8989 20.0466 22.8373 20.6629C20.8647 20.6713 18.8922 20.6777 16.9196 20.6817C16.0037 20.6836 15.0877 20.6861 14.1718 20.6902C13.2881 20.6942 12.4043 20.6963 11.5206 20.6973C11.1832 20.698 10.8459 20.6993 10.5086 20.7012C10.0364 20.7038 9.56435 20.7042 9.09222 20.704C8.88258 20.706 8.88258 20.706 8.66871 20.708C7.98658 20.7054 7.46581 20.6832 6.8873 20.3004C6.8873 20.42 6.8873 20.5396 6.8873 20.6629C6.64805 20.6629 6.4088 20.6629 6.1623 20.6629C6.00134 19.973 5.95666 19.3316 5.9584 18.6238C5.95793 18.4322 5.95746 18.2407 5.95698 18.0433C5.98105 17.5816 5.98105 17.5816 6.1623 17.4004Z" fill="#2B346C"/>
<path d="M2.35631 3.44336C3.25566 4.09634 4.09681 4.77508 4.9016 5.5426C5.24297 5.82991 5.24297 5.82991 5.68466 5.87209C6.22707 5.99554 6.48647 6.17734 6.91376 6.52815C7.12036 6.69409 7.12036 6.69409 7.33113 6.86339C7.54334 7.03775 7.54334 7.03775 7.75983 7.21563C8.91618 8.16261 9.98439 8.94647 11.4188 9.42461C11.4188 9.54423 11.4188 9.66386 11.4188 9.78711C11.5983 9.78711 11.7777 9.78711 11.9626 9.78711C11.9626 9.96655 11.9626 10.146 11.9626 10.3309C12.1046 10.357 12.2467 10.3832 12.393 10.4102C12.8688 10.5121 12.8688 10.5121 13.2313 10.6934C13.2313 10.813 13.2313 10.9326 13.2313 11.0559C14.4366 10.7635 15.6416 10.4702 16.8466 10.1764C17.255 10.0769 17.6635 9.97759 18.072 9.87849C18.6652 9.73454 19.2582 9.59004 19.8512 9.44514C20.045 9.39782 20.2387 9.35049 20.4384 9.30173C21.7531 8.97753 23.0593 8.62985 24.3559 8.23862C25.0784 8.02742 25.7102 7.93523 26.4626 7.97461C25.8451 8.38623 25.2275 8.5775 24.5255 8.79023C24.3399 8.84806 24.3399 8.84806 24.1506 8.90706C23.4218 9.13141 22.6904 9.33005 21.9498 9.51108C21.2192 9.69286 20.4938 9.89428 19.7676 10.093C19.5979 10.1393 19.4282 10.1856 19.2533 10.2333C17.6794 10.6639 16.1085 11.1048 14.5387 11.5502C14.3575 11.6013 14.1763 11.6524 13.9896 11.7051C13.8299 11.7504 13.6702 11.7957 13.5056 11.8423C13.0525 11.9615 12.6069 12.0712 12.1438 12.1434C12.084 12.0835 12.0242 12.0237 11.9626 11.9621C11.7382 12.6351 11.7168 13.2876 11.6794 13.9898C11.6676 14.1936 11.6676 14.1936 11.6556 14.4016C11.6365 14.7363 11.6182 15.0711 11.6001 15.4059C11.3353 14.926 11.2376 14.7 11.2376 14.1371C11.1217 14.1184 11.0058 14.0997 10.8864 14.0805C10.763 14.0393 10.6397 13.9982 10.5126 13.9559C10.4528 13.7764 10.3929 13.597 10.3313 13.4121C9.6964 13.1011 9.6964 13.1011 9.06256 12.8684C9.06256 12.7487 9.06256 12.6291 9.06256 12.5059C8.96163 12.461 8.8607 12.4161 8.7567 12.3699C8.26455 12.1039 7.86682 11.7689 7.43131 11.4184C7.28552 11.3324 7.13973 11.2464 6.98952 11.1578C6.41964 10.8103 5.94722 10.3995 5.43756 9.96836C5.43259 10.4139 5.42904 10.8595 5.42624 11.3051C5.42472 11.4282 5.4232 11.5513 5.42163 11.6782C5.41848 12.3522 5.44638 13.0084 5.52253 13.6783C5.67069 15.0422 5.68468 16.4144 5.72077 17.7848C5.72861 18.0647 5.73652 18.3446 5.74449 18.6245C5.76369 19.3037 5.7821 19.9829 5.80006 20.6621C5.25828 20.0228 4.85467 19.3875 4.47467 18.6415C4.3658 18.4293 4.25692 18.2172 4.14474 17.9986C4.03188 17.7763 3.91907 17.554 3.80631 17.3316C3.58397 16.8958 3.36099 16.4602 3.13795 16.0247C3.03413 15.8202 2.93031 15.6158 2.82333 15.4052C2.59783 14.9766 2.36082 14.5738 2.10002 14.1668C1.73733 13.4433 1.71639 12.8938 1.7446 12.098C1.74483 11.97 1.74506 11.842 1.7453 11.7101C1.75679 11.0363 1.79321 10.7224 2.17506 10.1496C2.39936 10.2001 2.39936 10.2001 2.62819 10.2516C3.37481 10.3449 3.97093 10.2647 4.71256 10.1496C4.46887 9.12577 3.99499 8.62173 3.25124 7.9293C2.00544 6.74283 2.00544 6.74283 1.96337 5.95325C1.9622 5.72685 1.96103 5.50045 1.95983 5.26719C1.95726 5.04126 1.95469 4.81532 1.95204 4.58254C1.99381 3.98711 1.99381 3.98711 2.35631 3.44336Z" fill="#2B6118"/>
<path d="M25.9186 8.51929C25.8588 8.63892 25.799 8.75854 25.7374 8.88179C25.4332 9.79449 25.4793 10.6734 25.7374 11.6005C24.159 12.1684 22.5388 12.5497 20.9116 12.9486C20.3465 13.0877 19.7816 13.2273 19.2166 13.367C19.0097 13.4181 19.0097 13.4181 18.7986 13.4702C17.8965 13.694 16.9979 13.9288 16.1007 14.1713C15.0232 14.4615 13.95 14.7008 12.8552 14.9154C12.3845 15.0298 12.0186 15.1684 11.5999 15.4068C11.5901 14.9385 11.5829 14.4704 11.5772 14.0021C11.5742 13.8699 11.5712 13.7376 11.568 13.6014C11.5617 12.9047 11.5682 12.3716 11.9624 11.7818C12.0222 11.9014 12.082 12.021 12.1436 12.1443C12.3004 12.0936 12.4572 12.0429 12.6187 11.9907C14.3812 11.4274 16.1568 10.9208 17.9399 10.4272C18.9281 10.1529 19.9114 9.8715 20.889 9.56148C21.8374 9.26157 22.7936 9.03611 23.7663 8.8294C24.2909 8.71284 24.2909 8.71284 24.7823 8.49947C25.2518 8.31521 25.4536 8.34706 25.9186 8.51929Z" fill="#D6D5D5"/>
<path d="M13.7426 18.2852C14.0473 18.2852 14.0473 18.2852 14.3581 18.2852C14.5745 18.2862 14.791 18.2871 15.0139 18.2881C15.2377 18.2883 15.4614 18.2886 15.6919 18.2889C16.4048 18.2899 17.1176 18.2921 17.8304 18.2945C18.3144 18.2955 18.7985 18.2962 19.2825 18.2969C20.4675 18.2989 21.6524 18.3021 22.8374 18.3058C22.8374 19.0833 22.8374 19.8609 22.8374 20.662C20.8648 20.6662 18.8923 20.6694 16.9197 20.6714C16.0038 20.6724 15.0878 20.6736 14.1719 20.6757C13.2882 20.6777 12.4044 20.6788 11.5207 20.6792C11.1833 20.6796 10.846 20.6802 10.5087 20.6812C10.0365 20.6825 9.56444 20.6827 9.09232 20.6826C8.95256 20.6833 8.8128 20.6839 8.66881 20.6846C7.87675 20.6831 7.2348 20.6545 6.5249 20.2995C6.58076 20.0615 6.63758 19.8236 6.69482 19.5859C6.72637 19.4534 6.75791 19.3209 6.79041 19.1844C6.8874 18.8495 6.8874 18.8495 7.06865 18.6683C7.39158 18.6418 7.71547 18.6271 8.03933 18.6173C8.23828 18.6105 8.43722 18.6038 8.6422 18.5968C8.85189 18.5905 9.06159 18.5842 9.27764 18.5777C9.68807 18.5651 10.0985 18.5519 10.5089 18.538C10.7833 18.5298 10.7833 18.5298 11.0634 18.5214C11.5981 18.4973 11.5981 18.4973 12.1112 18.3955C12.6667 18.309 13.1811 18.2839 13.7426 18.2852Z" fill="#D6D4D4"/>
<path d="M24.4687 21.5687C24.8282 22.0974 24.8289 22.3161 24.7632 22.9733C24.7258 23.1677 24.6884 23.3621 24.6499 23.5624C23.4419 23.9556 22.2103 24.1246 20.9562 24.3108C20.6002 24.3647 20.2443 24.4185 19.8883 24.4724C19.3923 24.5473 18.8963 24.6213 18.4002 24.6954C17.7742 24.7891 17.1482 24.8836 16.5223 24.9781C15.8178 25.0844 15.1132 25.1906 14.4085 25.2962C14.0936 25.3434 14.0936 25.3434 13.7724 25.3916C13.5886 25.4191 13.4049 25.4466 13.2156 25.4749C12.8438 25.5321 12.4724 25.5926 12.1015 25.6556C11.3507 25.7781 10.4823 25.9036 9.7874 25.5562C9.74209 24.3554 9.74209 24.3554 10.1499 23.7437C11.5388 23.2908 13.0382 23.1417 14.4841 22.9764C15.3141 22.8793 16.1266 22.7407 16.9468 22.5769C18.4195 22.2876 19.8998 22.105 21.3902 21.9316C21.5699 21.9104 21.7496 21.8892 21.9347 21.8674C22.0956 21.8491 22.2566 21.8307 22.4224 21.8118C24.1073 21.5606 24.1073 21.5606 24.4687 21.5687Z" fill="#D6D6D6"/>
<path d="M5.61865 10.1504C6.15696 10.5093 6.15696 10.5093 6.70615 10.8754C6.9697 11.0492 6.9697 11.0492 7.23857 11.2266C7.42175 11.3499 7.60493 11.4733 7.79365 11.6004C7.96713 11.7164 7.96713 11.7164 8.14412 11.8347C8.45686 12.0493 8.76043 12.2771 9.0624 12.5066C9.0624 12.6263 9.0624 12.7459 9.0624 12.8691C9.16707 12.8916 9.27175 12.914 9.37959 12.9371C9.8008 13.0541 10.1407 13.1822 10.5124 13.4129C10.5722 13.5923 10.632 13.7718 10.6937 13.9566C10.8731 14.0165 11.0525 14.0763 11.2374 14.1379C11.2972 14.5566 11.357 14.9753 11.4187 15.4066C11.5461 15.3224 11.6736 15.2382 11.8049 15.1514C12.3463 14.851 12.7904 14.7224 13.3947 14.5974C13.5995 14.5538 13.8042 14.5103 14.0152 14.4654C14.2312 14.4209 14.4473 14.3763 14.6698 14.3305C16.5856 13.9279 16.5856 13.9279 18.4761 13.4242C19.7736 13.0387 21.0825 12.7096 22.3956 12.382C22.7326 12.2978 22.7326 12.2978 23.0763 12.2118C24.8501 11.7709 24.8501 11.7709 25.7374 11.6004C25.558 11.0621 25.558 11.0621 25.3749 10.5129C25.6142 10.6154 25.8518 10.7219 26.0886 10.8301C26.2873 10.9184 26.2873 10.9184 26.49 11.0085C26.8249 11.2379 26.8249 11.2379 26.9615 11.6259C26.9763 11.7371 26.991 11.8483 27.0062 11.9629C25.6171 12.6243 24.02 13.2316 22.4749 13.2316C22.4749 13.5307 22.4749 13.8298 22.4749 14.1379C22.0562 14.3173 21.6375 14.4968 21.2062 14.6816C21.266 14.4424 21.3258 14.2031 21.3874 13.9566C20.5919 14.0491 20.0576 14.2325 19.3937 14.6816C19.3937 14.562 19.3937 14.4424 19.3937 14.3191C19.2864 14.3934 19.1792 14.4677 19.0687 14.5443C18.9255 14.6419 18.7822 14.7396 18.6347 14.8402C18.4938 14.937 18.3529 15.0337 18.2077 15.1333C17.7682 15.4031 17.3335 15.5782 16.8562 15.7691C16.7365 15.8888 16.6169 16.0084 16.4937 16.1316C15.9556 16.2003 15.9556 16.2003 15.3155 16.2336C14.5163 16.252 14.5163 16.252 13.7749 16.4941C13.2755 16.4622 12.7872 16.4169 12.2909 16.3582C12.1562 16.3447 12.0215 16.3311 11.8828 16.3171C10.9721 16.2118 10.2509 15.9861 9.4249 15.5879C9.48471 15.4085 9.54453 15.229 9.60615 15.0441C9.334 14.2277 8.69774 13.9187 8.02021 13.4193C7.60178 13.0408 7.49019 12.8752 7.43115 12.3254C7.13209 12.2656 6.83303 12.2058 6.5249 12.1441C6.61278 12.9862 6.61278 12.9862 6.8874 13.7754C6.87138 14.2064 6.84327 14.637 6.80811 15.0668C6.78965 15.299 6.77119 15.5313 6.75217 15.7706C6.72939 16.039 6.72939 16.039 6.70615 16.3129C6.64634 16.3129 6.58653 16.3129 6.5249 16.3129C6.22584 14.2793 5.92678 12.2456 5.61865 10.1504Z" fill="#B42216"/>
<path d="M6.16235 17.4004C6.4047 17.458 6.64627 17.5189 6.88735 17.5816C7.41615 17.5921 7.94022 17.5927 8.46873 17.5843C8.7994 17.5808 9.13006 17.5774 9.46072 17.574C9.63578 17.572 9.81084 17.57 9.99121 17.5679C11.1161 17.5568 12.2411 17.5568 13.366 17.5547C14.3533 17.5523 15.3403 17.546 16.3274 17.5313C17.2839 17.5173 18.2398 17.5141 19.1963 17.5179C19.5594 17.5174 19.9225 17.5132 20.2856 17.5049C23.2757 17.4401 23.2757 17.4401 24.2418 18.2636C24.7513 18.7777 25.1637 19.3309 25.5561 19.9379C25.3749 20.4816 25.3749 20.4816 25.0124 20.6629C24.8806 21.0216 24.7589 21.3842 24.6499 21.7504C24.4779 21.7429 24.3059 21.7354 24.1288 21.7277C23.5949 21.7276 23.1179 21.7944 22.5973 21.9104C21.3612 22.1665 20.1128 22.3162 18.8612 22.4754C17.4316 22.6577 16.0091 22.8462 14.5928 23.1146C13.7317 23.2768 12.8659 23.4124 12.0009 23.5526C11.8651 23.5749 11.7292 23.5972 11.5892 23.6202C11.469 23.6398 11.3488 23.6593 11.225 23.6794C10.8635 23.7462 10.5065 23.8362 10.1499 23.9254C10.0302 24.4637 9.9106 25.002 9.78735 25.5566C9.90698 25.6165 10.0266 25.6763 10.1499 25.7379C9.79098 25.8575 9.4321 25.9771 9.06235 26.1004C9.06235 25.0238 9.06235 23.9471 9.06235 22.8379C9.3016 22.8379 9.54085 22.8379 9.78735 22.8379C11.1302 22.6894 12.4621 22.4994 13.7833 22.2163C14.7168 22.036 15.658 21.9003 16.5982 21.76C16.7431 21.7379 16.888 21.7158 17.0374 21.693C17.1682 21.6735 17.299 21.654 17.4338 21.6339C17.7787 21.581 17.7787 21.581 18.1249 21.3879C18.5458 21.3598 18.9676 21.3425 19.3894 21.3305C19.5757 21.3249 19.5757 21.3249 19.7657 21.3191C20.1628 21.3073 20.5598 21.2966 20.9569 21.2859C21.2259 21.2781 21.495 21.2702 21.764 21.2622C22.4239 21.2428 23.0837 21.2244 23.7436 21.2066C23.6406 20.2024 23.2671 19.3874 22.8374 18.4879C21.4118 18.4833 19.9862 18.4801 18.5605 18.4779C18.0757 18.4771 17.5908 18.4758 17.1059 18.4742C16.4086 18.472 15.7112 18.471 15.0139 18.4702C14.7975 18.4693 14.5811 18.4683 14.3581 18.4674C14.155 18.4673 13.9518 18.4673 13.7426 18.4673C13.5647 18.4669 13.3868 18.4665 13.2035 18.4661C12.6561 18.4892 12.1386 18.5726 11.5999 18.6691C11.2344 18.6944 10.8685 18.7133 10.5024 18.7265C10.201 18.7379 10.201 18.7379 9.89355 18.7495C9.68655 18.7566 9.47954 18.7638 9.26626 18.7711C9.05505 18.7789 8.84383 18.7867 8.62622 18.7948C8.10703 18.814 7.58783 18.8325 7.0686 18.8504C7.00285 19.0841 6.93902 19.3183 6.87603 19.5527C6.84028 19.6831 6.80453 19.8135 6.7677 19.9478C6.6678 20.3136 6.6678 20.3136 6.88735 20.6629C6.6481 20.6629 6.40885 20.6629 6.16235 20.6629C6.00139 19.973 5.9567 19.3316 5.95845 18.6238C5.95798 18.4322 5.95751 18.2407 5.95703 18.0433C5.9811 17.5816 5.9811 17.5816 6.16235 17.4004Z" fill="#828585"/>
<path d="M2.17506 6.52539C5.15782 9.01102 5.15782 9.01102 5.32787 10.0393C5.34 10.211 5.35214 10.3827 5.36464 10.5596C5.37892 10.7564 5.3932 10.9532 5.40792 11.1559C5.42144 11.3699 5.43496 11.5839 5.44889 11.8043C5.46382 12.0248 5.47874 12.2453 5.49412 12.4725C5.66797 15.1997 5.7366 17.9312 5.80006 20.6629C5.25828 20.0236 4.85467 19.3883 4.47467 18.6422C4.3658 18.4301 4.25692 18.2179 4.14474 17.9994C4.03188 17.7771 3.91907 17.5548 3.80631 17.3324C3.58397 16.8965 3.36099 16.461 3.13795 16.0254C3.03413 15.821 2.93031 15.6166 2.82333 15.4059C2.59783 14.9774 2.36082 14.5745 2.10002 14.1676C1.73733 13.444 1.71639 12.8945 1.7446 12.0988C1.74483 11.9708 1.74506 11.8428 1.7453 11.7108C1.75679 11.0371 1.79321 10.7232 2.17506 10.1504C2.3246 10.184 2.47413 10.2177 2.62819 10.2523C3.37481 10.3457 3.97093 10.2655 4.71256 10.1504C4.46924 9.12167 3.98916 8.62196 3.23991 7.93008C2.87638 7.58901 2.52405 7.24435 2.17506 6.88789C2.17506 6.76827 2.17506 6.64864 2.17506 6.52539Z" fill="#273465"/>
<path d="M22.475 13.4121C22.9359 14.1035 23.2559 14.831 23.5965 15.5871C23.7 15.81 23.7 15.81 23.8057 16.0374C23.8701 16.1804 23.9344 16.3234 24.0008 16.4707C24.0601 16.6011 24.1195 16.7314 24.1807 16.8658C24.2875 17.2184 24.2875 17.2184 24.1063 17.7621C18.5437 17.7621 12.9811 17.7621 7.25 17.7621C7.25 17.7023 7.25 17.6425 7.25 17.5809C11.0182 17.521 14.7864 17.4612 18.6688 17.3996C17.5323 17.3398 16.3959 17.28 15.225 17.2184C16.0922 16.1777 16.7698 15.6303 17.9438 15.0434C18.1232 14.9163 18.3026 14.7892 18.4875 14.6582C19.0313 14.3184 19.0313 14.3184 19.7563 14.3184C19.9693 14.2249 20.1824 14.1314 20.402 14.0352C21.025 13.7746 21.025 13.7746 21.5688 13.9559C21.5688 14.0755 21.5688 14.1951 21.5688 14.3184C21.808 14.2585 22.0473 14.1987 22.2938 14.1371C22.3536 13.8979 22.4134 13.6586 22.475 13.4121Z" fill="#C4352B"/>
<path d="M25.1936 10.3305C25.1524 10.4389 25.1113 10.5473 25.0689 10.659C25.0503 10.7898 25.0316 10.9207 25.0123 11.0555C25.2724 11.3534 25.2724 11.3534 25.5561 11.5992C24.5902 11.9775 23.6402 12.2841 22.6327 12.5274C22.4282 12.578 22.4282 12.578 22.2196 12.6296C21.7875 12.7363 21.3552 12.8419 20.9229 12.9473C20.3561 13.0864 19.7895 13.226 19.2229 13.3657C19.0848 13.3997 18.9467 13.4337 18.8044 13.4688C17.3326 13.8327 15.8683 14.2233 14.4062 14.6243C13.7609 14.7956 13.1754 14.9226 12.5061 14.8617C12.3248 14.6805 12.3248 14.6805 12.3135 14.0348C12.3172 13.8292 12.321 13.6236 12.3248 13.4117C13.9115 12.9082 15.5042 12.4593 17.1187 12.0545C17.3398 11.9988 17.5609 11.943 17.7887 11.8856C18.2509 11.7694 18.7131 11.6535 19.1754 11.5379C19.7684 11.3897 20.3608 11.2397 20.9532 11.0893C21.5212 10.9455 22.0897 10.8034 22.6582 10.6611C22.9773 10.5799 22.9773 10.5799 23.3029 10.497C23.4985 10.4485 23.694 10.4 23.8956 10.3501C24.068 10.3068 24.2404 10.2635 24.418 10.2189C24.8311 10.1492 24.8311 10.1492 25.1936 10.3305Z" fill="#E2E1E1"/>
<path d="M5.25634 9.78711C5.43577 9.87683 5.43577 9.87683 5.61884 9.96836C5.62565 10.126 5.62565 10.126 5.6326 10.2867C5.65372 10.7659 5.67592 11.2451 5.69813 11.7242C5.70526 11.8895 5.71238 12.0548 5.71973 12.2251C5.72732 12.3858 5.73491 12.5464 5.74274 12.7119C5.74938 12.859 5.75603 13.0061 5.76287 13.1577C5.80198 13.6156 5.88937 14.0497 5.98134 14.4996C6.0213 15.1591 6.04994 15.8183 6.07621 16.4785C6.10471 16.6628 6.13322 16.8472 6.16259 17.0371C6.34202 17.1567 6.52146 17.2764 6.70634 17.3996C6.43718 17.4893 6.43718 17.4893 6.16259 17.5809C6.16259 18.5977 6.16259 19.6145 6.16259 20.6621C6.40184 20.6621 6.64109 20.6621 6.88759 20.6621C6.88759 20.5425 6.88759 20.4229 6.88759 20.2996C6.97669 20.3287 7.06579 20.3579 7.15759 20.3879C7.80052 20.5193 8.43897 20.5132 9.0925 20.5181C9.31541 20.5208 9.31541 20.5208 9.54281 20.5235C10.0332 20.5292 10.5235 20.5337 11.0139 20.5382C11.3542 20.5419 11.6945 20.5457 12.0348 20.5496C12.9299 20.5596 13.825 20.5686 14.7201 20.5773C15.6337 20.5864 16.5474 20.5965 17.461 20.6065C19.2532 20.626 21.0454 20.6444 22.8376 20.6621C22.8376 19.9444 22.8376 19.2266 22.8376 18.4871C23.24 18.8895 23.3813 19.2094 23.5966 19.7332C23.6958 19.968 23.6958 19.968 23.7969 20.2076C23.9365 20.7027 23.8858 20.9064 23.7438 21.3871C19.8411 21.4123 15.9384 21.3899 12.0359 21.3394C11.5485 21.3331 11.061 21.3282 10.5735 21.3244C9.88244 21.3184 9.19147 21.3089 8.50043 21.2986C8.18565 21.2969 8.18565 21.2969 7.86451 21.2951C7.57557 21.2897 7.57557 21.2897 7.2808 21.2842C7.11226 21.2822 6.94372 21.2802 6.77007 21.2781C6.265 21.1925 6.10504 21.0666 5.80009 20.6621C5.60346 19.9882 5.58741 19.32 5.56786 18.6209C5.56108 18.4031 5.55431 18.1852 5.54733 17.9607C5.54102 17.7344 5.53471 17.5081 5.52821 17.275C5.49035 15.9379 5.44151 14.6147 5.2943 13.285C5.2314 12.5947 5.23703 11.907 5.24501 11.2145C5.24583 11.0757 5.24664 10.9369 5.24749 10.7939C5.24958 10.4583 5.25283 10.1227 5.25634 9.78711Z" fill="#AF120A"/>
<path d="M25.3751 10.5117C25.6144 10.6142 25.852 10.7207 26.0888 10.8289C26.2212 10.8878 26.3537 10.9467 26.4902 11.0073C26.8251 11.2367 26.8251 11.2367 26.9617 11.6247C26.9765 11.7359 26.9912 11.8471 27.0063 11.9617C25.2605 12.7931 23.3906 13.2051 21.5009 13.559C19.5189 13.932 17.6045 14.5027 15.6762 15.0874C13.9261 15.618 13.9261 15.618 13.1974 15.6887C12.7011 15.7456 12.2576 15.8103 11.7813 15.9492C11.7215 15.7698 11.6617 15.5903 11.6001 15.4055C12.171 14.9144 12.6435 14.7473 13.3772 14.5962C13.6852 14.5309 13.6852 14.5309 13.9995 14.4642C14.3258 14.3974 14.3258 14.3974 14.6587 14.3293C15.1079 14.2336 15.557 14.1373 16.006 14.0404C16.208 13.9978 16.41 13.9552 16.6181 13.9112C17.4613 13.7189 18.2876 13.4787 19.1169 13.2342C20.2023 12.9202 21.2997 12.6543 22.3958 12.3809C22.7328 12.2966 22.7328 12.2966 23.0765 12.2106C24.8503 11.7698 24.8503 11.7698 25.7376 11.5992C25.5582 11.0609 25.5582 11.0609 25.3751 10.5117Z" fill="#285E1A"/>
<path d="M25.9186 8.51929C25.7392 8.87817 25.5598 9.23704 25.3749 9.60679C25.2852 9.42735 25.2852 9.42735 25.1936 9.24429C24.9091 9.32034 24.9091 9.32034 24.6187 9.39793C23.2396 9.76445 21.8594 10.1251 20.4741 10.4677C20.2541 10.5222 20.0342 10.5766 19.8077 10.6326C19.376 10.7391 18.9443 10.845 18.5124 10.9503C17.2674 11.2574 16.0423 11.6024 14.8203 11.991C14.4047 12.118 13.9944 12.2193 13.571 12.3142C13.0308 12.4685 13.0308 12.4685 12.6987 12.8919C12.5147 13.39 12.49 13.6449 12.5061 14.1607C12.5061 14.863 12.5061 14.863 12.2569 15.2255C11.9624 15.4068 11.9624 15.4068 11.5999 15.4068C11.5901 14.9385 11.5829 14.4704 11.5772 14.0021C11.5742 13.8699 11.5712 13.7376 11.568 13.6014C11.5617 12.9047 11.5682 12.3716 11.9624 11.7818C12.0222 11.9014 12.082 12.021 12.1436 12.1443C12.3004 12.0936 12.4572 12.0429 12.6187 11.9907C14.3812 11.4274 16.1568 10.9208 17.9399 10.4272C18.9281 10.1529 19.9114 9.8715 20.889 9.56148C21.8374 9.26157 22.7936 9.03611 23.7663 8.8294C24.2909 8.71284 24.2909 8.71284 24.7823 8.49947C25.2518 8.31521 25.4536 8.34706 25.9186 8.51929Z" fill="#908E8F"/>
<path d="M2.1748 6.52539C5.16238 9.01504 5.16238 9.01504 5.33048 10.0767C5.34377 10.2634 5.35706 10.4501 5.37075 10.6425C5.38597 10.8514 5.40118 11.0603 5.41686 11.2756C5.4382 11.6102 5.4382 11.6102 5.45996 11.9516C5.47535 12.1781 5.49074 12.4047 5.5066 12.6382C5.62686 14.5299 5.65784 16.412 5.61855 18.3066C5.55874 18.3066 5.49893 18.3066 5.4373 18.3066C5.43216 18.0786 5.42702 17.8506 5.42173 17.6156C5.30905 15.2088 4.69638 13.6918 3.2623 11.7816C3.09107 11.5435 2.92042 11.3049 2.75042 11.0658C2.62028 10.8834 2.49014 10.7009 2.35605 10.5129C2.41587 10.3933 2.47568 10.2736 2.5373 10.1504C2.62702 10.184 2.71674 10.2177 2.80918 10.2523C3.47089 10.3681 4.04887 10.2499 4.7123 10.1504C4.46898 9.12167 3.9889 8.62196 3.23965 7.93008C2.87612 7.58901 2.52379 7.24435 2.1748 6.88789C2.1748 6.76827 2.1748 6.64864 2.1748 6.52539Z" fill="#475EA1"/>
<path d="M15.12 18.2699C15.4533 18.2707 15.4533 18.2707 15.7934 18.2715C16.495 18.2735 17.1966 18.278 17.8982 18.2827C18.3773 18.2845 18.8564 18.2861 19.3355 18.2876C20.5028 18.2916 21.67 18.2976 22.8373 18.3053C22.8373 18.6044 22.8373 18.9034 22.8373 19.2116C18.7102 19.1517 14.5832 19.0919 10.3311 19.0303C10.3909 18.9107 10.4507 18.7911 10.5123 18.6678C12.0136 18.2503 13.5746 18.2562 15.12 18.2699Z" fill="#BFBFBF"/>
<path d="M9.425 21.3867C12.296 21.3867 15.167 21.3867 18.125 21.3867C17.6696 21.8422 17.4236 21.8354 16.7918 21.9241C16.4953 21.9673 16.4953 21.9673 16.1927 22.0114C15.8763 22.0555 15.8763 22.0555 15.5535 22.1004C13.9804 22.3278 12.4318 22.5771 10.8842 22.9422C10.2407 23.0304 9.69854 22.9543 9.0625 22.8367C9.0625 22.4778 9.0625 22.119 9.0625 21.7492C9.18213 21.7492 9.30175 21.7492 9.425 21.7492C9.425 21.6296 9.425 21.51 9.425 21.3867Z" fill="#3D58B5"/>
<path d="M24.4687 21.5687C24.5584 21.7481 24.5584 21.7481 24.6499 21.9312C23.9228 22.1225 23.2458 22.2885 22.4976 22.373C22.2172 22.4234 22.2172 22.4234 21.9312 22.4749C21.8115 22.6543 21.6919 22.8338 21.5687 23.0187C21.0845 23.046 20.6342 23.0429 20.1519 23.0201C18.3971 22.9789 16.7226 23.1879 14.9924 23.4634C14.5026 23.5411 14.0123 23.6147 13.5218 23.6877C13.208 23.7359 12.8942 23.7842 12.5805 23.8329C12.4349 23.8548 12.2894 23.8767 12.1395 23.8993C11.4866 24.0048 11.0704 24.0967 10.5124 24.4687C10.3928 24.5285 10.2732 24.5883 10.1499 24.6499C10.1499 24.8892 10.1499 25.1284 10.1499 25.3749C10.2695 25.4347 10.3892 25.4945 10.5124 25.5562C10.3928 25.616 10.2732 25.6758 10.1499 25.7374C10.0303 25.6776 9.91065 25.6178 9.7874 25.5562C9.74209 24.3554 9.74209 24.3554 10.1499 23.7437C11.5388 23.2908 13.0382 23.1417 14.4841 22.9764C15.3141 22.8793 16.1266 22.7407 16.9468 22.5769C18.4195 22.2876 19.8998 22.105 21.3902 21.9316C21.5699 21.9104 21.7496 21.8892 21.9347 21.8674C22.0956 21.8491 22.2566 21.8307 22.4224 21.8118C24.1073 21.5606 24.1073 21.5606 24.4687 21.5687Z" fill="#B4B4B4"/>
<path d="M17.5813 21.749C17.5813 21.9285 17.5813 22.1079 17.5813 22.2928C17.4716 22.3083 17.362 22.3238 17.2491 22.3398C16.7481 22.4109 16.2471 22.4821 15.7461 22.5533C15.4875 22.59 15.4875 22.59 15.2236 22.6273C14.3764 22.7479 13.5307 22.8716 12.6875 23.0178C12.6875 23.1374 12.6875 23.257 12.6875 23.3803C11.4314 23.6494 11.4314 23.6494 10.15 23.924C10.0304 24.4623 9.91075 25.0007 9.7875 25.5553C9.90713 25.6151 10.0268 25.6749 10.15 25.7365C9.79113 25.8562 9.43225 25.9758 9.0625 26.099C9.0625 25.0224 9.0625 23.9458 9.0625 22.8365C9.30175 22.8365 9.541 22.8365 9.7875 22.8365C11.1555 22.6853 12.5111 22.4878 13.8578 22.2036C15.0852 21.9585 16.3263 21.7166 17.5813 21.749Z" fill="#545968"/>
<path d="M24.65 21.3873C24.5902 21.5069 24.5304 21.6265 24.4688 21.7498C24.1489 21.8177 24.1489 21.8177 23.7391 21.8504C23.5911 21.8637 23.4432 21.8771 23.2907 21.8909C23.1412 21.9041 22.9916 21.9174 22.8375 21.931C22.5809 21.9621 22.3245 21.9947 22.0683 22.029C21.9406 22.046 21.8129 22.063 21.6814 22.0804C21.4833 22.1071 21.4833 22.1071 21.2813 22.1342C21.1395 22.1532 20.9977 22.1722 20.8516 22.1918C20.5539 22.2318 20.2563 22.2718 19.9587 22.312C19.5095 22.3725 19.0601 22.4323 18.6107 22.4921C17.2462 22.6752 15.8882 22.8623 14.5379 23.1346C13.9152 23.236 13.3169 23.2235 12.6875 23.1998C14.1034 22.2558 15.9363 22.3694 17.5813 22.2935C17.6037 22.1776 17.6261 22.0618 17.6492 21.9424C17.7053 21.7573 17.7053 21.7573 17.7625 21.5685C18.2895 21.305 18.7697 21.3437 19.3576 21.3236C19.4797 21.3194 19.6017 21.3152 19.7275 21.3108C19.986 21.3022 20.2446 21.294 20.5032 21.2862C20.897 21.2741 21.2907 21.26 21.6845 21.2457C21.936 21.2375 22.1874 21.2295 22.4389 21.2216C22.6672 21.2142 22.8956 21.2068 23.1308 21.1992C23.6688 21.2052 24.1296 21.259 24.65 21.3873Z" fill="#6D6E71"/>
<path d="M5.7999 5.80078C6.73229 6.38784 7.59726 7.01502 8.43936 7.72656C9.3785 8.50896 10.2538 9.0375 11.4187 9.42578C11.4187 9.54541 11.4187 9.66503 11.4187 9.78828C11.5981 9.78828 11.7775 9.78828 11.9624 9.78828C11.9624 9.96772 11.9624 10.1472 11.9624 10.332C12.1045 10.3582 12.2465 10.3844 12.3929 10.4113C12.8687 10.5133 12.8687 10.5133 13.2312 10.6945C13.2312 10.8142 13.2312 10.9338 13.2312 11.057C13.6498 10.9972 14.0685 10.9374 14.4999 10.8758C14.4401 10.9954 14.3803 11.115 14.3187 11.2383C13.5227 11.4659 12.7837 11.5145 11.9624 11.4195C11.188 10.9878 10.602 10.4031 9.96865 9.78828C9.64652 9.52078 9.32176 9.25642 8.99443 8.99531C7.85719 8.06544 6.7376 7.11501 5.61865 6.16328C5.67846 6.04366 5.73828 5.92403 5.7999 5.80078Z" fill="#4F9938"/>
<path d="M24.65 21.9316C24.7633 22.4414 24.7633 22.4414 24.8313 23.0191C24.7116 23.1986 24.592 23.378 24.4688 23.5629C24.4688 23.3835 24.4688 23.204 24.4688 23.0191C24.2933 23.0466 24.1178 23.074 23.9369 23.1023C23.2824 23.2045 22.6278 23.3056 21.973 23.4063C21.6903 23.45 21.4076 23.4939 21.125 23.5382C20.7175 23.602 20.3098 23.6646 19.9021 23.7271C19.7769 23.747 19.6517 23.7668 19.5226 23.7872C18.8083 23.8955 18.1222 23.945 17.4 23.9254C17.4 23.8656 17.4 23.8058 17.4 23.7441C17.9383 23.6245 18.4766 23.5049 19.0313 23.3816C18.8759 23.4078 18.7205 23.434 18.5604 23.4609C17.4986 23.6333 16.4825 23.7942 15.4062 23.7441C15.9962 23.0142 16.6985 23.0215 17.5855 22.8974C18.5573 22.8172 19.5222 22.8269 20.4962 22.8671C20.9461 22.8854 20.9461 22.8854 21.5688 22.8379C21.6884 22.6585 21.808 22.479 21.9313 22.2941C22.4693 22.1617 22.4693 22.1617 23.1094 22.0789C23.3206 22.0502 23.5318 22.0214 23.7494 21.9918C24.2875 21.9316 24.2875 21.9316 24.65 21.9316Z" fill="#C7C7C7"/>
<path d="M5.61865 10.1504C6.15696 10.5093 6.15696 10.5093 6.70615 10.8754C6.9697 11.0492 6.9697 11.0492 7.23857 11.2266C7.42175 11.3499 7.60493 11.4733 7.79365 11.6004C7.96713 11.7164 7.96713 11.7164 8.14412 11.8347C8.45686 12.0493 8.76043 12.2771 9.0624 12.5066C9.0624 12.6263 9.0624 12.7459 9.0624 12.8691C9.16707 12.8916 9.27175 12.914 9.37959 12.9371C9.8008 13.0541 10.1407 13.1822 10.5124 13.4129C10.5722 13.5923 10.632 13.7718 10.6937 13.9566C10.8731 14.0165 11.0525 14.0763 11.2374 14.1379C11.4094 14.5521 11.4094 14.5521 11.5433 15.0555C11.5888 15.2221 11.6344 15.3886 11.6813 15.5603C11.7143 15.689 11.7472 15.8178 11.7812 15.9504C11.0685 15.6623 10.6338 15.1958 10.1046 14.6477C9.30622 13.8313 8.48463 13.062 7.6124 12.3254C7.37066 12.1178 7.12899 11.9101 6.8874 11.7023C6.70796 11.5491 6.52853 11.3958 6.34365 11.2379C6.34365 11.9556 6.34365 12.6734 6.34365 13.4129C6.28384 13.4129 6.22403 13.4129 6.1624 13.4129C5.98296 12.3363 5.80353 11.2596 5.61865 10.1504Z" fill="#352801"/>
<path d="M18.6009 13.5815C18.8735 13.584 18.8735 13.584 19.1517 13.5865C19.2914 13.5886 19.4311 13.5907 19.5751 13.5928C19.5751 13.7125 19.5751 13.8321 19.5751 13.9553C18.8765 14.1593 18.178 14.3632 17.4794 14.5671C17.2826 14.6245 17.0857 14.682 16.8829 14.7412C16.5002 14.8529 16.1175 14.9644 15.7346 15.0756C15.4321 15.1638 15.1298 15.2525 14.8278 15.3425C14.2843 15.5029 13.7618 15.6338 13.1974 15.6885C12.7011 15.7455 12.2576 15.8102 11.7813 15.9491C11.7215 15.7696 11.6617 15.5902 11.6001 15.4053C12.1886 14.8932 12.6948 14.7355 13.4537 14.577C13.6705 14.5305 13.8873 14.484 14.1107 14.4361C14.4492 14.3663 14.4492 14.3663 14.7946 14.2952C15.2426 14.2007 15.6906 14.1058 16.1384 14.0106C16.3369 13.9694 16.5354 13.9283 16.74 13.8859C18.0703 13.5753 18.0703 13.5753 18.6009 13.5815Z" fill="#185104"/>
<path d="M25.1937 9.24414C25.1339 9.42358 25.0741 9.60302 25.0125 9.78789C24.5505 9.93374 24.1145 10.0432 23.6418 10.1391C23.3557 10.2016 23.0697 10.2644 22.7837 10.3274C22.6392 10.3585 22.4947 10.3897 22.3458 10.4217C21.7628 10.5499 21.1845 10.6949 20.6059 10.8414C20.3708 10.9007 20.1358 10.9599 19.9007 11.0191C19.7688 11.0524 19.6369 11.0856 19.501 11.1199C18.9227 11.2652 18.344 11.4091 17.7653 11.553C17.5395 11.6092 17.3136 11.6654 17.0809 11.7234C16.629 11.8359 16.177 11.9482 15.725 12.0605C14.7073 12.3142 13.6931 12.5709 12.6875 12.8691C13.0059 12.2868 13.2007 12.154 13.8437 11.9466C14.0959 11.8928 14.3487 11.8418 14.602 11.793C14.8843 11.7327 15.1666 11.6718 15.4487 11.6103C15.6655 11.5636 15.6655 11.5636 15.8866 11.516C16.5378 11.3679 17.1776 11.1848 17.8191 11C19.2999 10.5794 20.7896 10.1973 22.2824 9.82188C22.5071 9.76491 22.7319 9.70795 22.9634 9.64925C23.1739 9.59664 23.3845 9.54403 23.6014 9.48982C23.7904 9.44243 23.9794 9.39505 24.1742 9.34623C24.65 9.24414 24.65 9.24414 25.1937 9.24414Z" fill="#B2B1B1"/>
<path d="M5.25634 9.78711C5.43577 9.87683 5.43577 9.87683 5.61884 9.96836C5.62565 10.126 5.62565 10.126 5.6326 10.2867C5.65372 10.7659 5.67592 11.2451 5.69813 11.7242C5.70526 11.8895 5.71238 12.0548 5.71973 12.2251C5.72732 12.3858 5.73491 12.5464 5.74274 12.7119C5.74938 12.859 5.75603 13.0061 5.76287 13.1577C5.80198 13.6156 5.88937 14.0497 5.98134 14.4996C6.0213 15.1591 6.04994 15.8183 6.07621 16.4785C6.10471 16.6628 6.13322 16.8472 6.16259 17.0371C6.34202 17.1567 6.52146 17.2764 6.70634 17.3996C6.43718 17.4893 6.43718 17.4893 6.16259 17.5809C6.16259 18.5977 6.16259 19.6145 6.16259 20.6621C6.40184 20.6621 6.64109 20.6621 6.88759 20.6621C6.88759 20.5425 6.88759 20.4229 6.88759 20.2996C7.06702 20.3594 7.24646 20.4192 7.43134 20.4809C7.31171 20.4809 7.19209 20.4809 7.06884 20.4809C7.06884 20.6005 7.06884 20.7201 7.06884 20.8434C7.66696 20.9032 8.26509 20.963 8.88134 21.0246C8.88134 21.0844 8.88134 21.1442 8.88134 21.2059C8.46985 21.2205 8.05822 21.2311 7.64657 21.2398C7.30276 21.2493 7.30276 21.2493 6.95201 21.259C6.34384 21.2059 6.34384 21.2059 6.00187 20.9885C5.56283 20.2783 5.59061 19.4344 5.56786 18.6209C5.56108 18.4031 5.55431 18.1852 5.54733 17.9607C5.54102 17.7344 5.53471 17.5081 5.52821 17.275C5.49035 15.9379 5.44151 14.6147 5.2943 13.285C5.2314 12.5947 5.23703 11.907 5.24501 11.2145C5.24583 11.0757 5.24664 10.9369 5.24749 10.7939C5.24958 10.4583 5.25283 10.1227 5.25634 9.78711Z" fill="#A93B33"/>
<path d="M22.8374 17.7617C23.6133 17.8162 23.9589 18.0911 24.4676 18.6676C24.5464 18.7612 24.6253 18.8548 24.7065 18.9512C24.7889 19.0454 24.8713 19.1397 24.9561 19.2369C25.158 19.4685 25.3573 19.7024 25.5562 19.9367C25.3749 20.4805 25.3749 20.4805 25.0124 20.6617C24.807 21.0272 24.807 21.0272 24.6499 21.3867C24.3242 21.3789 24.3242 21.3789 23.9249 21.2055C23.6898 20.7584 23.5083 20.3503 23.3358 19.8801C23.2629 19.6959 23.2629 19.6959 23.1886 19.508C22.949 18.8828 22.8374 18.4392 22.8374 17.7617Z" fill="#4C67B6"/>
<path d="M6.34396 11.2383C6.9759 11.5073 7.36656 11.8658 7.83927 12.3598C8.3616 12.8958 8.88795 13.4055 9.45919 13.8891C10.1293 14.4624 10.6803 15.0868 11.2377 15.7695C10.5491 15.6739 10.1195 15.521 9.60646 15.0445C9.54665 14.8651 9.48683 14.6857 9.42521 14.5008C8.97211 14.1177 8.49803 13.7717 8.02052 13.4197C7.60208 13.0412 7.4905 12.8756 7.43146 12.3258C7.1324 12.266 6.83333 12.2062 6.52521 12.1445C6.61309 12.9866 6.61309 12.9866 6.88771 13.7758C6.87169 14.2068 6.84358 14.6373 6.80841 15.0672C6.78995 15.2994 6.7715 15.5317 6.75248 15.7709C6.73729 15.9499 6.72211 16.1289 6.70646 16.3133C6.64665 16.3133 6.58683 16.3133 6.52521 16.3133C6.25936 14.582 6.09858 12.9891 6.34396 11.2383Z" fill="#9B1106"/>
<path d="M25.9188 8.51937C25.7394 8.87825 25.56 9.23712 25.3751 9.60687C25.2854 9.42744 25.2854 9.42744 25.1938 9.24437C24.9747 9.30349 24.7555 9.3626 24.5297 9.4235C23.1206 9.801 21.7102 10.1734 20.2888 10.5018C20.0885 10.5483 19.8883 10.5948 19.682 10.6427C19.5271 10.6597 19.3722 10.6768 19.2126 10.6944C19.093 10.5747 18.9733 10.4551 18.8501 10.3319C20.4668 9.71458 22.0454 9.19833 23.741 8.83585C24.2875 8.71438 24.2875 8.71438 24.7853 8.49884C25.253 8.31485 25.4554 8.34774 25.9188 8.51937Z" fill="#939294"/>
<path d="M6.16235 17.4004C6.40434 17.4595 6.64593 17.5203 6.88735 17.5816C7.22766 17.6079 7.56863 17.6263 7.90972 17.639C8.10364 17.6466 8.29756 17.6542 8.49736 17.662C8.69876 17.6691 8.90016 17.6763 9.10767 17.6836C9.41397 17.6953 9.41397 17.6953 9.72646 17.7073C10.2301 17.7265 10.7337 17.745 11.2374 17.7629C11.2374 17.8227 11.2374 17.8825 11.2374 17.9441C10.0411 18.004 8.84485 18.0638 7.61235 18.1254C7.55254 18.245 7.49273 18.3646 7.4311 18.4879C7.31148 18.4879 7.19185 18.4879 7.0686 18.4879C7.00292 18.7821 6.93907 19.0767 6.87603 19.3715C6.8224 19.6175 6.8224 19.6175 6.7677 19.8685C6.66405 20.3022 6.66405 20.3022 6.88735 20.6629C6.6481 20.6629 6.40885 20.6629 6.16235 20.6629C6.00139 19.973 5.9567 19.3316 5.95845 18.6238C5.95798 18.4322 5.95751 18.2407 5.95703 18.0433C5.9811 17.5816 5.9811 17.5816 6.16235 17.4004Z" fill="#555555"/>
<path d="M17.7625 13.2312C17.8223 13.3508 17.8821 13.4704 17.9437 13.5937C16.9422 13.9879 15.9552 14.2996 14.9078 14.5452C14.7063 14.5957 14.7063 14.5957 14.5007 14.6472C13.8262 14.807 13.3493 14.8849 12.6875 14.6812C12.8669 14.6213 13.0464 14.5615 13.2312 14.4999C13.0518 14.2607 12.8724 14.0214 12.6875 13.7749C13.7297 13.571 13.7297 13.571 14.1375 13.7749C14.7517 13.6345 15.3546 13.4718 15.9606 13.3005C17.1133 12.9906 17.1133 12.9906 17.7625 13.2312Z" fill="#EAEAEA"/>
<path d="M22.8376 18.4883C23.2465 18.8972 23.3751 19.2216 23.5853 19.757C23.6493 19.9178 23.7133 20.0785 23.7792 20.2441C23.9251 20.6633 23.9251 20.6633 23.9251 21.0258C20.1569 20.966 16.3887 20.9062 12.5063 20.8445C12.5063 20.7847 12.5063 20.7249 12.5063 20.6633C15.9157 20.6633 19.325 20.6633 22.8376 20.6633C22.8376 19.9455 22.8376 19.2278 22.8376 18.4883Z" fill="#AC4C45"/>
<path d="M2.1748 6.52539C5.16238 9.01504 5.16238 9.01504 5.33048 10.0767C5.34377 10.2634 5.35706 10.4501 5.37075 10.6425C5.38597 10.8514 5.40118 11.0603 5.41686 11.2756C5.4382 11.6102 5.4382 11.6102 5.45996 11.9516C5.47535 12.1781 5.49074 12.4047 5.5066 12.6382C5.62686 14.5299 5.65784 16.412 5.61855 18.3066C5.55874 18.3066 5.49893 18.3066 5.4373 18.3066C5.42273 18.1223 5.40816 17.9379 5.39314 17.7479C5.33786 17.0513 5.28153 16.3548 5.2249 15.6582C5.20073 15.3591 5.17682 15.06 5.15322 14.7608C5.08523 13.9005 5.01178 13.041 4.93034 12.1818C4.90656 11.9232 4.88449 11.6643 4.86447 11.4054C4.76146 10.0898 4.66234 9.11968 3.66162 8.20125C3.55228 8.11176 3.44293 8.02227 3.33027 7.93008C2.9414 7.58633 2.55714 7.23899 2.1748 6.88789C2.1748 6.76827 2.1748 6.64864 2.1748 6.52539Z" fill="#8A776E"/>
<path d="M15.0436 23.7444C14.6847 23.9238 14.6847 23.9238 14.3186 24.1069C14.7971 24.1069 15.2756 24.1069 15.7686 24.1069C14.5213 24.8292 12.8362 24.8978 11.4186 24.8319C11.4186 24.7721 11.4186 24.7123 11.4186 24.6506C11.2391 24.6506 11.0597 24.6506 10.8748 24.6506C10.6954 24.5908 10.5159 24.531 10.3311 24.4694C10.3909 24.3498 10.4507 24.2301 10.5123 24.1069C10.9684 23.9836 11.4081 23.8849 11.8717 23.801C12.0685 23.7645 12.0685 23.7645 12.2692 23.7272C13.2413 23.5606 14.0697 23.5531 15.0436 23.7444Z" fill="#CACACA"/>
<path d="M17.5812 21.7495C17.5812 21.9289 17.5812 22.1083 17.5812 22.2932C17.4715 22.3087 17.3619 22.3243 17.249 22.3403C16.748 22.4113 16.247 22.4825 15.746 22.5538C15.4874 22.5904 15.4874 22.5904 15.2235 22.6277C14.3763 22.7484 13.5306 22.872 12.6874 23.0182C12.6874 23.1378 12.6874 23.2575 12.6874 23.3807C12.4009 23.4469 12.1138 23.5106 11.8265 23.5733C11.6667 23.609 11.5068 23.6448 11.3422 23.6816C10.8773 23.7429 10.5902 23.7091 10.1499 23.562C10.2097 23.4423 10.2695 23.3227 10.3312 23.1995C10.786 23.0884 11.2301 22.9961 11.6905 22.9163C12.5289 22.8332 12.5289 22.8332 13.2312 22.4745C13.6373 22.3766 14.0455 22.2875 14.4546 22.2026C14.678 22.1559 14.9013 22.1091 15.1314 22.061C15.3417 22.018 15.552 21.975 15.7687 21.9307C15.9348 21.8954 16.1009 21.8602 16.272 21.8238C16.7157 21.7419 17.131 21.7366 17.5812 21.7495Z" fill="#686867"/>
<path d="M16.6748 15.0434C14.9671 16.1819 12.688 16.3652 10.6936 16.1309C10.2495 15.9779 9.84853 15.7933 9.4248 15.5872C9.48462 15.4675 9.54443 15.3479 9.60605 15.2247C10.0397 15.3247 10.4438 15.4467 10.8635 15.5985C11.3918 15.7602 11.7776 15.8153 12.3248 15.7684C12.3846 15.7086 12.4444 15.6488 12.5061 15.5872C12.8144 15.5237 13.1244 15.4684 13.435 15.4172C14.0403 15.3137 14.6186 15.2005 15.2021 15.0094C15.7846 14.858 16.1054 14.8709 16.6748 15.0434Z" fill="#A71608"/>
<path d="M22.4749 13.2305C22.4749 13.5295 22.4749 13.8286 22.4749 14.1367C21.8469 14.4059 21.8469 14.4059 21.2062 14.6805C21.266 14.4412 21.3258 14.202 21.3874 13.9555C20.5919 14.048 20.0576 14.2314 19.3937 14.6805C19.3937 14.5608 19.3937 14.4412 19.3937 14.318C19.2852 14.4077 19.1768 14.4974 19.0651 14.5898C18.2185 14.9882 17.4145 14.9053 16.4937 14.8617C17.0622 14.4827 17.4841 14.3559 18.1419 14.1863C18.3585 14.1302 18.5751 14.0741 18.7982 14.0164C19.0246 13.9589 19.251 13.9014 19.4843 13.8422C19.7107 13.7833 19.9371 13.7244 20.1703 13.6638C21.858 13.2305 21.858 13.2305 22.4749 13.2305Z" fill="#951A0A"/>
<path d="M5.61853 10.5117C5.67834 10.5117 5.73815 10.5117 5.79978 10.5117C5.92294 11.259 6.04287 12.0068 6.16228 12.7547C6.19686 12.9643 6.23144 13.1738 6.26706 13.3898C6.46125 14.6173 6.57593 15.7939 6.52478 17.0367C6.34534 17.0367 6.1659 17.0367 5.98103 17.0367C5.97005 16.8641 5.95907 16.6914 5.94775 16.5135C5.93257 16.2862 5.91738 16.0588 5.90173 15.8246C5.88701 15.5996 5.87229 15.3746 5.85713 15.1428C5.81639 14.5302 5.81639 14.5302 5.70349 14.0631C5.57895 13.3739 5.59959 12.6943 5.6072 11.9957C5.60843 11.7814 5.60843 11.7814 5.60968 11.5628C5.6118 11.2124 5.61505 10.8621 5.61853 10.5117Z" fill="#DD3123"/>
<path d="M15.4063 14.5C15.9447 14.5 16.483 14.5 17.0376 14.5C15.7501 15.3583 14.0313 15.6275 12.5063 15.7687C12.2633 15.8234 12.0205 15.8803 11.7813 15.95C11.7215 15.7706 11.6617 15.5911 11.6001 15.4062C12.0668 14.9282 12.4236 14.8228 13.0699 14.8094C13.3503 14.813 13.6307 14.8195 13.911 14.8285C14.0547 14.831 14.1984 14.8334 14.3465 14.8359C14.6998 14.8423 15.0531 14.8521 15.4063 14.8625C15.4063 14.7429 15.4063 14.6232 15.4063 14.5Z" fill="#1B510A"/>
<path d="M11.9624 11.7812C12.0222 11.9009 12.082 12.0205 12.1436 12.1438C12.3829 12.0839 12.6221 12.0241 12.8686 11.9625C12.8088 12.1718 12.749 12.3812 12.6874 12.5969C12.5451 13.1495 12.4932 13.6247 12.5175 14.1941C12.5061 14.8625 12.5061 14.8625 12.2569 15.225C11.9624 15.4063 11.9624 15.4063 11.5999 15.4063C11.5901 14.938 11.5829 14.4699 11.5772 14.0016C11.5742 13.8693 11.5712 13.7371 11.568 13.6008C11.5617 12.9042 11.5682 12.371 11.9624 11.7812Z" fill="#898E85"/>
<path d="M25.3752 10.5117C25.6145 10.6142 25.8521 10.7207 26.0889 10.8289C26.2213 10.8878 26.3538 10.9467 26.4903 11.0073C26.8252 11.2367 26.8252 11.2367 26.9618 11.6247C26.9766 11.7359 26.9913 11.8471 27.0064 11.9617C25.5808 12.6406 23.8891 13.3178 22.2939 13.2305C22.9196 12.8743 23.5418 12.7276 24.2424 12.5734C24.5606 12.5026 24.5606 12.5026 24.8853 12.4304C25.0469 12.3954 25.2086 12.3603 25.3752 12.3242C25.3154 12.085 25.2556 11.8457 25.1939 11.5992C25.3734 11.5992 25.5528 11.5992 25.7377 11.5992C25.6181 11.2403 25.4984 10.8815 25.3752 10.5117Z" fill="#558045"/>
<path d="M14.5912 16.1133C14.8656 16.1164 14.8656 16.1164 15.1456 16.1197C15.329 16.1213 15.5124 16.1229 15.7014 16.1246C15.9141 16.1278 15.9141 16.1278 16.1312 16.131C15.7001 16.8973 15.7001 16.8973 15.2249 17.2185C14.432 17.3164 13.6637 17.2813 12.8687 17.2185C12.8687 16.9194 12.8687 16.6204 12.8687 16.3122C13.1322 16.3178 13.1322 16.3178 13.4011 16.3236C14.0141 16.311 14.0152 16.1357 14.5912 16.1133Z" fill="#D32A1D"/>
<path d="M14.4907 21.5488C14.6417 21.5498 14.7926 21.5507 14.9481 21.5517C15.111 21.5523 15.274 21.5529 15.4419 21.5535C15.699 21.5558 15.699 21.5558 15.9612 21.5581C16.1333 21.5589 16.3054 21.5597 16.4827 21.5606C16.9093 21.5627 17.3358 21.5657 17.7624 21.5694C17.7624 21.6292 17.7624 21.689 17.7624 21.7507C15.5243 22.1452 13.3277 22.397 11.0562 22.4757C11.2374 22.1132 11.2374 22.1132 11.7812 21.9319C12.3475 21.8766 12.914 21.8398 13.4818 21.8016C13.9691 21.7493 14.0367 21.5753 14.4907 21.5488Z" fill="#405EBA"/>
<path d="M7.62373 18.6582C7.88728 18.6638 7.88728 18.6638 8.15615 18.6695C8.02718 18.7817 8.02718 18.7817 7.89561 18.8961C7.54664 19.2374 7.54664 19.2374 7.43115 19.9383C9.70403 19.9981 11.9769 20.0579 14.3187 20.1195C14.3187 20.1793 14.3187 20.2392 14.3187 20.3008C11.7467 20.3606 9.17478 20.4204 6.5249 20.482C6.92704 18.6724 6.92704 18.6724 7.62373 18.6582Z" fill="#C6C6C6"/>
<path d="M9.425 21.3867C12.296 21.3867 15.167 21.3867 18.125 21.3867C18.125 21.4465 18.125 21.5063 18.125 21.568C15.4334 21.568 12.7419 21.568 9.96875 21.568C9.96875 21.9268 9.96875 22.2857 9.96875 22.6555C9.66969 22.7153 9.37063 22.7751 9.0625 22.8367C9.0625 22.4778 9.0625 22.119 9.0625 21.7492C9.18213 21.7492 9.30175 21.7492 9.425 21.7492C9.425 21.6296 9.425 21.51 9.425 21.3867Z" fill="#2D4DA9"/>
<path d="M24.4686 21.5689C24.5583 21.7483 24.5583 21.7483 24.6498 21.9314C22.6835 22.4711 20.5075 22.9802 18.4873 22.4751C18.4873 22.4153 18.4873 22.3555 18.4873 22.2939C18.6162 22.2783 18.7452 22.2628 18.878 22.2468C19.4615 22.1762 20.0449 22.1048 20.6283 22.0333C20.8312 22.0089 21.0342 21.9845 21.2432 21.9593C21.4377 21.9354 21.6322 21.9114 21.8326 21.8868C22.012 21.8649 22.1914 21.8431 22.3763 21.8206C24.0793 21.5602 24.0793 21.5602 24.4686 21.5689Z" fill="#969696"/>
<path d="M25.1937 9.24414C25.1339 9.42358 25.0741 9.60302 25.0125 9.78789C24.5134 9.93985 24.0379 10.0588 23.5285 10.1617C23.2539 10.22 22.9795 10.2788 22.7051 10.338C22.573 10.3663 22.441 10.3947 22.3049 10.4239C21.8069 10.5425 21.3285 10.7119 20.8437 10.8754C20.3227 10.898 20.3227 10.898 19.9375 10.8754C20.4186 10.2476 21.0506 10.1334 21.784 9.95781C21.9059 9.92715 22.0278 9.89648 22.1534 9.86489C22.5019 9.77746 22.851 9.692 23.2 9.60664C23.487 9.5312 23.774 9.4557 24.0609 9.38008C24.65 9.24414 24.65 9.24414 25.1937 9.24414Z" fill="#BABABA"/>
<path d="M19.9375 22.112C19.9375 22.1719 19.9375 22.2317 19.9375 22.2933C19.8326 22.3079 19.7278 22.3224 19.6197 22.3375C19.1328 22.4054 18.6459 22.4738 18.159 22.5425C17.9843 22.5671 17.8096 22.5917 17.6296 22.6171C16.7443 22.7435 15.8647 22.879 14.9871 23.0523C14.2063 23.2032 13.4818 23.2295 12.6875 23.1995C14.5789 21.9386 17.7483 22.0446 19.9375 22.112Z" fill="#7F7F7F"/>
<path d="M24.65 21.9316C24.7098 22.2307 24.7696 22.5298 24.8312 22.8379C23.306 22.9276 23.306 22.9276 21.75 23.0191C21.8098 22.7799 21.8696 22.5406 21.9312 22.2941C22.3164 22.2334 22.7015 22.1731 23.0867 22.1129C23.3012 22.0792 23.5157 22.0456 23.7367 22.0109C24.2875 21.9316 24.2875 21.9316 24.65 21.9316Z" fill="#D2D2D2"/>
<path d="M5.61865 10.1504C6.84209 10.966 6.84209 10.966 7.32778 11.4616C7.43059 11.5656 7.53339 11.6696 7.63931 11.7767C7.74258 11.883 7.84585 11.9893 7.95225 12.0988C8.11346 12.2625 8.11346 12.2625 8.27793 12.4295C8.54026 12.696 8.80145 12.9637 9.0624 13.2316C8.51865 13.2316 8.51865 13.2316 8.08181 12.8415C7.92317 12.6749 7.76452 12.5084 7.60107 12.3367C7.03247 11.707 7.03247 11.707 6.34365 11.2379C6.34365 11.9556 6.34365 12.6734 6.34365 13.4129C6.28384 13.4129 6.22403 13.4129 6.1624 13.4129C5.98296 12.3363 5.80353 11.2596 5.61865 10.1504Z" fill="#580701"/>
<path d="M15.7688 25.0117C15.7688 25.1314 15.7688 25.251 15.7688 25.3742C15.9786 25.3481 16.1884 25.3219 16.4045 25.2949C16.6835 25.2609 16.9624 25.2269 17.2414 25.193C17.3793 25.1757 17.5171 25.1584 17.6591 25.1406C18.4239 25.0483 19.1654 24.992 19.9375 25.0117C19.9375 25.0716 19.9375 25.1314 19.9375 25.193C19.2656 25.3154 18.5934 25.4356 17.9211 25.5555C17.6365 25.6074 17.6365 25.6074 17.3462 25.6603C17.1616 25.693 16.977 25.7257 16.7869 25.7594C16.6179 25.7898 16.449 25.8202 16.2749 25.8514C15.7382 25.922 15.2219 25.9292 14.6813 25.918C14.6813 25.7984 14.6813 25.6787 14.6813 25.5555C14.1429 25.4658 14.1429 25.4658 13.5938 25.3742C13.5938 25.3144 13.5938 25.2546 13.5938 25.193C14.3342 25.0943 15.0206 25.0117 15.7688 25.0117Z" fill="#435381"/>
<path d="M3.44385 4.53125C3.97453 4.78344 4.45814 5.06591 4.93916 5.40352C5.0672 5.49066 5.19523 5.57781 5.32715 5.6676C5.61885 5.98125 5.61885 5.98125 5.66133 6.47048C5.64731 6.6081 5.63329 6.74571 5.61885 6.8875C5.73847 6.8875 5.8581 6.8875 5.98135 6.8875C6.04116 7.12675 6.10097 7.366 6.1626 7.6125C6.04297 7.6125 5.92335 7.6125 5.8001 7.6125C5.8001 7.43306 5.8001 7.25362 5.8001 7.06875C5.69543 7.02015 5.59075 6.97155 5.48291 6.92148C5.06504 6.70094 4.70887 6.47002 4.3501 6.1625C4.3501 6.04287 4.3501 5.92325 4.3501 5.8C4.17066 5.74019 3.99122 5.68037 3.80635 5.61875C3.59111 5.06367 3.59111 5.06367 3.44385 4.53125Z" fill="#1C6709"/>
<path d="M9.96885 25.7366C10.2898 25.7268 10.6107 25.7197 10.9317 25.7139C11.1105 25.7097 11.2892 25.7055 11.4734 25.7012C11.9626 25.7366 11.9626 25.7366 12.5063 26.0991C12.5063 26.2187 12.5063 26.3383 12.5063 26.4616C12.1552 26.4921 11.804 26.5222 11.4528 26.5522C11.1595 26.5774 11.1595 26.5774 10.8602 26.6032C10.3313 26.6428 10.3313 26.6428 9.7876 26.6428C9.84741 26.3438 9.90722 26.0447 9.96885 25.7366Z" fill="#2F427D"/>
<path d="M9.0625 23.0195C9.12231 23.0195 9.18212 23.0195 9.24375 23.0195C9.30356 23.4382 9.36337 23.8569 9.425 24.2883C9.54462 24.1088 9.66425 23.9294 9.7875 23.7445C9.90712 23.8043 10.0267 23.8642 10.15 23.9258C10.0304 24.4641 9.91075 25.0024 9.7875 25.557C9.90712 25.6168 10.0267 25.6767 10.15 25.7383C9.79112 25.8579 9.43225 25.9775 9.0625 26.1008C9.0625 25.084 9.0625 24.0672 9.0625 23.0195Z" fill="#7E7E7E"/>
<path d="M5.7999 5.80078C8.57324 7.57421 8.57324 7.57421 8.82451 8.37085C8.8432 8.47973 8.86189 8.5886 8.88115 8.70078C8.36593 8.46291 7.95785 8.19925 7.53027 7.8271C7.41813 7.73014 7.30598 7.63318 7.19043 7.53328C7.07548 7.43258 6.96053 7.33188 6.84209 7.22812C6.72433 7.12602 6.60658 7.02392 6.48525 6.91873C6.1958 6.66758 5.90715 6.41552 5.61865 6.16328C5.67846 6.04366 5.73828 5.92403 5.7999 5.80078Z" fill="#559E3E"/>
<path d="M22.8375 14.3184C23.3098 14.7907 23.5182 15.3343 23.7777 15.9383C23.8295 16.0531 23.8812 16.168 23.9346 16.2863C24.3092 17.1532 24.3092 17.1532 24.1063 17.7621C24.0464 17.6425 23.9866 17.5229 23.925 17.3996C23.2073 17.3996 22.4895 17.3996 21.75 17.3996C21.75 17.28 21.75 17.1604 21.75 17.0371C22.4079 17.0371 23.0659 17.0371 23.7438 17.0371C23.6241 16.8577 23.5045 16.6782 23.3813 16.4934C23.3813 16.2541 23.3813 16.0149 23.3813 15.7684C23.2616 15.7684 23.142 15.7684 23.0188 15.7684C22.9589 15.2899 22.8991 14.8114 22.8375 14.3184Z" fill="#E0574D"/>
<path d="M22.8375 18.4883C23.2464 18.8972 23.375 19.2216 23.5852 19.757C23.6492 19.9178 23.7132 20.0785 23.7792 20.2441C23.925 20.6633 23.925 20.6633 23.925 21.0258C23.5063 21.0258 23.0876 21.0258 22.6562 21.0258C22.7161 20.1884 22.7759 19.351 22.8375 18.4883Z" fill="#9E3433"/>
<path d="M15.225 10.875C15.1652 11.0544 15.1054 11.2339 15.0438 11.4188C14.6123 11.5782 14.2073 11.7038 13.7637 11.8152C13.6435 11.8474 13.5233 11.8795 13.3994 11.9126C13.1022 11.9917 12.8043 12.068 12.5063 12.1438C12.4464 11.9643 12.3866 11.7849 12.325 11.6C12.1456 11.5402 11.9661 11.4804 11.7812 11.4188C12.1009 11.3851 12.1009 11.3851 12.427 11.3508C13.3884 11.2334 14.2535 10.875 15.225 10.875Z" fill="#1E620E"/>
<path d="M2.8999 11.418C3.89571 12.2629 4.44892 13.3681 5.0749 14.4992C4.95528 14.6787 4.83565 14.8581 4.7124 15.043C4.51184 14.7034 4.31181 14.3635 4.11201 14.0234C4.00056 13.8342 3.88912 13.6449 3.77429 13.45C2.8999 11.9109 2.8999 11.9109 2.8999 11.418Z" fill="#263B7E"/>
<path d="M2.5376 3.44336C2.95629 3.44336 3.37497 3.44336 3.80635 3.44336C3.80635 3.6228 3.80635 3.80223 3.80635 3.98711C4.21787 4.44403 4.21787 4.44403 4.7126 4.89336C4.95426 5.13503 5.19593 5.37669 5.4376 5.61836C5.37779 5.73798 5.31797 5.85761 5.25635 5.98086C3.34269 4.27529 3.34269 4.27529 2.5376 3.44336Z" fill="#69A853"/>
<path d="M10.1499 24.6504C11.1649 24.8119 11.1649 24.8119 11.6112 24.9336C12.0369 25.0297 12.4338 25.025 12.8687 25.0129C12.8088 25.1923 12.749 25.3718 12.6874 25.5566C11.5211 25.6464 11.5211 25.6464 10.3312 25.7379C10.2713 25.379 10.2115 25.0201 10.1499 24.6504Z" fill="#CACBCC"/>
<path d="M17.2188 22.4746C18.7141 22.4746 20.2094 22.4746 21.75 22.4746C21.6902 22.654 21.6304 22.8335 21.5688 23.0184C21.0136 22.9928 20.4586 22.9662 19.9035 22.9391C19.7469 22.9319 19.5902 22.9248 19.4288 22.9175C18.6762 22.88 17.9537 22.8369 17.2188 22.6559C17.2188 22.596 17.2188 22.5362 17.2188 22.4746Z" fill="#ADADAD"/>
<path d="M10.1499 9.42578C10.8298 9.74555 11.4613 10.1397 12.0983 10.5359C12.2075 10.6035 12.3166 10.671 12.429 10.7406C12.6965 10.9062 12.9639 11.0722 13.2312 11.2383C12.6139 11.444 12.3943 11.4281 11.7812 11.2383C11.0374 10.7485 10.613 10.1804 10.1499 9.42578Z" fill="#398824"/>
<path d="M18.125 21.3867C19.5605 21.3867 20.996 21.3867 22.475 21.3867C22.475 21.4465 22.475 21.5063 22.475 21.568C19.3213 22.148 19.3212 22.148 18.125 21.568C18.125 21.5082 18.125 21.4483 18.125 21.3867Z" fill="#575559"/>
<path d="M6.5249 10.6934C7.38584 10.852 7.38584 10.852 7.79365 11.0559C7.79365 11.1755 7.79365 11.2951 7.79365 11.4184C8.04038 11.4856 8.04038 11.4856 8.29209 11.5543C8.9038 11.7896 9.19671 12.0019 9.60615 12.5059C9.60615 12.6255 9.60615 12.7451 9.60615 12.8684C9.42671 12.8684 9.24728 12.8684 9.0624 12.8684C9.0624 12.7487 9.0624 12.6291 9.0624 12.5059C8.96147 12.461 8.86054 12.4161 8.75654 12.3699C8.26439 12.1039 7.86666 11.7689 7.43115 11.4184C7.26293 11.3174 7.09471 11.2165 6.92139 11.1125C6.79055 11.034 6.65971 10.9555 6.5249 10.8746C6.5249 10.8148 6.5249 10.755 6.5249 10.6934Z" fill="#344410"/>
<path d="M24.6502 23.0195C24.8894 23.1392 25.1287 23.2588 25.3752 23.382C25.3412 23.7219 25.3412 23.7219 25.1939 24.107C24.5303 24.4863 23.9532 24.5046 23.2002 24.4695C23.2002 24.4097 23.2002 24.3499 23.2002 24.2883C23.4993 24.2285 23.7983 24.1687 24.1064 24.107C23.8672 23.9874 23.6279 23.8678 23.3814 23.7445C24.0095 23.6548 24.0095 23.6548 24.6502 23.5633C24.6502 23.3838 24.6502 23.2044 24.6502 23.0195Z" fill="#3D4F86"/>
<path d="M25.9186 8.51957C25.7391 8.87844 25.5597 9.23732 25.3748 9.60707C25.315 9.48744 25.2552 9.36782 25.1936 9.24457C24.4758 9.24457 23.7581 9.24457 23.0186 9.24457C23.4869 8.93232 23.8431 8.75719 24.3666 8.57621C24.5737 8.50226 24.5737 8.50226 24.785 8.42682C25.2331 8.32975 25.489 8.37376 25.9186 8.51957Z" fill="#8A8C88"/>
<path d="M6.1626 17.9434C6.22241 18.1826 6.28222 18.4219 6.34385 18.6684C6.70272 18.7581 6.70272 18.7581 7.06885 18.8496C7.02644 19.0003 7.02644 19.0003 6.98318 19.1541C6.9479 19.2854 6.91262 19.4167 6.87627 19.552C6.84052 19.6823 6.80477 19.8127 6.76794 19.947C6.66804 20.3128 6.66804 20.3128 6.8876 20.6621C6.64835 20.6621 6.4091 20.6621 6.1626 20.6621C6.1626 19.7649 6.1626 18.8677 6.1626 17.9434Z" fill="#8C8C8A"/>
<path d="M19.3937 10.3321C18.9685 10.9169 18.4499 11.0368 17.776 11.1888C17.2606 11.2568 16.8137 11.1824 16.3125 11.0571C16.8159 10.7951 17.3176 10.5768 17.8531 10.3888C17.9896 10.3395 18.126 10.2902 18.2666 10.2394C18.7115 10.1415 18.9668 10.1875 19.3937 10.3321Z" fill="#888987"/>
<path d="M11.5999 23.7432C11.241 23.9226 10.8822 24.102 10.5124 24.2869C10.5124 24.4065 10.5124 24.5262 10.5124 24.6494C10.3928 24.6494 10.2732 24.6494 10.1499 24.6494C10.1499 24.8887 10.1499 25.1279 10.1499 25.3744C10.2695 25.4342 10.3892 25.494 10.5124 25.5557C10.333 25.6454 10.333 25.6454 10.1499 25.7369C10.0303 25.6771 9.91065 25.6173 9.7874 25.5557C9.74209 24.3549 9.74209 24.3549 10.1499 23.7432C10.6902 23.527 11.0521 23.5671 11.5999 23.7432Z" fill="#ABABAB"/>
<path d="M7.62373 18.6582C7.88728 18.6638 7.88728 18.6638 8.15615 18.6695C8.07391 18.7368 7.99167 18.8041 7.90693 18.8734C7.56939 19.216 7.56939 19.216 7.44248 19.7797C7.37893 19.9516 7.31538 20.1236 7.2499 20.3008C6.87537 20.424 6.87537 20.424 6.5249 20.482C6.58072 20.2138 6.63755 19.9457 6.69482 19.6777C6.72637 19.5284 6.75791 19.3791 6.79041 19.2253C6.94429 18.6311 6.97993 18.6713 7.62373 18.6582Z" fill="#B5B5B5"/>
<path d="M19.7563 24.2871C20.8928 24.3469 22.0292 24.4067 23.2001 24.4684C23.2001 24.5282 23.2001 24.588 23.2001 24.6496C22.8605 24.7112 22.5206 24.7713 22.1806 24.8309C21.9913 24.8645 21.8021 24.8981 21.6071 24.9328C21.0422 25.0098 20.5068 25.0258 19.9376 25.0121C19.8778 24.7729 19.818 24.5336 19.7563 24.2871Z" fill="#3E4F84"/>
<path d="M24.4689 23.0179C24.4091 23.2572 24.3493 23.4964 24.2877 23.7429C23.1726 23.7606 23.1726 23.7606 22.8377 23.7429C22.7779 23.6831 22.7181 23.6233 22.6564 23.5617C22.2336 23.5543 21.8105 23.554 21.3877 23.5617C22.3319 22.9952 23.3944 22.9917 24.4689 23.0179Z" fill="#D9D8D7"/>
<path d="M16.6751 14.1379C16.6751 14.2575 16.6751 14.3771 16.6751 14.5004C16.2564 14.5004 15.8377 14.5004 15.4063 14.5004C15.4063 14.62 15.4063 14.7396 15.4063 14.8629C14.5909 15.0197 14.1346 15.1001 13.4126 14.6816C13.752 14.5894 14.092 14.4991 14.4321 14.4097C14.6214 14.3593 14.8106 14.3088 15.0056 14.2568C15.5798 14.1395 16.091 14.1168 16.6751 14.1379Z" fill="#316824"/>
<path d="M24.6502 9.24414C24.0211 9.66351 23.4412 9.76792 22.7131 9.90117C22.5859 9.92547 22.4586 9.94976 22.3276 9.9748C22.0145 10.0344 21.7011 10.0926 21.3877 10.1504C21.8832 9.40718 22.3497 9.31444 23.2002 9.11953C23.7377 9.06354 24.131 9.10669 24.6502 9.24414Z" fill="#9E9E9F"/>
<path d="M16.6751 24.4683C16.3126 25.012 16.3126 25.012 15.8729 25.1112C15.6139 25.1294 15.6139 25.1294 15.3497 25.148C15.0928 25.169 15.0928 25.169 14.8307 25.1905C14.3295 25.1932 13.8986 25.1289 13.4126 25.012C14.375 24.3704 15.549 24.4448 16.6751 24.4683Z" fill="#CDCDCE"/>
<path d="M20.3 9.60529C20.3 9.72491 20.3 9.84454 20.3 9.96779C18.2117 10.592 18.2117 10.592 17.2188 10.5115C17.3982 10.4517 17.5776 10.3919 17.7625 10.3303C17.7625 10.2107 17.7625 10.091 17.7625 9.96779C18.6402 9.72567 19.3819 9.55938 20.3 9.60529Z" fill="#286819"/>
<path d="M22.4748 13.2305C22.4748 13.5295 22.4748 13.8286 22.4748 14.1367C21.8468 14.4059 21.8468 14.4059 21.2061 14.6805C21.2565 14.5179 21.2565 14.5179 21.308 14.352C21.4273 13.9257 21.4273 13.9257 21.2061 13.4117C21.6575 13.2872 21.9997 13.2305 22.4748 13.2305Z" fill="#A42317"/>
<path d="M5.61865 10.5117C5.67846 10.5117 5.73828 10.5117 5.7999 10.5117C6.21608 12.6 6.21608 12.6 6.1624 13.593C5.98296 13.593 5.80353 13.593 5.61865 13.593C5.61865 12.5762 5.61865 11.5593 5.61865 10.5117Z" fill="#BC2417"/>
<path d="M24.4686 21.568C24.5284 21.6877 24.5882 21.8073 24.6498 21.9305C23.7721 22.1726 23.0304 22.3389 22.1123 22.293C22.1123 22.1734 22.1123 22.0538 22.1123 21.9305C22.9346 21.6674 23.595 21.5254 24.4686 21.568Z" fill="#AEAEAE"/>
<path d="M19.9376 12.6882C19.9974 12.8078 20.0572 12.9274 20.1188 13.0507C19.4259 13.3085 18.8659 13.4568 18.1251 13.4132C18.0653 13.2337 18.0055 13.0543 17.9438 12.8694C19.3408 12.4127 19.3408 12.4127 19.9376 12.6882Z" fill="#E9E8E8"/>
<path d="M6.8877 20.3008C7.06713 20.3606 7.24657 20.4204 7.43145 20.482C7.31182 20.482 7.1922 20.482 7.06895 20.482C7.06895 20.6017 7.06895 20.7213 7.06895 20.8445C7.66707 20.9043 8.2652 20.9642 8.88145 21.0258C8.88145 21.0856 8.88145 21.1454 8.88145 21.207C8.04407 21.207 7.2067 21.207 6.34395 21.207C6.22432 20.9678 6.1047 20.7285 5.98145 20.482C6.43004 20.5718 6.43004 20.5718 6.8877 20.6633C6.8877 20.5437 6.8877 20.424 6.8877 20.3008Z" fill="#9F2017"/>
<path d="M10.1499 14.5C10.5088 14.5 10.8677 14.5 11.2374 14.5C11.4168 14.9785 11.5963 15.457 11.7812 15.95C11.0064 15.6631 10.6456 15.1333 10.1499 14.5Z" fill="#401500"/>
<path d="M24.4688 11.2375C24.7147 11.4131 24.9572 11.5935 25.1938 11.7813C24.6555 11.9009 24.1172 12.0205 23.5626 12.1438C23.6224 11.9643 23.6822 11.7849 23.7438 11.6C23.6242 11.4804 23.5046 11.3608 23.3813 11.2375C23.9251 11.0562 23.9251 11.0562 24.4688 11.2375Z" fill="#D7D8D6"/>
<path d="M6.16233 17.4004C6.28195 17.4004 6.40158 17.4004 6.52483 17.4004C6.52483 17.6995 6.52483 17.9985 6.52483 18.3066C6.82389 18.3066 7.12295 18.3066 7.43108 18.3066C7.31145 18.4263 7.19183 18.5459 7.06858 18.6691C6.82933 18.6691 6.59008 18.6691 6.34358 18.6691C6.28377 19.028 6.22395 19.3869 6.16233 19.7566C6.10252 19.7566 6.0427 19.7566 5.98108 19.7566C5.97621 19.3979 5.97268 19.0392 5.96975 18.6805C5.96765 18.4807 5.96555 18.2809 5.96338 18.0751C5.98108 17.5816 5.98108 17.5816 6.16233 17.4004Z" fill="#716260"/>
<path d="M25.375 10.5117C25.6143 10.6142 25.8519 10.7207 26.0887 10.8289C26.2211 10.8878 26.3536 10.9467 26.4901 11.0073C26.825 11.2367 26.825 11.2367 26.9616 11.6247C26.9764 11.7359 26.9911 11.8471 27.0063 11.9617C26.4625 11.9617 26.4625 11.9617 25.9188 11.5992C25.9786 11.4796 26.0384 11.36 26.1 11.2367C25.9206 11.2367 25.7411 11.2367 25.5563 11.2367C25.4964 10.9975 25.4366 10.7582 25.375 10.5117Z" fill="#6F9A5E"/>
<path d="M24.6498 21.388C24.59 21.5077 24.5302 21.6273 24.4686 21.7505C23.9354 21.8256 23.9354 21.8256 23.2791 21.8638C23.062 21.8774 22.845 21.8909 22.6214 21.9049C22.4534 21.9138 22.2854 21.9226 22.1123 21.9318C22.1123 21.8122 22.1123 21.6925 22.1123 21.5693C23.8179 21.1197 23.8179 21.1197 24.6498 21.388Z" fill="#8E8989"/>
<path d="M12.3248 13.4121C12.5042 13.5018 12.5042 13.5018 12.6873 13.5934C12.6873 13.713 12.6873 13.8326 12.6873 13.9559C12.8032 13.9783 12.9191 14.0007 13.0385 14.0238C13.1618 14.0612 13.2852 14.0986 13.4123 14.1371C13.4721 14.2567 13.5319 14.3764 13.5936 14.4996C13.2347 14.6192 12.8758 14.7389 12.5061 14.8621C12.3248 14.6809 12.3248 14.6809 12.3135 14.0352C12.3172 13.8296 12.321 13.6239 12.3248 13.4121Z" fill="#D8D7D7"/>
<path d="M20.8437 13.2304C20.4301 13.6062 20.2196 13.7712 19.6514 13.7876C19.4116 13.7529 19.4116 13.7529 19.1671 13.7175C19.0054 13.6957 18.8437 13.674 18.6771 13.6516C18.5547 13.6322 18.4323 13.6128 18.3062 13.5929C19.251 13.1126 19.7821 13.0132 20.8437 13.2304Z" fill="#306624"/>
<path d="M15.4063 11.9626C15.1235 12.0807 14.8402 12.1975 14.5566 12.3138C14.3989 12.379 14.2412 12.4442 14.0787 12.5113C13.6152 12.6798 13.1729 12.7858 12.6875 12.8689C12.9142 12.4439 13.1129 12.1919 13.5647 12.0086C14.2521 11.823 14.7149 11.7476 15.4063 11.9626Z" fill="#ABAAAA"/>
<path d="M17.5813 21.7499C17.5813 21.9294 17.5813 22.1088 17.5813 22.2937C16.415 22.3834 16.415 22.3834 15.2251 22.4749C15.2251 22.4151 15.2251 22.3553 15.2251 22.2937C15.3971 22.2376 15.569 22.1815 15.7462 22.1237C16.8985 21.732 16.8985 21.732 17.5813 21.7499Z" fill="#676869"/>
<path d="M15.4064 14.5C15.9448 14.5 16.4831 14.5 17.0377 14.5C16.4378 14.9 15.9828 15.0044 15.2818 15.157C15.0681 15.2042 14.8543 15.2514 14.634 15.3C14.3883 15.3526 14.3883 15.3526 14.1377 15.4063C14.1975 15.2866 14.2573 15.167 14.3189 15.0438C14.874 14.9305 14.874 14.9305 15.4064 14.8625C15.4064 14.7429 15.4064 14.6233 15.4064 14.5Z" fill="#1D4700"/>
<path d="M9.425 21.3867C9.54463 21.4465 9.66425 21.5063 9.7875 21.568C9.90078 22.123 9.90078 22.123 9.96875 22.6555C9.66969 22.7153 9.37063 22.7751 9.0625 22.8367C9.0625 22.4778 9.0625 22.119 9.0625 21.7492C9.18213 21.7492 9.30175 21.7492 9.425 21.7492C9.425 21.6296 9.425 21.51 9.425 21.3867Z" fill="#2A449E"/>
<path d="M5.25635 18.3066C5.37597 18.3066 5.4956 18.3066 5.61885 18.3066C5.67866 19.0842 5.73847 19.8618 5.8001 20.6629C5.0751 19.7566 5.0751 19.7566 5.04395 19.351C5.11475 19.0028 5.18555 18.6547 5.25635 18.3066Z" fill="#30345E"/>
<path d="M22.2937 12.8691C22.2937 12.9888 22.2937 13.1084 22.2937 13.2316C21.5759 13.4111 20.8582 13.5905 20.1187 13.7754C20.2383 13.5361 20.3579 13.2969 20.4812 13.0504C21.0995 12.9155 21.6618 12.8691 22.2937 12.8691Z" fill="#185002"/>
<path d="M10.3312 23.1992C11.1087 23.1992 11.8863 23.1992 12.6874 23.1992C12.6874 23.259 12.6874 23.3188 12.6874 23.3805C12.4009 23.4466 12.1138 23.5104 11.8265 23.573C11.6667 23.6088 11.5068 23.6445 11.3422 23.6814C10.8773 23.7427 10.5902 23.7088 10.1499 23.5617C10.2097 23.4421 10.2695 23.3225 10.3312 23.1992Z" fill="#7B7B7B"/>
<path d="M4.89355 9.0625C5.16271 9.24194 5.16271 9.24194 5.4373 9.425C5.55693 9.36519 5.67655 9.30537 5.7998 9.24375C5.7998 9.36337 5.7998 9.483 5.7998 9.60625C5.91943 9.60625 6.03905 9.60625 6.1623 9.60625C6.22212 9.90531 6.28193 10.2044 6.34355 10.5125C5.73423 10.2514 5.33008 9.92389 4.89355 9.425C4.89355 9.30537 4.89355 9.18575 4.89355 9.0625Z" fill="#4D643B"/>
<path d="M14.7831 16.1191C14.9887 16.1229 15.1943 16.1266 15.4062 16.1305C15.1669 16.3697 14.9277 16.609 14.6812 16.8555C14.6213 16.7957 14.5615 16.7358 14.4999 16.6742C14.2254 16.6322 13.9493 16.5995 13.6729 16.5723C13.5232 16.5571 13.3734 16.5419 13.2191 16.5262C13.1035 16.5153 12.9878 16.5043 12.8687 16.493C12.8687 16.4332 12.8687 16.3733 12.8687 16.3117C13.1322 16.3173 13.1322 16.3173 13.4011 16.323C14.0785 16.3092 14.0724 16.1316 14.7831 16.1191Z" fill="#C6261A"/>
<path d="M8.3374 21.3867C8.69628 21.3867 9.05515 21.3867 9.4249 21.3867C9.4249 21.5063 9.4249 21.626 9.4249 21.7492C9.30528 21.7492 9.18565 21.7492 9.0624 21.7492C9.0624 22.1081 9.0624 22.467 9.0624 22.8367C8.67203 22.3615 8.44602 21.995 8.3374 21.3867Z" fill="#213885"/>
<path d="M22.1124 21.5691C22.1124 21.6887 22.1124 21.8083 22.1124 21.9316C21.6138 22.0978 21.3222 22.1325 20.8097 22.1241C20.4676 22.1185 20.4676 22.1185 20.1187 22.1128C20.1785 21.9932 20.2383 21.8736 20.2999 21.7503C20.9103 21.5808 21.4814 21.551 22.1124 21.5691Z" fill="#777878"/>
<path d="M17.5814 13.5942C17.0808 14.0948 16.6377 14.0615 15.9502 14.1379C15.9502 13.9585 15.9502 13.779 15.9502 13.5942C16.5064 13.316 16.9835 13.4945 17.5814 13.5942Z" fill="#DDDFDC"/>
<path d="M20.8775 12.4955C21.0409 12.4971 21.2042 12.4988 21.3724 12.5004C21.497 12.5025 21.6215 12.5046 21.7498 12.5068C21.2389 13.0177 20.8271 13.0017 20.1186 13.0506C19.6768 12.8806 19.6768 12.8806 19.3936 12.6881C19.94 12.5059 20.3074 12.4881 20.8775 12.4955Z" fill="#DADBD9"/>
<path d="M25.3752 11.7812C25.3752 11.9607 25.3752 12.1401 25.3752 12.325C24.9565 12.3848 24.5378 12.4446 24.1064 12.5062C24.1064 12.3268 24.1064 12.1474 24.1064 11.9625C24.5579 11.838 24.9001 11.7812 25.3752 11.7812Z" fill="#215B11"/>
<path d="M2.175 10.1504C2.41425 10.4495 2.6535 10.7485 2.9 11.0566C2.84019 11.1763 2.78037 11.2959 2.71875 11.4191C2.4795 11.4191 2.24025 11.4191 1.99375 11.4191C1.88047 11.0906 1.88047 11.0906 1.8125 10.6941C1.93212 10.5147 2.05175 10.3353 2.175 10.1504Z" fill="#32437A"/>
<path d="M22.6561 9.42464C22.0001 9.77548 21.4113 10.0872 20.6623 10.1496C20.5427 10.03 20.4231 9.91039 20.2998 9.78714C20.5557 9.69036 20.8127 9.59653 21.0701 9.50394C21.2131 9.45137 21.3561 9.3988 21.5034 9.34463C21.9657 9.23519 22.2126 9.27105 22.6561 9.42464Z" fill="#888887"/>
<path d="M23.7437 20.4805C24.1025 20.4805 24.4614 20.4805 24.8312 20.4805C24.7713 20.7795 24.7115 21.0786 24.6499 21.3867C24.4107 21.3269 24.1714 21.2671 23.9249 21.2055C23.8651 20.9662 23.8053 20.727 23.7437 20.4805Z" fill="#56575E"/>
<path d="M24.1063 12.3243C24.1662 12.444 24.226 12.5636 24.2876 12.6868C23.7892 12.8114 23.7892 12.8114 23.2001 12.8681C22.7696 12.6075 22.7696 12.6075 22.4751 12.3243C23.0751 12.1243 23.5001 12.1441 24.1063 12.3243Z" fill="#306622"/>
<path d="M9.24375 22.6562C9.30356 22.6562 9.36338 22.6562 9.425 22.6562C9.425 22.9553 9.425 23.2544 9.425 23.5625C9.72406 23.5027 10.0231 23.4429 10.3313 23.3813C10.0337 23.7475 9.73147 24.11 9.425 24.4688C9.36519 24.4688 9.30538 24.4688 9.24375 24.4688C9.20857 24.2008 9.17485 23.9327 9.1418 23.6645C9.12287 23.5152 9.10395 23.3659 9.08445 23.212C9.07721 23.0884 9.06996 22.9648 9.0625 22.8375C9.12231 22.7777 9.18213 22.7179 9.24375 22.6562Z" fill="#616263"/>
<path d="M11.9625 11.7812C12.0223 11.9009 12.0821 12.0205 12.1437 12.1438C12.383 12.0839 12.6222 12.0241 12.8687 11.9625C12.7215 12.4043 12.7215 12.4043 12.5062 12.8688C12.3268 12.9286 12.1474 12.9884 11.9625 13.05C11.8934 12.6891 11.8332 12.3263 11.7812 11.9625C11.8411 11.9027 11.9009 11.8429 11.9625 11.7812Z" fill="#6B6C6A"/>
<path d="M8.88145 13.4121C9.30013 13.771 9.71882 14.1299 10.1502 14.4996C9.97076 14.5893 9.97076 14.5893 9.7877 14.6809C9.42882 14.4416 9.06995 14.2024 8.7002 13.9559C8.76001 13.7764 8.81982 13.597 8.88145 13.4121Z" fill="#8C0C02"/>
<path d="M17.3998 25.0116C16.8316 25.3483 16.4256 25.4106 15.7686 25.3741C15.7686 25.2544 15.7686 25.1348 15.7686 25.0116C16.399 24.8014 16.758 24.8832 17.3998 25.0116Z" fill="#253E93"/>
<path d="M24.6501 23.0195C24.8893 23.1392 25.1286 23.2588 25.3751 23.382C25.3153 23.6213 25.2555 23.8605 25.1938 24.107C25.134 23.9874 25.0742 23.8678 25.0126 23.7445C24.6456 23.6263 24.6456 23.6263 24.2876 23.5633C24.4072 23.5633 24.5268 23.5633 24.6501 23.5633C24.6501 23.3838 24.6501 23.2044 24.6501 23.0195Z" fill="#4E63A2"/>
<path d="M9.4248 22.6562C9.84349 22.7759 10.2622 22.8955 10.6936 23.0188C10.0365 23.5625 10.0365 23.5625 9.4248 23.5625C9.4248 23.2634 9.4248 22.9644 9.4248 22.6562Z" fill="#3F3F3E"/>
<path d="M21.9313 22.293C22.4098 22.3528 22.8883 22.4126 23.3813 22.4742C22.813 22.8109 22.4071 22.8732 21.75 22.8367C21.8098 22.6573 21.8696 22.4778 21.9313 22.293Z" fill="#C2C2C2"/>
<path d="M18.85 13.7758C18.3717 14.0321 17.9308 14.2058 17.4 14.3196C17.3402 14.1401 17.2804 13.9607 17.2188 13.7758C17.775 13.4977 18.252 13.6762 18.85 13.7758Z" fill="#2B671D"/>
<path d="M17.7625 9.96875C18.1812 9.96875 18.5999 9.96875 19.0313 9.96875C18.5689 10.3955 18.3588 10.5095 17.7172 10.5465C17.5527 10.5353 17.3882 10.5241 17.2188 10.5125C17.3982 10.4527 17.5776 10.3929 17.7625 10.3313C17.7625 10.2116 17.7625 10.092 17.7625 9.96875Z" fill="#1E600F"/>
<path d="M5.7999 5.80078C6.33821 6.15966 6.33821 6.15966 6.8874 6.52578C6.82759 6.70522 6.76778 6.88466 6.70615 7.06953C6.34728 6.77047 5.9884 6.47141 5.61865 6.16328C5.67846 6.04366 5.73828 5.92403 5.7999 5.80078Z" fill="#5EA347"/>
<path d="M20.1187 23.9253C19.9393 24.1944 19.9393 24.1944 19.7562 24.469C19.2179 24.4092 18.6796 24.3494 18.125 24.2878C18.125 24.228 18.125 24.1682 18.125 24.1065C18.8019 23.9473 19.4242 23.9091 20.1187 23.9253Z" fill="#C8C9CA"/>
<path d="M16.709 23.2574C16.937 23.2986 17.1651 23.3397 17.4 23.382C16.7413 23.8036 16.1728 23.774 15.4062 23.7445C15.7753 23.1678 16.0751 23.1744 16.709 23.2574Z" fill="#C5C5C5"/>
<path d="M22.8375 20.4805C23.1366 20.4805 23.4356 20.4805 23.7438 20.4805C23.8036 20.6599 23.8634 20.8393 23.925 21.0242C23.5063 21.0242 23.0876 21.0242 22.6562 21.0242C22.7161 20.8448 22.7759 20.6653 22.8375 20.4805Z" fill="#B83027"/>
</svg>
