<?xml version="1.0" encoding="UTF-8"?>
<svg id="Layer_1" data-name="Layer 1" xmlns="http://www.w3.org/2000/svg" xmlns:xlink="http://www.w3.org/1999/xlink" viewBox="0 0 501.66 114.83">
  <defs>
    <style>
      .cls-1 {
        fill: none;
      }

      .cls-2 {
        fill: #9ad4b8;
      }

      .cls-3 {
        fill: #76c8aa;
      }

      .cls-4 {
        fill: #91d0b4;
      }

      .cls-5 {
        fill: #9ed5b7;
      }

      .cls-6 {
        fill: #8ecfb2;
      }

      .cls-7 {
        fill: #afdad4;
      }

      .cls-8 {
        fill: #a5d5cf;
      }

      .cls-9 {
        fill: #a8d7d0;
      }

      .cls-10 {
        fill: #99d0c9;
      }

      .cls-11 {
        fill: #7bc9ac;
      }

      .cls-12 {
        fill: #acd8d2;
      }

      .cls-13 {
        fill: #c3e3de;
      }

      .cls-14 {
        fill: #80cbaf;
      }

      .cls-15 {
        fill: #cee9e4;
      }

      .cls-16 {
        fill: #bce0da;
      }

      .cls-17 {
        fill: #cde8e4;
      }

      .cls-18 {
        fill: #aed9d3;
      }

      .cls-19 {
        fill: url(#linear-gradient-4);
      }

      .cls-20 {
        fill: url(#linear-gradient-3);
      }

      .cls-21 {
        fill: url(#linear-gradient-2);
      }

      .cls-22 {
        fill: #a1d3b8;
      }

      .cls-23 {
        fill: #83ccb0;
      }

      .cls-24 {
        fill: #a6d4ba;
      }

      .cls-25 {
        fill: #b6ddd7;
      }

      .cls-26 {
        fill: #8fd0b2;
      }

      .cls-27 {
        fill: #9cd4b7;
      }

      .cls-28 {
        fill: #a7d4ba;
      }

      .cls-29 {
        fill: #bfe1dc;
      }

      .cls-30 {
        fill: #a2d3b9;
      }

      .cls-31 {
        fill: #93d1b5;
      }

      .cls-32 {
        fill: url(#linear-gradient);
      }

      .cls-33 {
        fill: #95d2b5;
      }

      .cls-34 {
        fill: #b9ded9;
      }

      .cls-35 {
        fill: #bee1dc;
      }

      .cls-36 {
        fill: #83ccaf;
      }

      .cls-37 {
        fill: #a4d5ce;
      }

      .cls-38 {
        fill: #c2e3de;
      }

      .cls-39 {
        fill: #8ccfb2;
      }

      .cls-40 {
        fill: #96d2b5;
      }

      .cls-41 {
        fill: #cbe7e2;
      }

      .cls-42 {
        fill: #7ccaac;
      }

      .cls-43 {
        fill: #74c7aa;
      }

      .cls-44 {
        fill: #a2d4cd;
      }

      .cls-45 {
        fill: #7fcbad;
      }

      .cls-46 {
        fill: #bde0db;
      }

      .cls-47 {
        fill: #99d3b6;
      }

      .cls-48 {
        fill: #a0d3b8;
      }

      .cls-49 {
        fill: #b3dcd6;
      }

      .cls-50 {
        fill: #bbdfda;
      }

      .cls-51 {
        fill: #4dc0ac;
      }

      .cls-52 {
        clip-path: url(#clippath-1);
      }

      .cls-53 {
        clip-path: url(#clippath-3);
      }

      .cls-54 {
        clip-path: url(#clippath-4);
      }

      .cls-55 {
        clip-path: url(#clippath-2);
      }

      .cls-56 {
        clip-path: url(#clippath-6);
      }

      .cls-57 {
        clip-path: url(#clippath-5);
      }

      .cls-58 {
        fill: #72c7a8;
      }

      .cls-59 {
        fill: #c0e2dd;
      }

      .cls-60 {
        fill: #c1e2dd;
      }

      .cls-61 {
        fill: #fff;
      }

      .cls-62 {
        fill: #badfd9;
      }

      .cls-63 {
        fill: #94d1b5;
      }

      .cls-64 {
        fill: #87cdb0;
      }

      .cls-65 {
        fill: #a3d3b9;
      }

      .cls-66 {
        fill: #86cdb0;
      }

      .cls-67 {
        fill: #9fd4b8;
      }

      .cls-68 {
        fill: #9ed2cb;
      }

      .cls-69 {
        fill: #a3d5ce;
      }

      .cls-70 {
        fill: #70c6a8;
      }

      .cls-71 {
        fill: #c4e4df;
      }

      .cls-72 {
        fill: #8aceb1;
      }

      .cls-73 {
        fill: #9fd3cc;
      }

      .cls-74 {
        fill: #7dcaad;
      }

      .cls-75 {
        fill: #cce8e3;
      }

      .cls-76 {
        fill: #89ceb1;
      }

      .cls-77 {
        fill: #7ac9ac;
      }

      .cls-78 {
        fill: #6ec6a8;
      }

      .cls-79 {
        fill: #b0dad4;
      }

      .cls-80 {
        fill: #a5d4b9;
      }

      .cls-81 {
        fill: #71c7a8;
      }

      .cls-82 {
        fill: #c9e6e1;
      }

      .cls-83 {
        fill: #7ac9ab;
      }

      .cls-84 {
        fill: #79c9ab;
      }

      .cls-85 {
        fill: #81cbaf;
      }

      .cls-86 {
        fill: #a9d7d1;
      }

      .cls-87 {
        fill: #98d3b6;
      }

      .cls-88 {
        fill: #8bceb1;
      }

      .cls-89 {
        fill: #6fc6a8;
      }

      .cls-90 {
        fill: #b2dbd5;
      }

      .cls-91 {
        fill: #9bd1ca;
      }

      .cls-92 {
        fill: #a6d6cf;
      }

      .cls-93 {
        fill: #9cd2cb;
      }

      .cls-94 {
        fill: #a1d4cd;
      }

      .cls-95 {
        fill: #96d2b6;
      }

      .cls-96 {
        fill: #aad8d1;
      }

      .cls-97 {
        fill: #9cd3b7;
      }

      .cls-98 {
        fill: #cae7e2;
      }

      .cls-99 {
        fill: #c5e4df;
      }

      .cls-100 {
        fill: #a8d4ba;
      }

      .cls-101 {
        fill: #98d0c9;
      }

      .cls-102 {
        fill: #c6e5e0;
      }

      .cls-103 {
        fill: #add9d3;
      }

      .cls-104 {
        fill: #9ad1ca;
      }

      .cls-105 {
        fill: #88cdb1;
      }

      .cls-106 {
        fill: #7ecaad;
      }

      .cls-107 {
        fill: #a0d3cc;
      }

      .cls-108 {
        fill: #73c7aa;
      }

      .cls-109 {
        fill: #b4dcd6;
      }

      .cls-110 {
        fill: #abd8d2;
      }

      .cls-111 {
        fill: #b1dbd5;
      }

      .cls-112 {
        fill: #c7e5e0;
      }

      .cls-113 {
        fill: #92d1b4;
      }

      .cls-114 {
        fill: #97d0c8;
      }

      .cls-115 {
        fill: #97d3b6;
      }

      .cls-116 {
        clip-path: url(#clippath);
      }

      .cls-117 {
        fill: #90d0b4;
      }

      .cls-118 {
        fill: #78c8ab;
      }

      .cls-119 {
        fill: #b5ddd7;
      }

      .cls-120 {
        fill: #a4d5b9;
      }

      .cls-121 {
        fill: #85ccb0;
      }

      .cls-122 {
        fill: #a0d4b8;
      }

      .cls-123 {
        fill: #c8e6e1;
      }
    </style>
    <clipPath id="clippath">
      <path class="cls-1" d="M81.38,25.79h17.86l4.43,8.33c3.79,7.12,13.99,7.12,17.78,0l4.43-8.33h17.35c6.36,0,11.51,5.15,11.51,11.51v65.07c0,4.9-3.98,8.88-8.88,8.88h0c-4.9,0-8.88-3.98-8.88-8.88v-49.95l-8.85,11.38c-1.91,2.45-4.84,3.89-7.95,3.89h-15.24c-3.11,0-6.04-1.43-7.95-3.89l-8.85-11.38v49.95c0,4.9-3.98,8.88-8.88,8.88h0c-4.9,0-8.88-3.98-8.88-8.88V36.78c0-6.07,4.92-11,11-11Z"/>
    </clipPath>
    <clipPath id="clippath-1">
      <path class="cls-1" d="M213.63,80.82c-1.12-1.31-2.49-2.31-4.1-2.99-1.61-.68-3.33-1.03-5.16-1.03-2.51,0-4.77.64-6.78,1.91-2.01,1.27-3.6,3.14-4.76,5.61-1.16,2.47-1.74,5.43-1.74,8.89s.58,6.42,1.74,8.89c1.16,2.47,2.75,4.34,4.76,5.61,2.01,1.27,4.27,1.91,6.78,1.91,1.82,0,3.53-.34,5.13-1.03s2.96-1.68,4.1-2.99,1.9-2.88,2.28-4.7h5.13c-.49,2.74-1.52,5.13-3.08,7.18-1.56,2.05-3.51,3.62-5.84,4.7-2.34,1.08-4.91,1.62-7.72,1.62-3.53,0-6.68-.86-9.43-2.59-2.75-1.73-4.91-4.2-6.47-7.41-1.56-3.21-2.34-6.94-2.34-11.2s.78-8.04,2.34-11.23,3.71-5.65,6.47-7.38c2.75-1.73,5.9-2.59,9.43-2.59,2.77,0,5.34.54,7.69,1.62s4.31,2.64,5.87,4.67c1.56,2.03,2.58,4.46,3.08,7.27h-5.13c-.38-1.86-1.13-3.45-2.25-4.76Z"/>
    </clipPath>
    <clipPath id="clippath-2">
      <path class="cls-1" d="M241.53,99.83l-3.25.23c-2.32.15-4.11.66-5.39,1.51-1.27.86-1.91,2.1-1.91,3.73,0,1.06.28,1.96.83,2.68.55.72,1.32,1.27,2.31,1.65.99.38,2.11.57,3.36.57,1.79,0,3.32-.35,4.62-1.05,1.29-.7,2.28-1.63,2.96-2.79.68-1.16,1.03-2.4,1.03-3.73v-9.63c0-1.33-.26-2.46-.77-3.39s-1.29-1.63-2.34-2.11-2.35-.71-3.9-.71c-1.86,0-3.39.38-4.59,1.14-1.2.76-1.99,1.77-2.37,3.02h-5.13c.23-1.67.88-3.14,1.97-4.42,1.08-1.27,2.52-2.26,4.3-2.96,1.79-.7,3.8-1.05,6.04-1.05,1.79,0,3.53.27,5.24.8,1.71.53,3.2,1.61,4.47,3.22,1.27,1.62,1.91,3.92,1.91,6.92v20.4h-4.84v-4.22h-.23c-.38.8-.96,1.57-1.74,2.31s-1.8,1.37-3.08,1.88c-1.27.51-2.75.77-4.42.77-1.98,0-3.76-.38-5.36-1.14-1.6-.76-2.86-1.86-3.79-3.3-.93-1.44-1.4-3.13-1.4-5.07,0-3.23,1.1-5.5,3.31-6.81,2.2-1.31,4.98-2.08,8.32-2.31.38-.04,2.2-.15,5.47-.34l3.25-.11.06,3.99c-.34,0-1.99.11-4.96.34Z"/>
    </clipPath>
    <clipPath id="clippath-3">
      <path class="cls-1" d="M258.79,82.9h4.73v4.73h.34c.57-1.6,1.59-2.87,3.05-3.82,1.46-.95,3.11-1.42,4.93-1.42.95,0,1.8.04,2.56.11v4.96c-.19-.08-.59-.15-1.2-.23-.61-.08-1.2-.11-1.77-.11-1.44,0-2.75.31-3.93.94-1.18.63-2.11,1.49-2.79,2.59-.68,1.1-1.03,2.34-1.03,3.7v19.49h-4.9v-30.95Z"/>
    </clipPath>
    <clipPath id="clippath-4">
      <path class="cls-1" d="M283.53,112.51c-2.18-1.31-3.87-3.16-5.04-5.56-1.18-2.39-1.77-5.17-1.77-8.32s.59-5.96,1.77-8.41c1.18-2.45,2.82-4.35,4.93-5.7,2.11-1.35,4.55-2.02,7.32-2.02,2.36,0,4.54.51,6.55,1.54,2.01,1.03,3.65,2.7,4.9,5.01,1.25,2.32,1.88,5.28,1.88,8.89v2.05h-23.94v-4.16h18.98c0-1.75-.34-3.3-1.03-4.64-.68-1.35-1.66-2.41-2.93-3.19-1.27-.78-2.75-1.17-4.42-1.17-1.82,0-3.42.45-4.79,1.34-1.37.89-2.43,2.09-3.19,3.59-.76,1.5-1.14,3.11-1.14,4.82v2.79c0,2.28.4,4.23,1.2,5.84.8,1.62,1.92,2.84,3.36,3.68s3.12,1.25,5.02,1.25c1.18,0,2.24-.16,3.19-.48s1.76-.74,2.42-1.25c.67-.51,1.19-1.11,1.57-1.8h5.24c-.49,1.56-1.31,2.93-2.45,4.1-1.14,1.18-2.56,2.1-4.27,2.76-1.71.66-3.61,1-5.7,1-2.93,0-5.48-.66-7.67-1.97Z"/>
    </clipPath>
    <clipPath id="clippath-5">
      <path class="cls-1" d="M315.78,112.51c-2.18-1.31-3.87-3.16-5.04-5.56-1.18-2.39-1.77-5.17-1.77-8.32s.59-5.96,1.77-8.41c1.18-2.45,2.82-4.35,4.93-5.7,2.11-1.35,4.55-2.02,7.32-2.02,2.36,0,4.54.51,6.55,1.54,2.01,1.03,3.65,2.7,4.9,5.01,1.25,2.32,1.88,5.28,1.88,8.89v2.05h-23.94v-4.16h18.98c0-1.75-.34-3.3-1.03-4.64-.68-1.35-1.66-2.41-2.93-3.19-1.27-.78-2.75-1.17-4.42-1.17-1.82,0-3.42.45-4.79,1.34-1.37.89-2.43,2.09-3.19,3.59-.76,1.5-1.14,3.11-1.14,4.82v2.79c0,2.28.4,4.23,1.2,5.84.8,1.62,1.92,2.84,3.36,3.68s3.12,1.25,5.02,1.25c1.18,0,2.24-.16,3.19-.48s1.76-.74,2.42-1.25c.67-.51,1.19-1.11,1.57-1.8h5.24c-.49,1.56-1.31,2.93-2.45,4.1-1.14,1.18-2.56,2.1-4.27,2.76-1.71.66-3.61,1-5.7,1-2.93,0-5.48-.66-7.67-1.97Z"/>
    </clipPath>
    <clipPath id="clippath-6">
      <path class="cls-1" d="M342.71,82.9h4.73v4.73h.34c.57-1.6,1.59-2.87,3.05-3.82,1.46-.95,3.11-1.42,4.93-1.42.95,0,1.8.04,2.56.11v4.96c-.19-.08-.59-.15-1.2-.23-.61-.08-1.2-.11-1.77-.11-1.44,0-2.75.31-3.93.94-1.18.63-2.11,1.49-2.79,2.59-.68,1.1-1.03,2.34-1.03,3.7v19.49h-4.9v-30.95Z"/>
    </clipPath>
    <linearGradient id="linear-gradient" x1="375.9" y1="92.85" x2="416.54" y2="92.85" gradientUnits="userSpaceOnUse">
      <stop offset="0" stop-color="#b1d9cc"/>
      <stop offset="1" stop-color="#bce2d5"/>
    </linearGradient>
    <linearGradient id="linear-gradient-2" x1="423.55" y1="98.18" x2="448.4" y2="98.18" gradientUnits="userSpaceOnUse">
      <stop offset="0" stop-color="#c0e4d7"/>
      <stop offset="1" stop-color="#c5e6da"/>
    </linearGradient>
    <linearGradient id="linear-gradient-3" x1="453.64" y1="94.5" x2="470.23" y2="94.5" gradientUnits="userSpaceOnUse">
      <stop offset="0" stop-color="#c8e7dd"/>
      <stop offset="1" stop-color="#cce9df"/>
    </linearGradient>
    <linearGradient id="linear-gradient-4" x1="474.3" y1="98.12" x2="501.66" y2="98.12" gradientUnits="userSpaceOnUse">
      <stop offset="0" stop-color="#ceeae1"/>
      <stop offset="1" stop-color="#d5ece5"/>
    </linearGradient>
  </defs>
  <g>
    <g>
      <g class="cls-116">
        <rect class="cls-78" x="70.39" y="25.79" width="1.28" height="85.46"/>
        <rect class="cls-78" x="71.67" y="25.79" width="1.28" height="85.46"/>
        <rect class="cls-89" x="72.94" y="25.79" width="1.28" height="85.46"/>
        <rect class="cls-89" x="74.22" y="25.79" width="1.28" height="85.46"/>
        <rect class="cls-70" x="75.5" y="25.79" width="1.28" height="85.46"/>
        <rect class="cls-81" x="76.78" y="25.79" width="1.28" height="85.46"/>
        <rect class="cls-58" x="78.06" y="25.79" width="1.28" height="85.46"/>
        <rect class="cls-108" x="79.33" y="25.79" width="1.28" height="85.46"/>
        <rect class="cls-43" x="80.61" y="25.79" width="1.28" height="85.46"/>
        <rect class="cls-43" x="81.89" y="25.79" width="1.28" height="85.46"/>
        <rect class="cls-3" x="83.17" y="25.79" width="1.28" height="85.46"/>
        <rect class="cls-118" x="84.45" y="25.79" width="1.28" height="85.46"/>
        <rect class="cls-118" x="85.73" y="25.79" width="1.28" height="85.46"/>
        <rect class="cls-84" x="87" y="25.79" width="1.28" height="85.46"/>
        <rect class="cls-83" x="88.28" y="25.79" width="1.28" height="85.46"/>
        <rect class="cls-77" x="89.56" y="25.79" width="1.28" height="85.46"/>
        <rect class="cls-11" x="90.84" y="25.79" width="1.28" height="85.46"/>
        <rect class="cls-42" x="92.12" y="25.79" width="1.28" height="85.46"/>
        <rect class="cls-42" x="93.39" y="25.79" width="1.28" height="85.46"/>
        <rect class="cls-74" x="94.67" y="25.79" width="1.28" height="85.46"/>
        <rect class="cls-106" x="95.95" y="25.79" width="1.28" height="85.46"/>
        <rect class="cls-106" x="97.23" y="25.79" width="1.28" height="85.46"/>
        <rect class="cls-45" x="98.51" y="25.79" width="1.28" height="85.46"/>
        <rect class="cls-14" x="99.78" y="25.79" width="1.28" height="85.46"/>
        <rect class="cls-85" x="101.06" y="25.79" width="1.28" height="85.46"/>
        <rect class="cls-85" x="102.34" y="25.79" width="1.28" height="85.46"/>
        <rect class="cls-36" x="103.62" y="25.79" width="1.28" height="85.46"/>
        <rect class="cls-23" x="104.9" y="25.79" width="1.28" height="85.46"/>
        <rect class="cls-121" x="106.17" y="25.79" width="1.28" height="85.46"/>
        <rect class="cls-66" x="107.45" y="25.79" width="1.28" height="85.46"/>
        <rect class="cls-64" x="108.73" y="25.79" width="1.28" height="85.46"/>
        <rect class="cls-105" x="110.01" y="25.79" width="1.28" height="85.46"/>
        <rect class="cls-76" x="111.29" y="25.79" width="1.28" height="85.46"/>
        <rect class="cls-72" x="112.57" y="25.79" width="1.28" height="85.46"/>
        <rect class="cls-88" x="113.84" y="25.79" width="1.28" height="85.46"/>
        <rect class="cls-39" x="115.12" y="25.79" width="1.28" height="85.46"/>
        <rect class="cls-39" x="116.4" y="25.79" width="1.28" height="85.46"/>
        <rect class="cls-6" x="117.68" y="25.79" width="1.28" height="85.46"/>
        <rect class="cls-26" x="118.96" y="25.79" width="1.28" height="85.46"/>
        <rect class="cls-117" x="120.23" y="25.79" width="1.28" height="85.46"/>
        <rect class="cls-117" x="121.51" y="25.79" width="1.28" height="85.46"/>
        <rect class="cls-4" x="122.79" y="25.79" width="1.28" height="85.46"/>
        <rect class="cls-113" x="124.07" y="25.79" width="1.28" height="85.46"/>
        <rect class="cls-31" x="125.35" y="25.79" width="1.28" height="85.46"/>
        <rect class="cls-63" x="126.62" y="25.79" width="1.28" height="85.46"/>
        <rect class="cls-33" x="127.9" y="25.79" width="1.28" height="85.46"/>
        <rect class="cls-40" x="129.18" y="25.79" width="1.28" height="85.46"/>
        <rect class="cls-95" x="130.46" y="25.79" width="1.28" height="85.46"/>
        <rect class="cls-115" x="131.74" y="25.79" width="1.28" height="85.46"/>
        <rect class="cls-87" x="133.01" y="25.79" width="1.28" height="85.46"/>
        <rect class="cls-47" x="134.29" y="25.79" width="1.28" height="85.46"/>
        <rect class="cls-2" x="135.57" y="25.79" width="1.28" height="85.46"/>
        <rect class="cls-97" x="136.85" y="25.79" width="1.28" height="85.46"/>
        <rect class="cls-27" x="138.13" y="25.79" width="1.28" height="85.46"/>
        <rect class="cls-5" x="139.41" y="25.79" width="1.28" height="85.46"/>
        <rect class="cls-67" x="140.68" y="25.79" width="1.28" height="85.46"/>
        <rect class="cls-122" x="141.96" y="25.79" width="1.28" height="85.46"/>
        <rect class="cls-48" x="143.24" y="25.79" width="1.28" height="85.46"/>
        <rect class="cls-22" x="144.52" y="25.79" width="1.28" height="85.46"/>
        <rect class="cls-30" x="145.8" y="25.79" width="1.28" height="85.46"/>
        <rect class="cls-65" x="147.07" y="25.79" width="1.28" height="85.46"/>
        <rect class="cls-120" x="148.35" y="25.79" width="1.28" height="85.46"/>
        <rect class="cls-80" x="149.63" y="25.79" width="1.28" height="85.46"/>
        <rect class="cls-24" x="150.91" y="25.79" width="1.28" height="85.46"/>
        <rect class="cls-28" x="152.19" y="25.79" width="1.28" height="85.46"/>
        <rect class="cls-100" x="153.46" y="25.79" width="1.28" height="85.46"/>
      </g>
      <circle class="cls-78" cx="86.87" cy="9.74" r="9.18"/>
      <circle class="cls-100" cx="137.12" cy="9.18" r="9.18"/>
      <path class="cls-51" d="M39.63,114.83C13.76,114.83,0,100.86,0,69.38S13.76,23.93,39.63,23.93c7.4,0,14.45,1.76,19.92,4.95,5.17,3,5.57,10.32.8,13.91h0c-2.85,2.15-6.76,2.28-9.7.25-2.98-2.06-6.84-3.21-11.02-3.21-12.77,0-19.09,8.07-19.09,29.54s6.33,29.43,19.09,29.43c4.51,0,8.54-1.16,11.57-3.45,2.77-2.09,6.53-2.3,9.36-.29l.54.38c4.22,3,4.37,9.23.29,12.42-5.8,4.54-13.44,6.95-21.75,6.95Z"/>
    </g>
    <path class="cls-61" d="M112.16,57.63c-.12,0-.24,0-.36,0-8.68-.3-14.43-11.24-14.67-11.7-.25-.49-.06-1.09.43-1.35.49-.26,1.09-.06,1.35.43.05.1,5.46,10.37,12.97,10.62,4.56.13,9.13-3.44,13.52-10.68.29-.47.9-.62,1.37-.34.47.29.62.9.34,1.37-4.69,7.73-9.72,11.65-14.95,11.65Z"/>
  </g>
  <g>
    <g class="cls-52">
      <rect class="cls-15" x="186.13" y="72.01" width=".17" height="42.4"/>
      <rect class="cls-17" x="186.3" y="72.01" width="3.13" height="42.4"/>
      <rect class="cls-75" x="189.43" y="72.01" width="3.13" height="42.4"/>
      <rect class="cls-41" x="192.57" y="72.01" width="3.13" height="42.4"/>
      <rect class="cls-98" x="195.7" y="72.01" width="3.13" height="42.4"/>
      <rect class="cls-82" x="198.83" y="72.01" width="3.13" height="42.4"/>
      <rect class="cls-123" x="201.97" y="72.01" width="3.13" height="42.4"/>
      <rect class="cls-112" x="205.1" y="72.01" width="3.13" height="42.4"/>
      <rect class="cls-102" x="208.23" y="72.01" width="3.13" height="42.4"/>
      <rect class="cls-99" x="211.37" y="72.01" width="3.13" height="42.4"/>
      <rect class="cls-71" x="214.5" y="72.01" width="3.13" height="42.4"/>
      <rect class="cls-13" x="217.63" y="72.01" width="3.13" height="42.4"/>
      <rect class="cls-38" x="220.77" y="72.01" width=".24" height="42.4"/>
    </g>
    <g class="cls-55">
      <rect class="cls-60" x="226.08" y="82.5" width=".95" height="32.09"/>
      <rect class="cls-59" x="227.03" y="82.5" width="3.13" height="32.09"/>
      <rect class="cls-29" x="230.17" y="82.5" width="3.13" height="32.09"/>
      <rect class="cls-35" x="233.3" y="82.5" width="3.13" height="32.09"/>
      <rect class="cls-46" x="236.43" y="82.5" width="3.13" height="32.09"/>
      <rect class="cls-16" x="239.57" y="82.5" width="3.13" height="32.09"/>
      <rect class="cls-50" x="242.7" y="82.5" width="3.13" height="32.09"/>
      <rect class="cls-62" x="245.84" y="82.5" width="3.13" height="32.09"/>
      <rect class="cls-34" x="248.97" y="82.5" width="1.96" height="32.09"/>
    </g>
    <g class="cls-53">
      <rect class="cls-25" x="258.79" y="82.39" width="2.71" height="31.46"/>
      <rect class="cls-119" x="261.5" y="82.39" width="3.13" height="31.46"/>
      <rect class="cls-109" x="264.64" y="82.39" width="3.13" height="31.46"/>
      <rect class="cls-49" x="267.77" y="82.39" width="3.13" height="31.46"/>
      <rect class="cls-90" x="270.9" y="82.39" width="3.13" height="31.46"/>
      <rect class="cls-111" x="274.04" y="82.39" width=".37" height="31.46"/>
    </g>
    <g class="cls-54">
      <rect class="cls-111" x="276.72" y="82.5" width=".45" height="31.97"/>
      <rect class="cls-79" x="277.17" y="82.5" width="3.13" height="31.97"/>
      <rect class="cls-7" x="280.3" y="82.5" width="3.13" height="31.97"/>
      <rect class="cls-18" x="283.44" y="82.5" width="3.13" height="31.97"/>
      <rect class="cls-103" x="286.57" y="82.5" width="3.13" height="31.97"/>
      <rect class="cls-12" x="289.71" y="82.5" width="3.13" height="31.97"/>
      <rect class="cls-110" x="292.84" y="82.5" width="3.13" height="31.97"/>
      <rect class="cls-96" x="295.97" y="82.5" width="3.13" height="31.97"/>
      <rect class="cls-86" x="299.11" y="82.5" width="3.13" height="31.97"/>
      <rect class="cls-9" x="302.24" y="82.5" width="1.83" height="31.97"/>
    </g>
    <g class="cls-57">
      <rect class="cls-92" x="308.97" y="82.5" width="2.67" height="31.97"/>
      <rect class="cls-8" x="311.64" y="82.5" width="3.13" height="31.97"/>
      <rect class="cls-37" x="314.77" y="82.5" width="3.13" height="31.97"/>
      <rect class="cls-69" x="317.91" y="82.5" width="3.13" height="31.97"/>
      <rect class="cls-44" x="321.04" y="82.5" width="3.13" height="31.97"/>
      <rect class="cls-94" x="324.17" y="82.5" width="3.13" height="31.97"/>
      <rect class="cls-107" x="327.31" y="82.5" width="3.13" height="31.97"/>
      <rect class="cls-73" x="330.44" y="82.5" width="3.13" height="31.97"/>
      <rect class="cls-68" x="333.57" y="82.5" width="2.76" height="31.97"/>
    </g>
    <g class="cls-56">
      <rect class="cls-93" x="342.71" y="82.39" width=".26" height="31.46"/>
      <rect class="cls-91" x="342.98" y="82.39" width="3.13" height="31.46"/>
      <rect class="cls-104" x="346.11" y="82.39" width="3.13" height="31.46"/>
      <rect class="cls-10" x="349.24" y="82.39" width="3.13" height="31.46"/>
      <rect class="cls-101" x="352.38" y="82.39" width="3.13" height="31.46"/>
      <rect class="cls-114" x="355.51" y="82.39" width="2.82" height="31.46"/>
    </g>
  </g>
  <g>
    <path class="cls-32" d="M382.06,72.22l13.91,33.97h.51l13.91-33.97h6.15v41.26h-4.84v-31.17h-.4l-12.82,31.17h-4.56l-12.82-31.17h-.34v31.17h-4.84v-41.26h6.16Z"/>
    <path class="cls-21" d="M438.99,99.46l-3.25.23c-2.32.15-4.11.66-5.39,1.51-1.27.86-1.91,2.1-1.91,3.73,0,1.06.28,1.96.83,2.68.55.72,1.32,1.27,2.31,1.65.99.38,2.11.57,3.36.57,1.79,0,3.32-.35,4.62-1.05,1.29-.7,2.28-1.63,2.96-2.79.68-1.16,1.03-2.4,1.03-3.73v-9.63c0-1.33-.26-2.46-.77-3.39s-1.29-1.63-2.34-2.11-2.35-.71-3.9-.71c-1.86,0-3.39.38-4.59,1.14-1.2.76-1.99,1.77-2.37,3.02h-5.13c.23-1.67.88-3.14,1.97-4.42,1.08-1.27,2.52-2.26,4.3-2.96,1.79-.7,3.8-1.05,6.04-1.05,1.79,0,3.53.27,5.24.8,1.71.53,3.2,1.61,4.47,3.22,1.27,1.62,1.91,3.92,1.91,6.92v20.4h-4.84v-4.22h-.23c-.38.8-.96,1.57-1.74,2.31s-1.8,1.37-3.08,1.88c-1.27.51-2.75.77-4.42.77-1.98,0-3.76-.38-5.36-1.14-1.6-.76-2.86-1.86-3.79-3.3-.93-1.44-1.4-3.13-1.4-5.07,0-3.23,1.1-5.5,3.31-6.81,2.2-1.31,4.98-2.08,8.32-2.31.38-.04,2.2-.15,5.47-.34l3.25-.11.06,3.99c-.34,0-1.99.11-4.96.34Z"/>
    <path class="cls-20" d="M469.77,86.64h-16.13v-4.1h16.13v4.1ZM463.27,75.13v29.46c0,1.25.18,2.21.54,2.88.36.67.83,1.12,1.42,1.37.59.25,1.28.37,2.08.37.95,0,1.92-.04,2.91-.11v4.56c-.99.15-2.13.23-3.42.23-1.44,0-2.81-.3-4.1-.91-1.29-.61-2.35-1.52-3.16-2.74-.82-1.21-1.23-2.68-1.23-4.39v-30.72h4.96Z"/>
    <path class="cls-19" d="M481.11,112.14c-2.18-1.31-3.87-3.16-5.04-5.56-1.18-2.39-1.77-5.17-1.77-8.32s.59-5.96,1.77-8.41c1.18-2.45,2.82-4.35,4.93-5.7,2.11-1.35,4.55-2.02,7.32-2.02,2.36,0,4.54.51,6.55,1.54,2.01,1.03,3.65,2.7,4.9,5.01,1.25,2.32,1.88,5.28,1.88,8.89v2.05h-23.94v-4.16h18.98c0-1.75-.34-3.3-1.03-4.64-.68-1.35-1.66-2.41-2.93-3.19-1.27-.78-2.75-1.17-4.42-1.17-1.82,0-3.42.45-4.79,1.34-1.37.89-2.43,2.09-3.19,3.59-.76,1.5-1.14,3.11-1.14,4.82v2.79c0,2.28.4,4.23,1.2,5.84.8,1.62,1.92,2.84,3.36,3.68s3.12,1.25,5.02,1.25c1.18,0,2.24-.16,3.19-.48s1.76-.74,2.42-1.25c.67-.51,1.19-1.11,1.57-1.8h5.24c-.49,1.56-1.31,2.93-2.45,4.1-1.14,1.18-2.56,2.1-4.27,2.76-1.71.66-3.61,1-5.7,1-2.93,0-5.48-.66-7.67-1.97Z"/>
  </g>
</svg>