<svg width="245" height="187" viewBox="0 0 245 187" fill="none" xmlns="http://www.w3.org/2000/svg">
<rect width="243.952" height="131.713" transform="translate(0.524414 28)" fill="white"/>
<mask id="mask0_834_6506" style="mask-type:luminance" maskUnits="userSpaceOnUse" x="115" y="64" width="81" height="81">
<path d="M126.291 64.147H143.089L147.256 71.9886C150.833 78.6818 160.413 78.6818 163.957 71.9886L168.123 64.147H184.43C190.401 64.147 195.257 69.0029 195.257 74.9743V136.132C195.257 140.726 191.517 144.466 186.924 144.466C182.33 144.466 178.59 140.726 178.59 136.132V89.181L170.256 99.8771C168.452 102.174 165.695 103.519 162.775 103.519H148.47C145.55 103.519 142.794 102.174 140.99 99.8771L132.656 89.181V136.132C132.656 140.726 128.915 144.466 124.322 144.466C119.729 144.466 115.988 140.726 115.988 136.132V74.4821C115.988 68.7732 120.614 64.147 126.323 64.147H126.291Z" fill="white"/>
</mask>
<g mask="url(#mask0_834_6506)">
<path d="M117.17 64.147H115.956V144.466H117.17V64.147Z" fill="#6EC6A8"/>
<path d="M118.351 64.147H117.137V144.466H118.351V64.147Z" fill="#6EC6A8"/>
<path d="M119.565 64.147H118.351V144.466H119.565V64.147Z" fill="#6FC6A8"/>
<path d="M120.778 64.147H119.564V144.466H120.778V64.147Z" fill="#6FC6A8"/>
<path d="M121.96 64.147H120.746V144.466H121.96V64.147Z" fill="#70C6A8"/>
<path d="M123.174 64.147H121.96V144.466H123.174V64.147Z" fill="#71C7A8"/>
<path d="M124.356 64.147H123.142V144.466H124.356V64.147Z" fill="#72C7A8"/>
<path d="M125.569 64.147H124.355V144.466H125.569V64.147Z" fill="#73C7AA"/>
<path d="M126.783 64.147H125.569V144.466H126.783V64.147Z" fill="#74C7AA"/>
<path d="M127.964 64.147H126.75V144.466H127.964V64.147Z" fill="#74C7AA"/>
<path d="M129.178 64.147H127.964V144.466H129.178V64.147Z" fill="#76C8AA"/>
<path d="M130.359 64.147H129.146V144.466H130.359V64.147Z" fill="#78C8AB"/>
<path d="M131.573 64.147H130.359V144.466H131.573V64.147Z" fill="#78C8AB"/>
<path d="M132.754 64.147H131.54V144.466H132.754V64.147Z" fill="#79C9AB"/>
<path d="M133.969 64.147H132.755V144.466H133.969V64.147Z" fill="#7AC9AB"/>
<path d="M135.183 64.147H133.969V144.466H135.183V64.147Z" fill="#7AC9AC"/>
<path d="M136.363 64.147H135.149V144.466H136.363V64.147Z" fill="#7BC9AC"/>
<path d="M137.577 64.147H136.363V144.466H137.577V64.147Z" fill="#7CCAAC"/>
<path d="M138.791 64.147H137.577V144.466H138.791V64.147Z" fill="#7CCAAC"/>
<path d="M139.973 64.147H138.759V144.466H139.973V64.147Z" fill="#7DCAAD"/>
<path d="M141.187 64.147H139.973V144.466H141.187V64.147Z" fill="#7ECAAD"/>
<path d="M142.368 64.147H141.154V144.466H142.368V64.147Z" fill="#7ECAAD"/>
<path d="M143.582 64.147H142.368V144.466H143.582V64.147Z" fill="#7FCBAD"/>
<path d="M144.796 64.147H143.582V144.466H144.796V64.147Z" fill="#80CBAF"/>
<path d="M145.977 64.147H144.763V144.466H145.977V64.147Z" fill="#81CBAF"/>
<path d="M147.191 64.147H145.977V144.466H147.191V64.147Z" fill="#81CBAF"/>
<path d="M148.372 64.147H147.158V144.466H148.372V64.147Z" fill="#83CCAF"/>
<path d="M149.586 64.147H148.372V144.466H149.586V64.147Z" fill="#83CCB0"/>
<path d="M150.8 64.147H149.586V144.466H150.8V64.147Z" fill="#85CCB0"/>
<path d="M151.982 64.147H150.768V144.466H151.982V64.147Z" fill="#86CDB0"/>
<path d="M153.195 64.147H151.981V144.466H153.195V64.147Z" fill="#87CDB0"/>
<path d="M154.376 64.147H153.162V144.466H154.376V64.147Z" fill="#88CDB1"/>
<path d="M155.59 64.147H154.376V144.466H155.59V64.147Z" fill="#89CEB1"/>
<path d="M156.804 64.147H155.59V144.466H156.804V64.147Z" fill="#8ACEB1"/>
<path d="M157.985 64.147H156.771V144.466H157.985V64.147Z" fill="#8BCEB1"/>
<path d="M159.199 64.147H157.985V144.466H159.199V64.147Z" fill="#8CCFB2"/>
<path d="M160.381 64.147H159.167V144.466H160.381V64.147Z" fill="#8CCFB2"/>
<path d="M161.595 64.147H160.381V144.466H161.595V64.147Z" fill="#8ECFB2"/>
<path d="M162.809 64.147H161.595V144.466H162.809V64.147Z" fill="#8FD0B2"/>
<path d="M163.989 64.147H162.775V144.466H163.989V64.147Z" fill="#90D0B4"/>
<path d="M165.203 64.147H163.989V144.466H165.203V64.147Z" fill="#90D0B4"/>
<path d="M166.385 64.147H165.171V144.466H166.385V64.147Z" fill="#91D0B4"/>
<path d="M167.599 64.147H166.385V144.466H167.599V64.147Z" fill="#92D1B4"/>
<path d="M168.813 64.147H167.599V144.466H168.813V64.147Z" fill="#93D1B5"/>
<path d="M169.994 64.147H168.78V144.466H169.994V64.147Z" fill="#94D1B5"/>
<path d="M171.208 64.147H169.994V144.466H171.208V64.147Z" fill="#95D2B5"/>
<path d="M172.422 64.147H171.208V144.466H172.422V64.147Z" fill="#96D2B5"/>
<path d="M173.603 64.147H172.389V144.466H173.603V64.147Z" fill="#96D2B6"/>
<path d="M174.817 64.147H173.603V144.466H174.817V64.147Z" fill="#97D3B6"/>
<path d="M175.998 64.147H174.784V144.466H175.998V64.147Z" fill="#98D3B6"/>
<path d="M177.212 64.147H175.998V144.466H177.212V64.147Z" fill="#99D3B6"/>
<path d="M178.394 64.147H177.18V144.466H178.394V64.147Z" fill="#9AD4B8"/>
<path d="M179.608 64.147H178.394V144.466H179.608V64.147Z" fill="#9CD3B7"/>
<path d="M180.821 64.147H179.607V144.466H180.821V64.147Z" fill="#9CD4B7"/>
<path d="M182.002 64.147H180.788V144.466H182.002V64.147Z" fill="#9ED5B7"/>
<path d="M183.216 64.147H182.002V144.466H183.216V64.147Z" fill="#9FD4B8"/>
<path d="M184.43 64.147H183.216V144.466H184.43V64.147Z" fill="#A0D4B8"/>
<path d="M185.611 64.147H184.397V144.466H185.611V64.147Z" fill="#A0D3B8"/>
<path d="M186.825 64.147H185.611V144.466H186.825V64.147Z" fill="#A1D3B8"/>
<path d="M188.007 64.147H186.793V144.466H188.007V64.147Z" fill="#A2D3B9"/>
<path d="M189.221 64.147H188.007V144.466H189.221V64.147Z" fill="#A3D3B9"/>
<path d="M190.435 64.147H189.221V144.466H190.435V64.147Z" fill="#A4D5B9"/>
<path d="M191.615 64.147H190.401V144.466H191.615V64.147Z" fill="#A5D4B9"/>
<path d="M192.829 64.147H191.615V144.466H192.829V64.147Z" fill="#A6D4BA"/>
<path d="M194.011 64.147H192.797V144.466H194.011V64.147Z" fill="#A7D4BA"/>
<path d="M195.225 64.147H194.011V144.466H195.225V64.147Z" fill="#A8D4BA"/>
</g>
<path d="M131.442 57.6834C136.207 57.6834 140.071 53.82 140.071 49.0543C140.071 44.2886 136.207 40.4253 131.442 40.4253C126.676 40.4253 122.812 44.2886 122.812 49.0543C122.812 53.82 126.676 57.6834 131.442 57.6834Z" fill="#6EC6A8"/>
<path d="M178.655 57.1585C183.421 57.1585 187.284 53.2951 187.284 48.5294C187.284 43.7637 183.421 39.9004 178.655 39.9004C173.89 39.9004 170.026 43.7637 170.026 48.5294C170.026 53.2951 173.89 57.1585 178.655 57.1585Z" fill="#A8D4BA"/>
<path d="M87.0499 147.813C62.7377 147.813 49.8105 134.689 49.8105 105.094C49.8105 75.4995 62.7377 62.3755 87.0499 62.3755C95.5977 62.3755 100.633 64.0488 105.784 67.0345C110.64 69.8562 111.034 76.7463 106.539 80.1257C103.849 82.1271 100.174 82.2584 97.4179 80.3554C94.629 78.4196 90.9871 77.3369 87.0499 77.3369C75.0414 77.3369 69.1028 84.916 69.1028 105.094C69.1028 125.272 75.0414 132.753 87.0499 132.753C95.5445 132.753 96.0886 130.888 97.91 129.505C100.502 127.536 104.046 127.339 106.703 129.242L107.195 129.603C111.165 132.425 111.297 138.265 107.458 141.284C102.011 145.549 94.8259 147.813 87.0171 147.813H87.0499Z" fill="#4DC0AC"/>
<path d="M155.196 94.0698C155.097 94.0698 154.966 94.0698 154.868 94.0698C146.698 93.7745 141.317 83.5049 141.087 83.0784C140.858 82.6191 141.022 82.0613 141.481 81.7988C141.94 81.5363 142.498 81.7332 142.761 82.1925C142.794 82.291 147.879 91.9371 154.933 92.1668C159.231 92.298 163.497 88.9186 167.631 82.1269C167.893 81.6676 168.484 81.5363 168.91 81.7988C169.37 82.0613 169.501 82.6519 169.238 83.0784C164.842 90.3622 160.117 94.037 155.196 94.037V94.0698Z" fill="white"/>
</svg>
