<svg width="274" height="204" viewBox="0 0 274 204" fill="none" xmlns="http://www.w3.org/2000/svg">
<mask id="mask0_834_2469" style="mask-type:luminance" maskUnits="userSpaceOnUse" x="124" y="46" width="150" height="152">
<path d="M144.131 46.0952H175.742L183.583 60.8509C190.312 73.4457 208.34 73.4457 215.008 60.8509L222.849 46.0952H253.533C264.77 46.0952 273.907 55.2326 273.907 66.4692V181.551C273.907 190.195 266.869 197.233 258.225 197.233C249.582 197.233 242.544 190.195 242.544 181.551V93.2023L226.862 113.329C223.466 117.651 218.28 120.182 212.785 120.182H185.867C180.372 120.182 175.186 117.651 171.79 113.329L156.109 93.2023V181.551C156.109 190.195 149.07 197.233 140.427 197.233C131.783 197.233 124.745 190.195 124.745 181.551V65.5431C124.745 54.8005 133.45 46.0952 144.193 46.0952H144.131Z" fill="white"/>
</mask>
<g mask="url(#mask0_834_2469)">
<path d="M126.968 46.0952H124.684V197.233H126.968V46.0952Z" fill="#6EC6A8"/>
<path d="M129.191 46.0952H126.906V197.233H129.191V46.0952Z" fill="#6EC6A8"/>
<path d="M131.475 46.0952H129.19V197.233H131.475V46.0952Z" fill="#6FC6A8"/>
<path d="M133.759 46.0952H131.475V197.233H133.759V46.0952Z" fill="#6FC6A8"/>
<path d="M135.982 46.0952H133.697V197.233H135.982V46.0952Z" fill="#70C6A8"/>
<path d="M138.266 46.0952H135.981V197.233H138.266V46.0952Z" fill="#71C7A8"/>
<path d="M140.488 46.0952H138.204V197.233H140.488V46.0952Z" fill="#72C7A8"/>
<path d="M142.774 46.0952H140.489V197.233H142.774V46.0952Z" fill="#73C7AA"/>
<path d="M145.058 46.0952H142.773V197.233H145.058V46.0952Z" fill="#74C7AA"/>
<path d="M147.28 46.0952H144.996V197.233H147.28V46.0952Z" fill="#74C7AA"/>
<path d="M149.565 46.0952H147.28V197.233H149.565V46.0952Z" fill="#76C8AA"/>
<path d="M151.787 46.0952H149.503V197.233H151.787V46.0952Z" fill="#78C8AB"/>
<path d="M154.071 46.0952H151.787V197.233H154.071V46.0952Z" fill="#78C8AB"/>
<path d="M156.294 46.0952H154.01V197.233H156.294V46.0952Z" fill="#79C9AB"/>
<path d="M158.578 46.0952H156.294V197.233H158.578V46.0952Z" fill="#7AC9AB"/>
<path d="M160.862 46.0952H158.578V197.233H160.862V46.0952Z" fill="#7AC9AC"/>
<path d="M163.085 46.0952H160.801V197.233H163.085V46.0952Z" fill="#7BC9AC"/>
<path d="M165.369 46.0952H163.085V197.233H165.369V46.0952Z" fill="#7CCAAC"/>
<path d="M167.654 46.0952H165.37V197.233H167.654V46.0952Z" fill="#7CCAAC"/>
<path d="M169.877 46.0952H167.593V197.233H169.877V46.0952Z" fill="#7DCAAD"/>
<path d="M172.161 46.0952H169.877V197.233H172.161V46.0952Z" fill="#7ECAAD"/>
<path d="M174.384 46.0952H172.1V197.233H174.384V46.0952Z" fill="#7ECAAD"/>
<path d="M176.668 46.0952H174.384V197.233H176.668V46.0952Z" fill="#7FCBAD"/>
<path d="M178.952 46.0952H176.668V197.233H178.952V46.0952Z" fill="#80CBAF"/>
<path d="M181.175 46.0952H178.891V197.233H181.175V46.0952Z" fill="#81CBAF"/>
<path d="M183.459 46.0952H181.175V197.233H183.459V46.0952Z" fill="#81CBAF"/>
<path d="M185.682 46.0952H183.397V197.233H185.682V46.0952Z" fill="#83CCAF"/>
<path d="M187.966 46.0952H185.682V197.233H187.966V46.0952Z" fill="#83CCB0"/>
<path d="M190.251 46.0952H187.967V197.233H190.251V46.0952Z" fill="#85CCB0"/>
<path d="M192.474 46.0952H190.189V197.233H192.474V46.0952Z" fill="#86CDB0"/>
<path d="M194.758 46.0952H192.474V197.233H194.758V46.0952Z" fill="#87CDB0"/>
<path d="M196.981 46.0952H194.696V197.233H196.981V46.0952Z" fill="#88CDB1"/>
<path d="M199.265 46.0952H196.98V197.233H199.265V46.0952Z" fill="#89CEB1"/>
<path d="M201.549 46.0952H199.265V197.233H201.549V46.0952Z" fill="#8ACEB1"/>
<path d="M203.772 46.0952H201.487V197.233H203.772V46.0952Z" fill="#8BCEB1"/>
<path d="M206.056 46.0952H203.771V197.233H206.056V46.0952Z" fill="#8CCFB2"/>
<path d="M208.278 46.0952H205.994V197.233H208.278V46.0952Z" fill="#8CCFB2"/>
<path d="M210.563 46.0952H208.278V197.233H210.563V46.0952Z" fill="#8ECFB2"/>
<path d="M212.847 46.0952H210.562V197.233H212.847V46.0952Z" fill="#8FD0B2"/>
<path d="M215.069 46.0952H212.785V197.233H215.069V46.0952Z" fill="#90D0B4"/>
<path d="M217.355 46.0952H215.07V197.233H217.355V46.0952Z" fill="#90D0B4"/>
<path d="M219.577 46.0952H217.293V197.233H219.577V46.0952Z" fill="#91D0B4"/>
<path d="M221.861 46.0952H219.577V197.233H221.861V46.0952Z" fill="#92D1B4"/>
<path d="M224.146 46.0952H221.861V197.233H224.146V46.0952Z" fill="#93D1B5"/>
<path d="M226.368 46.0952H224.084V197.233H226.368V46.0952Z" fill="#94D1B5"/>
<path d="M228.653 46.0952H226.368V197.233H228.653V46.0952Z" fill="#95D2B5"/>
<path d="M230.937 46.0952H228.652V197.233H230.937V46.0952Z" fill="#96D2B5"/>
<path d="M233.159 46.0952H230.875V197.233H233.159V46.0952Z" fill="#96D2B6"/>
<path d="M235.444 46.0952H233.159V197.233H235.444V46.0952Z" fill="#97D3B6"/>
<path d="M237.666 46.0952H235.382V197.233H237.666V46.0952Z" fill="#98D3B6"/>
<path d="M239.95 46.0952H237.666V197.233H239.95V46.0952Z" fill="#99D3B6"/>
<path d="M242.173 46.0952H239.889V197.233H242.173V46.0952Z" fill="#9AD4B8"/>
<path d="M244.458 46.0952H242.174V197.233H244.458V46.0952Z" fill="#9CD3B7"/>
<path d="M246.742 46.0952H244.458V197.233H246.742V46.0952Z" fill="#9CD4B7"/>
<path d="M248.965 46.0952H246.681V197.233H248.965V46.0952Z" fill="#9ED5B7"/>
<path d="M251.249 46.0952H248.965V197.233H251.249V46.0952Z" fill="#9FD4B8"/>
<path d="M253.533 46.0952H251.249V197.233H253.533V46.0952Z" fill="#A0D4B8"/>
<path d="M255.756 46.0952H253.472V197.233H255.756V46.0952Z" fill="#A0D3B8"/>
<path d="M258.04 46.0952H255.756V197.233H258.04V46.0952Z" fill="#A1D3B8"/>
<path d="M260.263 46.0952H257.979V197.233H260.263V46.0952Z" fill="#A2D3B9"/>
<path d="M262.547 46.0952H260.263V197.233H262.547V46.0952Z" fill="#A3D3B9"/>
<path d="M264.832 46.0952H262.548V197.233H264.832V46.0952Z" fill="#A4D5B9"/>
<path d="M267.054 46.0952H264.77V197.233H267.054V46.0952Z" fill="#A5D4B9"/>
<path d="M269.339 46.0952H267.055V197.233H269.339V46.0952Z" fill="#A6D4BA"/>
<path d="M271.562 46.0952H269.277V197.233H271.562V46.0952Z" fill="#A7D4BA"/>
<path d="M273.846 46.0952H271.562V197.233H273.846V46.0952Z" fill="#A8D4BA"/>
</g>
<path d="M153.824 33.9324C162.792 33.9324 170.062 26.6626 170.062 17.6949C170.062 8.72726 162.792 1.45752 153.824 1.45752C144.857 1.45752 137.587 8.72726 137.587 17.6949C137.587 26.6626 144.857 33.9324 153.824 33.9324Z" fill="#6EC6A8"/>
<path d="M242.667 32.9446C251.635 32.9446 258.905 25.6748 258.905 16.7072C258.905 7.73947 251.635 0.469727 242.667 0.469727C233.699 0.469727 226.43 7.73947 226.43 16.7072C226.43 25.6748 233.699 32.9446 242.667 32.9446Z" fill="#A8D4BA"/>
<path d="M70.2909 203.53C24.5421 203.53 0.216797 178.835 0.216797 123.146C0.216797 67.457 24.5421 42.7612 70.2909 42.7612C86.3755 42.7612 95.8509 45.9099 105.544 51.5282C114.681 56.8378 115.422 69.803 106.964 76.1622C101.901 79.9283 94.9866 80.1752 89.8005 76.5944C84.5527 72.9517 77.6996 70.9143 70.2909 70.9143C47.6943 70.9143 36.5195 85.1761 36.5195 123.146C36.5195 161.115 47.6943 175.192 70.2909 175.192C86.2753 175.192 87.2992 171.683 90.7266 169.08C95.604 165.375 102.272 165.005 107.273 168.586L108.199 169.265C115.669 174.575 115.916 185.564 108.693 191.244C98.444 199.27 84.9231 203.53 70.2291 203.53H70.2909Z" fill="#4DC0AC"/>
</svg>
