<?xml version="1.0" encoding="UTF-8"?><svg id="Layer_1" xmlns="http://www.w3.org/2000/svg" xmlns:xlink="http://www.w3.org/1999/xlink" viewBox="0 0 203.729 151.185"><defs><style>.cls-1{fill:none;}.cls-2{fill:#9ad4b8;}.cls-3{fill:#76c8aa;}.cls-4{fill:#91d0b4;}.cls-5{fill:#9ed5b7;}.cls-6{fill:#8ecfb2;}.cls-7{fill:#7bc9ac;}.cls-8{fill:#80cbaf;}.cls-9{fill:#a1d3b8;}.cls-10{fill:#83ccb0;}.cls-11{fill:#a6d4ba;}.cls-12{fill:#8fd0b2;}.cls-13{fill:#9cd4b7;}.cls-14{fill:#a7d4ba;}.cls-15{fill:#a2d3b9;}.cls-16{fill:#93d1b5;}.cls-17{fill:#95d2b5;}.cls-18{fill:#83ccaf;}.cls-19{fill:#8ccfb2;}.cls-20{fill:#96d2b5;}.cls-21{fill:#7ccaac;}.cls-22{fill:#74c7aa;}.cls-23{fill:#7fcbad;}.cls-24{fill:#99d3b6;}.cls-25{fill:#a0d3b8;}.cls-26{fill:#4dc0ac;}.cls-27{fill:#72c7a8;}.cls-28{fill:#fff;}.cls-29{fill:#94d1b5;}.cls-30{fill:#87cdb0;}.cls-31{fill:#a3d3b9;}.cls-32{fill:#86cdb0;}.cls-33{fill:#9fd4b8;}.cls-34{fill:#70c6a8;}.cls-35{fill:#8aceb1;}.cls-36{fill:#7dcaad;}.cls-37{fill:#89ceb1;}.cls-38{fill:#7ac9ac;}.cls-39{fill:#6ec6a8;}.cls-40{fill:#a5d4b9;}.cls-41{fill:#71c7a8;}.cls-42{fill:#7ac9ab;}.cls-43{fill:#79c9ab;}.cls-44{fill:#81cbaf;}.cls-45{fill:#98d3b6;}.cls-46{fill:#8bceb1;}.cls-47{fill:#6fc6a8;}.cls-48{fill:#96d2b6;}.cls-49{fill:#9cd3b7;}.cls-50{fill:#a8d4ba;}.cls-51{fill:#88cdb1;}.cls-52{fill:#7ecaad;}.cls-53{fill:#73c7aa;}.cls-54{fill:#92d1b4;}.cls-55{fill:#97d3b6;}.cls-56{clip-path:url(#clippath);}.cls-57{fill:#90d0b4;}.cls-58{fill:#78c8ab;}.cls-59{fill:#a4d5b9;}.cls-60{fill:#85ccb0;}.cls-61{fill:#a0d4b8;}</style><clipPath id="clippath"><path class="cls-1" d="M107.148,33.949h23.517l5.834,10.967c4.986,9.372,18.417,9.372,23.403,0l5.834-10.967h22.84c8.369,0,15.154,6.784,15.154,15.154v85.675c0,6.456-5.234,11.69-11.69,11.69h0c-6.456,0-11.69-5.234-11.69-11.69v-65.759l-11.656,14.987c-2.511,3.229-6.372,5.117-10.462,5.117h-20.06c-4.09,0-7.951-1.888-10.462-5.117l-11.656-14.987v65.759c0,6.456-5.234,11.69-11.69,11.69h0c-6.456,0-11.69-5.234-11.69-11.69V48.425c0-7.995,6.481-14.476,14.476-14.476Z"/></clipPath></defs><g class="cls-56"><rect class="cls-39" x="92.671" y="33.949" width="1.683" height="112.519"/><rect class="cls-39" x="94.354" y="33.949" width="1.683" height="112.519"/><rect class="cls-47" x="96.037" y="33.949" width="1.683" height="112.519"/><rect class="cls-47" x="97.719" y="33.949" width="1.683" height="112.519"/><rect class="cls-34" x="99.402" y="33.949" width="1.683" height="112.519"/><rect class="cls-41" x="101.085" y="33.949" width="1.683" height="112.519"/><rect class="cls-27" x="102.767" y="33.949" width="1.683" height="112.519"/><rect class="cls-53" x="104.45" y="33.949" width="1.683" height="112.519"/><rect class="cls-22" x="106.133" y="33.949" width="1.683" height="112.519"/><rect class="cls-22" x="107.816" y="33.949" width="1.683" height="112.519"/><rect class="cls-3" x="109.498" y="33.949" width="1.683" height="112.519"/><rect class="cls-58" x="111.181" y="33.949" width="1.683" height="112.519"/><rect class="cls-58" x="112.864" y="33.949" width="1.683" height="112.519"/><rect class="cls-43" x="114.546" y="33.949" width="1.683" height="112.519"/><rect class="cls-42" x="116.229" y="33.949" width="1.683" height="112.519"/><rect class="cls-38" x="117.912" y="33.949" width="1.683" height="112.519"/><rect class="cls-7" x="119.594" y="33.949" width="1.683" height="112.519"/><rect class="cls-21" x="121.277" y="33.949" width="1.683" height="112.519"/><rect class="cls-21" x="122.96" y="33.949" width="1.683" height="112.519"/><rect class="cls-36" x="124.643" y="33.949" width="1.683" height="112.519"/><rect class="cls-52" x="126.325" y="33.949" width="1.683" height="112.519"/><rect class="cls-52" x="128.008" y="33.949" width="1.683" height="112.519"/><rect class="cls-23" x="129.691" y="33.949" width="1.683" height="112.519"/><rect class="cls-8" x="131.373" y="33.949" width="1.683" height="112.519"/><rect class="cls-44" x="133.056" y="33.949" width="1.683" height="112.519"/><rect class="cls-44" x="134.739" y="33.949" width="1.683" height="112.519"/><rect class="cls-18" x="136.421" y="33.949" width="1.683" height="112.519"/><rect class="cls-10" x="138.104" y="33.949" width="1.683" height="112.519"/><rect class="cls-60" x="139.787" y="33.949" width="1.683" height="112.519"/><rect class="cls-32" x="141.47" y="33.949" width="1.683" height="112.519"/><rect class="cls-30" x="143.152" y="33.949" width="1.683" height="112.519"/><rect class="cls-51" x="144.835" y="33.949" width="1.683" height="112.519"/><rect class="cls-37" x="146.518" y="33.949" width="1.683" height="112.519"/><rect class="cls-35" x="148.2" y="33.949" width="1.683" height="112.519"/><rect class="cls-46" x="149.883" y="33.949" width="1.683" height="112.519"/><rect class="cls-19" x="151.566" y="33.949" width="1.683" height="112.519"/><rect class="cls-19" x="153.248" y="33.949" width="1.683" height="112.519"/><rect class="cls-6" x="154.931" y="33.949" width="1.683" height="112.519"/><rect class="cls-12" x="156.614" y="33.949" width="1.683" height="112.519"/><rect class="cls-57" x="158.297" y="33.949" width="1.683" height="112.519"/><rect class="cls-57" x="159.979" y="33.949" width="1.683" height="112.519"/><rect class="cls-4" x="161.662" y="33.949" width="1.683" height="112.519"/><rect class="cls-54" x="163.345" y="33.949" width="1.683" height="112.519"/><rect class="cls-16" x="165.027" y="33.949" width="1.683" height="112.519"/><rect class="cls-29" x="166.71" y="33.949" width="1.683" height="112.519"/><rect class="cls-17" x="168.393" y="33.949" width="1.683" height="112.519"/><rect class="cls-20" x="170.075" y="33.949" width="1.683" height="112.519"/><rect class="cls-48" x="171.758" y="33.949" width="1.683" height="112.519"/><rect class="cls-55" x="173.441" y="33.949" width="1.683" height="112.519"/><rect class="cls-45" x="175.124" y="33.949" width="1.683" height="112.519"/><rect class="cls-24" x="176.806" y="33.949" width="1.683" height="112.519"/><rect class="cls-2" x="178.489" y="33.949" width="1.683" height="112.519"/><rect class="cls-49" x="180.172" y="33.949" width="1.683" height="112.519"/><rect class="cls-13" x="181.854" y="33.949" width="1.683" height="112.519"/><rect class="cls-5" x="183.537" y="33.949" width="1.683" height="112.519"/><rect class="cls-33" x="185.22" y="33.949" width="1.683" height="112.519"/><rect class="cls-61" x="186.902" y="33.949" width="1.683" height="112.519"/><rect class="cls-25" x="188.585" y="33.949" width="1.683" height="112.519"/><rect class="cls-9" x="190.268" y="33.949" width="1.683" height="112.519"/><rect class="cls-15" x="191.951" y="33.949" width="1.683" height="112.519"/><rect class="cls-31" x="193.633" y="33.949" width="1.683" height="112.519"/><rect class="cls-59" x="195.316" y="33.949" width="1.683" height="112.519"/><rect class="cls-40" x="196.999" y="33.949" width="1.683" height="112.519"/><rect class="cls-11" x="198.681" y="33.949" width="1.683" height="112.519"/><rect class="cls-14" x="200.364" y="33.949" width="1.683" height="112.519"/><rect class="cls-50" x="202.047" y="33.949" width="1.683" height="112.519"/></g><circle class="cls-39" cx="114.365" cy="12.825" r="12.081"/><circle class="cls-50" cx="180.535" cy="12.081" r="12.081"/><path class="cls-26" d="M52.176,151.185C18.123,151.185,0,132.785,0,91.346,0,51.404,18.123,31.509,52.176,31.509c9.747,0,19.02,2.322,26.232,6.512,6.803,3.952,7.337,13.587,1.052,18.319h0c-3.751,2.824-8.906,3.001-12.772.335-3.923-2.706-9.001-4.223-14.512-4.223-16.808,0-25.138,10.621-25.138,38.894s8.331,38.745,25.138,38.745c5.944,0,11.238-1.529,15.232-4.543,3.651-2.754,8.594-3.027,12.321-.376l.709.504c5.558,3.953,5.752,12.151.38,16.353-7.636,5.974-17.69,9.156-28.642,9.156Z"/><path class="cls-28" d="M147.668,75.87c-.157,0-.315-.003-.472-.008-11.425-.391-18.999-14.796-19.317-15.409-.333-.645-.081-1.439.564-1.773.649-.337,1.44-.081,1.774.563.071.136,7.191,13.656,17.074,13.987,6.003.168,12.02-4.531,17.806-14.064.375-.622,1.185-.82,1.808-.442.622.377.82,1.187.442,1.808-6.177,10.182-12.795,15.339-19.68,15.339Z"/></svg>