<svg width="350" height="350" viewBox="0 0 350 350" fill="none" xmlns="http://www.w3.org/2000/svg">
<mask id="mask0_834_2468" style="mask-type:luminance" maskUnits="userSpaceOnUse" x="162" y="119" width="150" height="152">
<path d="M182.131 119.095H213.742L221.583 133.851C228.312 146.446 246.34 146.446 253.008 133.851L260.849 119.095H291.533C302.77 119.095 311.907 128.233 311.907 139.469V254.551C311.907 263.195 304.869 270.233 296.225 270.233C287.582 270.233 280.544 263.195 280.544 254.551V166.202L264.862 186.329C261.466 190.651 256.28 193.182 250.785 193.182H223.867C218.372 193.182 213.186 190.651 209.79 186.329L194.109 166.202V254.551C194.109 263.195 187.07 270.233 178.427 270.233C169.783 270.233 162.745 263.195 162.745 254.551V138.543C162.745 127.8 171.45 119.095 182.193 119.095H182.131Z" fill="white"/>
</mask>
<g mask="url(#mask0_834_2468)">
<path d="M164.968 119.095H162.684V270.233H164.968V119.095Z" fill="#6EC6A8"/>
<path d="M167.191 119.095H164.906V270.233H167.191V119.095Z" fill="#6EC6A8"/>
<path d="M169.475 119.095H167.19V270.233H169.475V119.095Z" fill="#6FC6A8"/>
<path d="M171.759 119.095H169.475V270.233H171.759V119.095Z" fill="#6FC6A8"/>
<path d="M173.982 119.095H171.697V270.233H173.982V119.095Z" fill="#70C6A8"/>
<path d="M176.266 119.095H173.981V270.233H176.266V119.095Z" fill="#71C7A8"/>
<path d="M178.488 119.095H176.204V270.233H178.488V119.095Z" fill="#72C7A8"/>
<path d="M180.774 119.095H178.489V270.233H180.774V119.095Z" fill="#73C7AA"/>
<path d="M183.058 119.095H180.773V270.233H183.058V119.095Z" fill="#74C7AA"/>
<path d="M185.28 119.095H182.996V270.233H185.28V119.095Z" fill="#74C7AA"/>
<path d="M187.565 119.095H185.28V270.233H187.565V119.095Z" fill="#76C8AA"/>
<path d="M189.787 119.095H187.503V270.233H189.787V119.095Z" fill="#78C8AB"/>
<path d="M192.071 119.095H189.787V270.233H192.071V119.095Z" fill="#78C8AB"/>
<path d="M194.294 119.095H192.01V270.233H194.294V119.095Z" fill="#79C9AB"/>
<path d="M196.578 119.095H194.294V270.233H196.578V119.095Z" fill="#7AC9AB"/>
<path d="M198.862 119.095H196.578V270.233H198.862V119.095Z" fill="#7AC9AC"/>
<path d="M201.085 119.095H198.801V270.233H201.085V119.095Z" fill="#7BC9AC"/>
<path d="M203.369 119.095H201.085V270.233H203.369V119.095Z" fill="#7CCAAC"/>
<path d="M205.654 119.095H203.37V270.233H205.654V119.095Z" fill="#7CCAAC"/>
<path d="M207.877 119.095H205.593V270.233H207.877V119.095Z" fill="#7DCAAD"/>
<path d="M210.161 119.095H207.877V270.233H210.161V119.095Z" fill="#7ECAAD"/>
<path d="M212.384 119.095H210.1V270.233H212.384V119.095Z" fill="#7ECAAD"/>
<path d="M214.668 119.095H212.384V270.233H214.668V119.095Z" fill="#7FCBAD"/>
<path d="M216.952 119.095H214.668V270.233H216.952V119.095Z" fill="#80CBAF"/>
<path d="M219.175 119.095H216.891V270.233H219.175V119.095Z" fill="#81CBAF"/>
<path d="M221.459 119.095H219.175V270.233H221.459V119.095Z" fill="#81CBAF"/>
<path d="M223.682 119.095H221.397V270.233H223.682V119.095Z" fill="#83CCAF"/>
<path d="M225.966 119.095H223.682V270.233H225.966V119.095Z" fill="#83CCB0"/>
<path d="M228.251 119.095H225.967V270.233H228.251V119.095Z" fill="#85CCB0"/>
<path d="M230.474 119.095H228.189V270.233H230.474V119.095Z" fill="#86CDB0"/>
<path d="M232.758 119.095H230.474V270.233H232.758V119.095Z" fill="#87CDB0"/>
<path d="M234.981 119.095H232.696V270.233H234.981V119.095Z" fill="#88CDB1"/>
<path d="M237.265 119.095H234.98V270.233H237.265V119.095Z" fill="#89CEB1"/>
<path d="M239.549 119.095H237.265V270.233H239.549V119.095Z" fill="#8ACEB1"/>
<path d="M241.772 119.095H239.487V270.233H241.772V119.095Z" fill="#8BCEB1"/>
<path d="M244.056 119.095H241.771V270.233H244.056V119.095Z" fill="#8CCFB2"/>
<path d="M246.278 119.095H243.994V270.233H246.278V119.095Z" fill="#8CCFB2"/>
<path d="M248.563 119.095H246.278V270.233H248.563V119.095Z" fill="#8ECFB2"/>
<path d="M250.847 119.095H248.562V270.233H250.847V119.095Z" fill="#8FD0B2"/>
<path d="M253.069 119.095H250.785V270.233H253.069V119.095Z" fill="#90D0B4"/>
<path d="M255.355 119.095H253.07V270.233H255.355V119.095Z" fill="#90D0B4"/>
<path d="M257.577 119.095H255.293V270.233H257.577V119.095Z" fill="#91D0B4"/>
<path d="M259.861 119.095H257.577V270.233H259.861V119.095Z" fill="#92D1B4"/>
<path d="M262.146 119.095H259.861V270.233H262.146V119.095Z" fill="#93D1B5"/>
<path d="M264.368 119.095H262.084V270.233H264.368V119.095Z" fill="#94D1B5"/>
<path d="M266.653 119.095H264.368V270.233H266.653V119.095Z" fill="#95D2B5"/>
<path d="M268.937 119.095H266.652V270.233H268.937V119.095Z" fill="#96D2B5"/>
<path d="M271.159 119.095H268.875V270.233H271.159V119.095Z" fill="#96D2B6"/>
<path d="M273.444 119.095H271.159V270.233H273.444V119.095Z" fill="#97D3B6"/>
<path d="M275.666 119.095H273.382V270.233H275.666V119.095Z" fill="#98D3B6"/>
<path d="M277.95 119.095H275.666V270.233H277.95V119.095Z" fill="#99D3B6"/>
<path d="M280.173 119.095H277.889V270.233H280.173V119.095Z" fill="#9AD4B8"/>
<path d="M282.458 119.095H280.174V270.233H282.458V119.095Z" fill="#9CD3B7"/>
<path d="M284.742 119.095H282.458V270.233H284.742V119.095Z" fill="#9CD4B7"/>
<path d="M286.965 119.095H284.681V270.233H286.965V119.095Z" fill="#9ED5B7"/>
<path d="M289.249 119.095H286.965V270.233H289.249V119.095Z" fill="#9FD4B8"/>
<path d="M291.533 119.095H289.249V270.233H291.533V119.095Z" fill="#A0D4B8"/>
<path d="M293.756 119.095H291.472V270.233H293.756V119.095Z" fill="#A0D3B8"/>
<path d="M296.04 119.095H293.756V270.233H296.04V119.095Z" fill="#A1D3B8"/>
<path d="M298.263 119.095H295.979V270.233H298.263V119.095Z" fill="#A2D3B9"/>
<path d="M300.547 119.095H298.263V270.233H300.547V119.095Z" fill="#A3D3B9"/>
<path d="M302.832 119.095H300.548V270.233H302.832V119.095Z" fill="#A4D5B9"/>
<path d="M305.054 119.095H302.77V270.233H305.054V119.095Z" fill="#A5D4B9"/>
<path d="M307.339 119.095H305.055V270.233H307.339V119.095Z" fill="#A6D4BA"/>
<path d="M309.562 119.095H307.277V270.233H309.562V119.095Z" fill="#A7D4BA"/>
<path d="M311.846 119.095H309.562V270.233H311.846V119.095Z" fill="#A8D4BA"/>
</g>
<path d="M191.824 106.932C200.792 106.932 208.062 99.6626 208.062 90.6949C208.062 81.7273 200.792 74.4575 191.824 74.4575C182.857 74.4575 175.587 81.7273 175.587 90.6949C175.587 99.6626 182.857 106.932 191.824 106.932Z" fill="#6EC6A8"/>
<path d="M280.667 105.945C289.635 105.945 296.905 98.6748 296.905 89.7072C296.905 80.7395 289.635 73.4697 280.667 73.4697C271.699 73.4697 264.43 80.7395 264.43 89.7072C264.43 98.6748 271.699 105.945 280.667 105.945Z" fill="#A8D4BA"/>
<path d="M108.291 276.53C62.5421 276.53 38.2168 251.835 38.2168 196.146C38.2168 140.457 62.5421 115.761 108.291 115.761C124.375 115.761 133.851 118.91 143.544 124.528C152.681 129.838 153.422 142.803 144.964 149.162C139.901 152.928 132.987 153.175 127.8 149.594C122.553 145.952 115.7 143.914 108.291 143.914C85.6943 143.914 74.5195 158.176 74.5195 196.146C74.5195 234.115 85.6943 248.192 108.291 248.192C124.275 248.192 125.299 244.683 128.727 242.08C133.604 238.375 140.272 238.005 145.273 241.586L146.199 242.265C153.669 247.575 153.916 258.564 146.693 264.244C136.444 272.27 122.923 276.53 108.229 276.53H108.291Z" fill="#4DC0AC"/>
<path d="M236.523 175.401C236.338 175.401 236.091 175.401 235.906 175.401C220.533 174.846 210.407 155.521 209.975 154.719C209.543 153.854 209.852 152.805 210.716 152.311C211.58 151.817 212.63 152.187 213.124 153.052C213.186 153.237 222.755 171.388 236.029 171.82C244.117 172.067 252.143 165.708 259.922 152.928C260.416 152.064 261.527 151.817 262.33 152.311C263.194 152.805 263.441 153.916 262.947 154.719C254.674 168.425 245.784 175.34 236.523 175.34V175.401Z" fill="white"/>
</svg>
