<svg width="188" height="186" viewBox="0 0 188 186" fill="none" xmlns="http://www.w3.org/2000/svg">
<rect width="188" height="132" transform="translate(0 27)" fill="white"/>
<mask id="mask0_834_3426" style="mask-type:luminance" maskUnits="userSpaceOnUse" x="87" y="63" width="80" height="81">
<path d="M97.7895 63.2905H114.588L118.755 71.1321C122.331 77.8254 131.912 77.8254 135.455 71.1321L139.622 63.2905H155.929C161.9 63.2905 166.756 68.1464 166.756 74.1178V135.276C166.756 139.869 163.016 143.609 158.422 143.609C153.829 143.609 150.089 139.869 150.089 135.276V88.3246L141.755 99.0206C139.95 101.317 137.194 102.663 134.274 102.663H119.969C117.049 102.663 114.293 101.317 112.488 99.0206L104.155 88.3246V135.276C104.155 139.869 100.414 143.609 95.8209 143.609C91.2275 143.609 87.4872 139.869 87.4872 135.276V73.6257C87.4872 67.9167 92.1134 63.2905 97.8223 63.2905H97.7895Z" fill="white"/>
</mask>
<g mask="url(#mask0_834_3426)">
<path d="M88.6686 63.2905H87.4547V143.609H88.6686V63.2905Z" fill="#6EC6A8"/>
<path d="M89.8495 63.2905H88.6355V143.609H89.8495V63.2905Z" fill="#6EC6A8"/>
<path d="M91.0635 63.2905H89.8495V143.609H91.0635V63.2905Z" fill="#6FC6A8"/>
<path d="M92.2775 63.2905H91.0635V143.609H92.2775V63.2905Z" fill="#6FC6A8"/>
<path d="M93.4586 63.2905H92.2446V143.609H93.4586V63.2905Z" fill="#70C6A8"/>
<path d="M94.6725 63.2905H93.4586V143.609H94.6725V63.2905Z" fill="#71C7A8"/>
<path d="M95.8537 63.2905H94.6398V143.609H95.8537V63.2905Z" fill="#72C7A8"/>
<path d="M97.0677 63.2905H95.8537V143.609H97.0677V63.2905Z" fill="#73C7AA"/>
<path d="M98.2817 63.2905H97.0677V143.609H98.2817V63.2905Z" fill="#74C7AA"/>
<path d="M99.4628 63.2905H98.2488V143.609H99.4628V63.2905Z" fill="#74C7AA"/>
<path d="M100.677 63.2905H99.4628V143.609H100.677V63.2905Z" fill="#76C8AA"/>
<path d="M101.858 63.2905H100.644V143.609H101.858V63.2905Z" fill="#78C8AB"/>
<path d="M103.072 63.2905H101.858V143.609H103.072V63.2905Z" fill="#78C8AB"/>
<path d="M104.253 63.2905H103.039V143.609H104.253V63.2905Z" fill="#79C9AB"/>
<path d="M105.467 63.2905H104.253V143.609H105.467V63.2905Z" fill="#7AC9AB"/>
<path d="M106.681 63.2905H105.467V143.609H106.681V63.2905Z" fill="#7AC9AC"/>
<path d="M107.862 63.2905H106.648V143.609H107.862V63.2905Z" fill="#7BC9AC"/>
<path d="M109.076 63.2905H107.862V143.609H109.076V63.2905Z" fill="#7CCAAC"/>
<path d="M110.29 63.2905H109.076V143.609H110.29V63.2905Z" fill="#7CCAAC"/>
<path d="M111.471 63.2905H110.257V143.609H111.471V63.2905Z" fill="#7DCAAD"/>
<path d="M112.685 63.2905H111.471V143.609H112.685V63.2905Z" fill="#7ECAAD"/>
<path d="M113.866 63.2905H112.652V143.609H113.866V63.2905Z" fill="#7ECAAD"/>
<path d="M115.08 63.2905H113.866V143.609H115.08V63.2905Z" fill="#7FCBAD"/>
<path d="M116.294 63.2905H115.08V143.609H116.294V63.2905Z" fill="#80CBAF"/>
<path d="M117.476 63.2905H116.262V143.609H117.476V63.2905Z" fill="#81CBAF"/>
<path d="M118.689 63.2905H117.476V143.609H118.689V63.2905Z" fill="#81CBAF"/>
<path d="M119.871 63.2905H118.657V143.609H119.871V63.2905Z" fill="#83CCAF"/>
<path d="M121.085 63.2905H119.871V143.609H121.085V63.2905Z" fill="#83CCB0"/>
<path d="M122.299 63.2905H121.085V143.609H122.299V63.2905Z" fill="#85CCB0"/>
<path d="M123.48 63.2905H122.266V143.609H123.48V63.2905Z" fill="#86CDB0"/>
<path d="M124.694 63.2905H123.48V143.609H124.694V63.2905Z" fill="#87CDB0"/>
<path d="M125.875 63.2905H124.661V143.609H125.875V63.2905Z" fill="#88CDB1"/>
<path d="M127.089 63.2905H125.875V143.609H127.089V63.2905Z" fill="#89CEB1"/>
<path d="M128.303 63.2905H127.089V143.609H128.303V63.2905Z" fill="#8ACEB1"/>
<path d="M129.484 63.2905H128.27V143.609H129.484V63.2905Z" fill="#8BCEB1"/>
<path d="M130.698 63.2905H129.484V143.609H130.698V63.2905Z" fill="#8CCFB2"/>
<path d="M131.879 63.2905H130.665V143.609H131.879V63.2905Z" fill="#8CCFB2"/>
<path d="M133.093 63.2905H131.879V143.609H133.093V63.2905Z" fill="#8ECFB2"/>
<path d="M134.307 63.2905H133.093V143.609H134.307V63.2905Z" fill="#8FD0B2"/>
<path d="M135.488 63.2905H134.274V143.609H135.488V63.2905Z" fill="#90D0B4"/>
<path d="M136.702 63.2905H135.488V143.609H136.702V63.2905Z" fill="#90D0B4"/>
<path d="M137.883 63.2905H136.669V143.609H137.883V63.2905Z" fill="#91D0B4"/>
<path d="M139.097 63.2905H137.883V143.609H139.097V63.2905Z" fill="#92D1B4"/>
<path d="M140.311 63.2905H139.097V143.609H140.311V63.2905Z" fill="#93D1B5"/>
<path d="M141.492 63.2905H140.279V143.609H141.492V63.2905Z" fill="#94D1B5"/>
<path d="M142.706 63.2905H141.492V143.609H142.706V63.2905Z" fill="#95D2B5"/>
<path d="M143.92 63.2905H142.706V143.609H143.92V63.2905Z" fill="#96D2B5"/>
<path d="M145.102 63.2905H143.888V143.609H145.102V63.2905Z" fill="#96D2B6"/>
<path d="M146.316 63.2905H145.102V143.609H146.316V63.2905Z" fill="#97D3B6"/>
<path d="M147.497 63.2905H146.283V143.609H147.497V63.2905Z" fill="#98D3B6"/>
<path d="M148.711 63.2905H147.497V143.609H148.711V63.2905Z" fill="#99D3B6"/>
<path d="M149.892 63.2905H148.678V143.609H149.892V63.2905Z" fill="#9AD4B8"/>
<path d="M151.106 63.2905H149.892V143.609H151.106V63.2905Z" fill="#9CD3B7"/>
<path d="M152.32 63.2905H151.106V143.609H152.32V63.2905Z" fill="#9CD4B7"/>
<path d="M153.501 63.2905H152.287V143.609H153.501V63.2905Z" fill="#9ED5B7"/>
<path d="M154.715 63.2905H153.501V143.609H154.715V63.2905Z" fill="#9FD4B8"/>
<path d="M155.929 63.2905H154.715V143.609H155.929V63.2905Z" fill="#A0D4B8"/>
<path d="M157.11 63.2905H155.896V143.609H157.11V63.2905Z" fill="#A0D3B8"/>
<path d="M158.324 63.2905H157.11V143.609H158.324V63.2905Z" fill="#A1D3B8"/>
<path d="M159.505 63.2905H158.291V143.609H159.505V63.2905Z" fill="#A2D3B9"/>
<path d="M160.719 63.2905H159.505V143.609H160.719V63.2905Z" fill="#A3D3B9"/>
<path d="M161.933 63.2905H160.719V143.609H161.933V63.2905Z" fill="#A4D5B9"/>
<path d="M163.114 63.2905H161.9V143.609H163.114V63.2905Z" fill="#A5D4B9"/>
<path d="M164.328 63.2905H163.114V143.609H164.328V63.2905Z" fill="#A6D4BA"/>
<path d="M165.509 63.2905H164.295V143.609H165.509V63.2905Z" fill="#A7D4BA"/>
<path d="M166.723 63.2905H165.509V143.609H166.723V63.2905Z" fill="#A8D4BA"/>
</g>
<path d="M102.941 56.8269C107.706 56.8269 111.57 52.9636 111.57 48.1979C111.57 43.4322 107.706 39.5688 102.941 39.5688C98.1751 39.5688 94.3117 43.4322 94.3117 48.1979C94.3117 52.9636 98.1751 56.8269 102.941 56.8269Z" fill="#6EC6A8"/>
<path d="M150.154 56.302C154.92 56.302 158.783 52.4387 158.783 47.673C158.783 42.9073 154.92 39.0439 150.154 39.0439C145.389 39.0439 141.525 42.9073 141.525 47.673C141.525 52.4387 145.389 56.302 150.154 56.302Z" fill="#A8D4BA"/>
<path d="M58.5488 146.956C34.2365 146.956 21.3094 133.832 21.3094 104.238C21.3094 74.6431 34.2365 61.519 58.5488 61.519C67.0966 61.519 72.1321 63.1924 77.2833 66.1781C82.1392 68.9997 82.5329 75.8898 78.0379 79.2693C75.3475 81.2707 71.6728 81.4019 68.9167 79.4989C66.1279 77.5631 62.486 76.4804 58.5488 76.4804C46.5403 76.4804 40.6017 84.0595 40.6017 104.238C40.6017 124.416 46.5403 131.897 58.5488 131.897C67.0433 131.897 67.5875 130.032 69.4089 128.648C72.0009 126.68 75.5443 126.483 78.202 128.386L78.6941 128.747C82.6641 131.568 82.7954 137.409 78.9566 140.427C73.5101 144.692 66.3247 146.956 58.5159 146.956H58.5488Z" fill="#4DC0AC"/>
<path d="M126.695 93.2133C126.597 93.2133 126.465 93.2133 126.367 93.2133C118.197 92.918 112.817 82.6485 112.587 82.222C112.357 81.7626 112.521 81.2049 112.981 80.9424C113.44 80.6799 113.998 80.8768 114.26 81.3361C114.293 81.4345 119.379 91.0807 126.433 91.3103C130.731 91.4416 134.996 88.0621 139.13 81.2705C139.393 80.8111 139.983 80.6799 140.41 80.9424C140.869 81.2049 141 81.7954 140.738 82.222C136.341 89.5058 131.617 93.1805 126.695 93.1805V93.2133Z" fill="white"/>
</svg>
