<?xml version="1.0" encoding="UTF-8"?>
<svg version="1.1" xmlns="http://www.w3.org/2000/svg" width="3961" height="1953">
<path d="M0 0 C1307.13 0 2614.26 0 3961 0 C3961 644.49 3961 1288.98 3961 1953 C2653.87 1953 1346.74 1953 0 1953 C0 1308.51 0 664.02 0 0 Z " fill="#FEFEFE" transform="translate(0,0)"/>
<path d="M0 0 C1.05022842 -0.00137466 2.10045685 -0.00274933 3.18251038 -0.00416565 C4.32402557 -0.00057037 5.46554077 0.0030249 6.64164734 0.00672913 C7.85182022 0.0065831 9.0619931 0.00643707 10.30883789 0.00628662 C13.61837821 0.00686307 16.92785581 0.01187135 20.23738503 0.01886058 C23.69938233 0.02512048 27.16138049 0.0257 30.62338257 0.02688599 C37.17517803 0.02999153 43.72695677 0.03819444 50.27874488 0.04823548 C57.73941789 0.05942074 65.2000917 0.06491315 72.66077101 0.06993091 C88.00425965 0.08037771 103.34773161 0.0979621 118.69120789 0.12025452 C119.08159744 0.87565018 119.471987 1.63104584 119.87420654 2.40933228 C121.35498399 5.27336959 122.83670934 8.13691411 124.31903076 11.00015259 C124.95442753 12.22792921 125.58947081 13.45588885 126.22412109 14.68405151 C131.81241822 25.49742444 137.5375876 36.23000617 143.44706726 46.87171936 C144.5360891 48.83990836 145.60840443 50.815963 146.67558289 52.79603577 C155.47240288 68.67469939 167.90903008 78.66709395 185.00370789 84.43275452 C202.13069685 89.0086676 219.73880271 86.8978781 235.12870789 78.24525452 C249.13363086 69.91094297 256.41729706 58.29796971 263.87870789 43.99525452 C264.52155442 42.77873421 265.16512251 41.56259495 265.80937195 40.34681702 C269.05509999 34.20817716 272.25304231 28.04473456 275.44511414 21.87806702 C276.03461853 20.73998596 276.62412292 19.60190491 277.23149109 18.42933655 C278.34788314 16.2686086 279.45990091 14.10561337 280.56694031 11.94007874 C281.06685486 10.96828674 281.56676941 9.99649475 282.08183289 8.99525452 C282.51528015 8.14705139 282.94872742 7.29884827 283.39530945 6.42494202 C284.71221322 4.08289764 285.87893382 2.11010008 287.69120789 0.12025452 C289.88529873 -0.38031673 289.88529873 -0.38031673 292.48892212 -0.38095093 C293.47698853 -0.39078506 294.46505493 -0.4006192 295.48306274 -0.41075134 C296.56616226 -0.40108337 297.64926178 -0.39141541 298.7651825 -0.38145447 C299.90701996 -0.38685745 301.04885742 -0.39226044 302.22529602 -0.39782715 C306.0149753 -0.41037234 309.80390292 -0.39377476 313.59355164 -0.37583923 C316.2285262 -0.37599418 318.863501 -0.37748247 321.49847412 -0.38024902 C327.03261602 -0.38295348 332.56654138 -0.36946729 338.10063171 -0.34629822 C344.47223873 -0.319805 350.84348101 -0.31790261 357.21512407 -0.32968658 C363.36341495 -0.34052996 369.51155456 -0.33411629 375.65983772 -0.3201313 C378.26516401 -0.31563287 380.87050097 -0.31526586 383.47582817 -0.3191967 C387.13499721 -0.32213073 390.79358693 -0.30549233 394.4526825 -0.28379822 C395.51756393 -0.28829987 396.58244537 -0.29280151 397.67959595 -0.29743958 C417.35708479 -0.10512689 436.32857499 8.08649667 450.39042664 21.74134827 C452.59378501 24.1340862 454.66719276 26.57503378 456.69120789 29.12025452 C457.16816101 29.69002014 457.64511414 30.25978577 458.13652039 30.84681702 C469.66572174 45.56648918 471.14836307 63.24068629 471.07215881 81.16142273 C471.07562197 82.95099464 471.08039093 84.74056442 471.08634055 86.53012979 C471.09878952 91.41227193 471.09270815 96.29423668 471.08338189 101.1763792 C471.07656669 106.4552241 471.08708477 111.73403947 471.09532166 117.01287842 C471.10863432 127.33957191 471.10579241 137.66619984 471.09708373 147.99289586 C471.09029861 156.3872969 471.08939405 164.78167961 471.09265518 173.17608261 C471.09311488 174.37245249 471.09357458 175.56882238 471.09404821 176.80144589 C471.09500742 179.23209665 471.09598006 181.6627474 471.09696598 184.09339814 C471.10551246 206.86404794 471.09569701 229.63466146 471.07956488 252.40530531 C471.06615895 271.93237685 471.06849352 291.45939488 471.08232117 310.98646545 C471.09838415 333.68075515 471.10469217 356.3750131 471.09548438 379.06930768 C471.09452876 381.49022444 471.09358565 383.91114119 471.09265518 386.33205795 C471.09219236 387.52309933 471.09172953 388.7141407 471.09125268 389.94127423 C471.08866521 398.32404823 471.09302848 406.70680204 471.10009384 415.08957291 C471.10851686 425.30738839 471.10621165 435.52513476 471.09025161 445.74294235 C471.08238027 450.95355057 471.079258 456.16404364 471.08919907 461.37465096 C471.09816973 466.14889184 471.09317411 470.92291134 471.07726641 475.69713227 C471.07392869 477.41965932 471.07558984 479.14220526 471.08289377 480.86472006 C471.15628007 499.61717721 467.26068988 515.37339367 453.69120789 529.12025452 C446.3715877 535.15040793 438.86922627 539.49212759 429.69120789 542.12025452 C428.57874695 542.47603577 427.46628601 542.83181702 426.32011414 543.19837952 C412.67022066 546.66595203 398.7757711 543.35317857 386.58183289 536.92103577 C381.7205184 533.89256823 377.70018849 530.18671154 373.69120789 526.12025452 C373.11628601 525.55564514 372.54136414 524.99103577 371.94902039 524.40931702 C367.26211446 519.43099726 364.36289142 513.36166646 361.69120789 507.12025452 C361.4343303 506.52215912 361.17745271 505.92406372 360.91279095 505.30784422 C358.28198026 498.43504789 358.2641128 491.91601136 358.29248047 484.6237793 C358.28703386 483.2671964 358.28027933 481.91061824 358.27233857 480.55404764 C358.25438265 476.84601126 358.25486174 473.13817585 358.25846803 469.43010628 C358.25909355 465.42405944 358.24245622 461.41807906 358.22795105 457.4120636 C358.20518959 450.47790976 358.19328417 443.54380607 358.18882179 436.60961723 C358.1823542 426.58404645 358.15940609 416.55856624 358.1324785 406.53303201 C358.08923242 390.26597635 358.05925322 373.99892451 358.03764343 357.73182678 C358.01662721 341.93297957 357.98934649 326.13416359 357.95365906 310.33534241 C357.95146023 309.36095936 357.94926141 308.38657632 357.94699595 307.38266652 C357.93592614 302.49431069 357.92473336 297.60595516 357.91347945 292.71759975 C357.8203252 252.18517876 357.74871293 211.65274075 357.69120789 171.12025452 C355.7920891 173.48820054 353.89377151 175.85678157 351.99589539 178.22572327 C351.19865051 179.21953003 351.19865051 179.21953003 350.38529968 180.2334137 C346.314963 185.31587624 342.3228554 190.45300826 338.37089539 195.62806702 C333.46482062 202.03456132 328.48979654 208.38803503 323.5320282 214.75453186 C321.67435491 217.14191305 319.81914642 219.53118978 317.96464539 221.92103577 C315.04136922 225.68802014 312.11221542 229.45036011 309.17900085 233.20960999 C307.89822087 234.85440555 306.62414033 236.50441393 305.35136414 238.15541077 C297.61839142 248.06280354 289.93210262 255.30928351 278.69120789 261.12025452 C277.02058289 261.98650452 277.02058289 261.98650452 275.31620789 262.87025452 C261.17241635 267.74742401 247.3639086 267.57830885 232.57011414 267.55384827 C230.13740901 267.55841858 227.70470518 267.56372665 225.27200317 267.56973267 C220.19285307 267.57862773 215.11386052 267.57628151 210.03471375 267.56629944 C203.56147571 267.55481017 197.08878325 267.57503995 190.6156168 267.60421658 C185.59752004 267.62265804 180.57955215 267.62227037 175.56142998 267.61657906 C173.17627637 267.61642684 170.79111346 267.62238782 168.40599251 267.63487053 C145.38978858 267.73838879 125.45464016 264.71230367 108.33573914 247.79212952 C102.84747126 241.96357158 98.03897266 235.73744649 93.29130554 229.30384827 C89.87764679 224.67840043 86.36837988 220.15262531 82.75370789 215.68275452 C78.47981201 210.39179733 74.30554974 205.03621561 70.19120789 199.62025452 C64.95129483 192.72359845 59.58936549 185.93632455 54.15214539 179.19447327 C52.28604285 176.86332613 50.473887 174.51429493 48.69120789 172.12025452 C48.69023108 172.79204872 48.68925427 173.46384293 48.68824786 174.15599453 C48.6299282 214.00525942 48.55609544 253.85446871 48.4622216 293.7036664 C48.45095395 298.49243119 48.43981541 303.28119627 48.42875671 308.06996155 C48.42655303 309.02328593 48.42434935 309.97661031 48.42207889 310.95882331 C48.38674278 326.37848905 48.36185785 341.79815475 48.34086087 357.21784593 C48.31906942 373.04941958 48.28598731 388.88094086 48.24250633 404.71246994 C48.21604716 414.47497869 48.19830959 424.23742224 48.19186185 433.99996506 C48.18659038 440.70187481 48.17031461 447.40370263 48.14554223 454.10556842 C48.13158728 457.96750086 48.12233379 461.82928684 48.12619972 465.69124603 C48.13027546 469.89040289 48.11110066 474.08914829 48.0899353 478.28825378 C48.09478288 479.49257746 48.09963045 480.69690113 48.10462493 481.93771946 C47.96010826 499.39855863 43.44014747 515.19039278 31.06620789 527.94056702 C18.60594921 539.37613337 3.60140859 544.88905086 -13.20332336 544.43666077 C-19.2607071 544.09880436 -24.7038597 542.37111245 -30.30879211 540.12025452 C-31.19179993 539.76962952 -32.07480774 539.41900452 -32.98457336 539.05775452 C-39.85631238 535.97989941 -45.01396487 531.40588935 -50.30879211 526.12025452 C-50.88629211 525.55435608 -51.46379211 524.98845764 -52.05879211 524.40541077 C-64.34142561 511.32312665 -65.76204126 494.31029455 -65.68301392 477.31286621 C-65.68575829 475.52430821 -65.6898136 473.73575182 -65.69505757 471.9471994 C-65.70559785 467.05860287 -65.69754573 462.17019042 -65.68630707 457.28160203 C-65.67743745 451.99933673 -65.68591653 446.71709481 -65.69216919 441.43482971 C-65.70164294 431.09749873 -65.69506989 420.76023771 -65.68290625 410.42291193 C-65.6692647 398.37963249 -65.670926 386.33636959 -65.67303958 374.29308439 C-65.67622736 352.80259877 -65.66457363 331.31214632 -65.64497375 309.82167053 C-65.62596816 288.97725921 -65.6188871 268.13288677 -65.62446594 247.28846741 C-65.63052613 224.57845661 -65.63034244 201.8684629 -65.61898011 179.15845352 C-65.61777284 176.73611931 -65.61656686 174.3137851 -65.61536217 171.89145088 C-65.61475863 170.69967882 -65.61415509 169.50790676 -65.61353326 168.2800204 C-65.60965694 159.88879049 -65.61004662 151.49756696 -65.61194801 143.10633659 C-65.61407189 132.87857377 -65.60883121 122.65084495 -65.59433446 112.4230917 C-65.58709973 107.20656906 -65.58300561 101.99009592 -65.58757782 96.77356911 C-65.59166422 91.99502438 -65.58646036 87.2165817 -65.57395174 82.43805242 C-65.57103211 80.71279178 -65.57144459 78.98752147 -65.57559482 77.26226335 C-65.62380058 55.21521969 -60.97771536 36.63212814 -45.18379211 20.43275452 C-33.24663333 8.69128686 -17.11515031 -0.01734058 0 0 Z " fill="#8ACDB1" transform="translate(876.3087921142578,668.8797454833984)"/>
<path d="M0 0 C1.07668945 0.16097168 2.15337891 0.32194336 3.26269531 0.48779297 C35.24177755 5.44907831 79.51405295 16.911929 99.75 44.375 C108.11983155 57.43193721 109.81218983 71.17894635 107.4921875 86.3125 C106.8322294 88.98267531 106.02313285 91.44838123 105 94 C104.67128906 94.8353125 104.34257813 95.670625 104.00390625 96.53125 C100.90836617 103.47211495 96.31830553 108.64443839 91 114 C90.48050781 114.56589844 89.96101563 115.13179687 89.42578125 115.71484375 C85.56947204 119.53066677 80.95318543 121.61653354 76.0625 123.8125 C75.39404053 124.11502686 74.72558105 124.41755371 74.03686523 124.72924805 C62.00354625 129.85577362 47.16238419 129.53891867 35 125 C29.99814849 122.47677299 25.31708691 119.50287246 20.62109375 116.45703125 C7.75795706 108.33867256 -6.19269801 103.98069066 -21 101 C-21.71760498 100.823479 -22.43520996 100.64695801 -23.17456055 100.46508789 C-27.06421368 99.82482269 -30.88057964 99.83742851 -34.81640625 99.83203125 C-35.66871323 99.82870285 -36.5210202 99.82537445 -37.39915466 99.82194519 C-39.20205142 99.81689212 -41.00495749 99.81453636 -42.80786133 99.81469727 C-45.52897156 99.81252674 -48.24966539 99.79439815 -50.97070312 99.77539062 C-63.40885219 99.73342988 -74.95496221 100.57778373 -86.8125 104.625 C-87.95344116 105.0130481 -87.95344116 105.0130481 -89.11743164 105.40893555 C-101.6108618 109.83024842 -112.17020258 116.06092856 -122 125 C-123.04027344 125.90105469 -123.04027344 125.90105469 -124.1015625 126.8203125 C-151.31651715 151.86674487 -159.33130082 195.09285544 -163.15234375 230.0625 C-163.23901873 230.85129862 -163.3256937 231.64009724 -163.41499519 232.45279884 C-165.32345308 250.23829986 -165.57708068 267.92148909 -165.44952393 285.79223633 C-165.43336654 289.01091841 -165.44366205 292.22931625 -165.45326996 295.44800758 C-165.49563078 313.33788993 -164.87262247 330.78609749 -162.34449768 348.52964783 C-161.87031406 351.92996257 -161.49980826 355.33742732 -161.125 358.75 C-156.4027489 392.18353777 -144.22934944 430.75123161 -116.40673828 452.22998047 C-96.94386742 466.40309027 -75.01924165 472.12322569 -51.18359375 472.203125 C-50.52563372 472.20595238 -49.86767368 472.20877975 -49.18977547 472.21169281 C-45.70358009 472.22661129 -42.21742526 472.23588549 -38.73120117 472.24023438 C-35.17691827 472.24569053 -31.62302393 472.26967873 -28.06886196 472.29820633 C-25.29487617 472.31706894 -22.52097932 472.32205078 -19.74693489 472.32357025 C-17.81362042 472.32797128 -15.88035402 472.34649995 -13.9471283 472.36553955 C-2.91142537 472.33826593 8.94662542 471.92405025 18 465 C19.63239138 462.7068163 19.63239138 462.7068163 20.8125 460.1875 C26.25362007 450.57721 36.04946314 445.3695012 46.265625 441.88671875 C60.2045892 438.57694378 74.62085018 440.89730477 86.8125 448.3125 C99.00717412 456.66647124 106.58494421 465.73414769 111 480 C111.33 480.99 111.66 481.98 112 483 C112.50047995 492.55724214 112.99087334 502.10431286 109 511 C108.62101562 511.8765625 108.24203125 512.753125 107.8515625 513.65625 C101.26832932 527.20325008 89.50811761 535.424574 77 543 C76.35901367 543.38929688 75.71802734 543.77859375 75.05761719 544.1796875 C53.79580672 556.93463369 30.54697702 565.92256924 6.25 570.875 C5.31857178 571.06602295 4.38714355 571.2570459 3.42749023 571.45385742 C-13.49943321 574.65185812 -30.50438858 575.34954065 -47.6875 575.25 C-49.12675842 575.24534729 -49.12675842 575.24534729 -50.59509277 575.24060059 C-65.46744599 575.18438992 -80.22909456 574.89490881 -95 573 C-95.96599121 572.87641113 -96.93198242 572.75282227 -97.92724609 572.62548828 C-143.95766189 566.42547309 -188.07980728 549.26317181 -222 517 C-222.55945313 516.4730957 -223.11890625 515.94619141 -223.6953125 515.40332031 C-251.43412651 489.12522044 -268.04422709 455.91716041 -280 420 C-280.26151855 419.2167334 -280.52303711 418.4334668 -280.79248047 417.62646484 C-284.92867214 405.01122375 -287.5666855 392.03575812 -290 379 C-290.18449707 378.01483398 -290.36899414 377.02966797 -290.55908203 376.01464844 C-306.60151806 287.84669995 -302.88870768 178.46948483 -250.39404297 88.64501953 C-242.99789078 78.03535217 -235.03747136 68.24193904 -226 59 C-225.10474609 58.02933594 -225.10474609 58.02933594 -224.19140625 57.0390625 C-170.18715836 -0.33203376 -73.86111379 -11.34851108 0 0 Z " fill="#4DC0AC" transform="translate(660,660)"/>
<path d="M0 0 C13.86 0 27.72 0 42 0 C48.74601064 13.49202128 48.74601064 13.49202128 51.234375 19.71875 C51.50947403 20.40240128 51.78457306 21.08605255 52.06800842 21.79042053 C52.65824404 23.25866849 53.246261 24.72781008 53.83218384 26.19778442 C55.11878233 29.42503974 56.41703743 32.64757147 57.71443176 35.87049866 C58.40750732 37.59239845 59.10003459 39.31451902 59.79203796 41.03684998 C63.38666095 49.97909939 67.03404559 58.89953341 70.68795776 67.81768799 C71.81614187 70.57138916 72.94346202 73.32544258 74.07055664 76.07958984 C77.60016901 84.7034603 81.13316099 93.32593822 84.6700592 101.94682312 C86.28817183 105.8915141 87.90506689 109.83670358 89.52182007 113.7819519 C90.28359473 115.63989073 91.04595965 117.49758769 91.80899048 119.35501099 C96.15321431 129.93010063 100.41235637 140.53073397 104.52294922 151.19897461 C106.8548128 157.23560633 109.38150902 163.18851883 111.91064453 169.14453125 C115.69666425 178.06673893 119.43231788 186.98591011 122.8671875 196.05078125 C125.4325628 202.72960316 128.26771226 209.29929438 131.09375 215.87109375 C131.64228638 217.1547583 131.64228638 217.1547583 132.2019043 218.46435547 C132.93312928 220.17499435 133.66885748 221.88371642 134.40942383 223.59033203 C134.74482178 224.37649902 135.08021973 225.16266602 135.42578125 225.97265625 C135.72911377 226.67656494 136.03244629 227.38047363 136.3449707 228.10571289 C137 230 137 230 137 233 C138.91740577 233.05420087 138.91740577 233.05420087 141 232 C142.32508853 229.59708734 143.34373061 227.37186065 144.3359375 224.83203125 C144.64741226 224.07119232 144.95888702 223.31035339 145.27980042 222.52645874 C146.32604839 219.96077487 147.35020172 217.38681883 148.375 214.8125 C149.11776833 212.97963483 149.86202692 211.147373 150.60766602 209.31567383 C152.22422965 205.33768746 153.83176639 201.35620915 155.43310547 197.37207031 C158.06021486 190.84080024 160.71686531 184.32178473 163.37890625 177.8046875 C167.11454182 168.65626657 170.84397208 159.50536322 174.56640625 150.3515625 C179.48875254 138.24953081 184.42661395 126.15390562 189.375 114.0625 C189.74229218 113.16493988 190.10958435 112.26737976 190.48800659 111.34262085 C195.97382668 97.93813871 201.46986997 84.53785856 206.96905518 71.13885498 C212.168717 58.46937665 217.36192815 45.79726737 222.54882812 33.12255859 C223.33970738 31.19004835 224.13071955 29.2575925 224.921875 27.32519531 C226.02644984 24.62711995 227.13048803 21.92882561 228.234375 19.23046875 C228.71774323 18.05009285 228.71774323 18.05009285 229.21087646 16.84587097 C231.50257882 11.24143035 233.75109167 5.62227082 236 0 C250.19 0 264.38 0 279 0 C279 93.39 279 186.78 279 283 C268.11 283 257.22 283 246 283 C246 212.38 246 141.76 246 69 C245.01 69.33 244.02 69.66 243 70 C241.90051194 72.27407777 240.98927751 74.45042957 240.125 76.8125 C239.59710134 78.19299428 239.06844647 79.57319961 238.5390625 80.953125 C238.27899414 81.64083984 238.01892578 82.32855469 237.75097656 83.03710938 C235.1084624 89.94407096 232.12284262 96.72431613 229.19921875 103.515625 C226.17926504 110.5491833 223.23368909 117.61233093 220.3125 124.6875 C220.05776917 125.30362152 219.80303833 125.91974304 219.54058838 126.55453491 C215.32703197 136.74600326 211.16062463 146.95626746 207.00952148 157.17333984 C203.59436516 165.56859875 200.12082115 173.9383356 196.6262207 182.30078125 C191.45580417 194.68108487 186.39483459 207.10577626 181.34375 219.53515625 C172.71711913 240.75575372 163.90391417 261.89442567 155 283 C144.44 283 133.88 283 123 283 C121.90300781 280.25171875 120.80601562 277.5034375 119.67578125 274.671875 C118.5969743 271.97094339 117.51786162 269.27013412 116.4387207 266.56933594 C115.69653997 264.71139032 114.95467046 262.85332034 114.21313477 260.99511719 C108.80373705 247.44061827 103.27382747 233.9540652 97.51318359 220.54443359 C95.0687631 214.8187 92.6883879 209.06694043 90.3125 203.3125 C90.05776917 202.69637848 89.80303833 202.08025696 89.54058838 201.44546509 C85.32828201 191.25702023 81.16163494 181.05036956 77.01391602 170.83544922 C73.97048719 163.35045281 70.87355559 155.88936866 67.75 148.4375 C64.49832995 140.67600152 61.35532314 132.88361411 58.33325195 125.0300293 C55.16856629 116.80978426 51.73914235 108.71216282 48.25 100.625 C45.48753243 94.18888446 42.79389027 87.72546043 40.125 81.25 C39.71926758 80.27240723 39.31353516 79.29481445 38.89550781 78.28759766 C38.52006836 77.37284668 38.14462891 76.4580957 37.7578125 75.515625 C37.4189502 74.69352539 37.08008789 73.87142578 36.73095703 73.02441406 C36 71 36 71 36 69 C35.01 69 34.02 69 33 69 C33 139.62 33 210.24 33 283 C22.11 283 11.22 283 0 283 C0 189.61 0 96.22 0 0 Z " fill="#B6DDD0" transform="translate(2858,913)"/>
<path d="M0 0 C1.09054687 0.26683594 2.18109375 0.53367187 3.3046875 0.80859375 C19.95591819 5.38869999 35.80530455 13.85903444 45 29 C53.08283143 43.91859744 54.15796146 59.24700189 54.11352539 75.88305664 C54.11324288 77.37204995 54.11340251 78.86104339 54.1139679 80.35003662 C54.11425336 84.36798294 54.10839735 88.38589906 54.10139394 92.4038384 C54.09511847 96.6118703 54.09455329 100.81990298 54.09336853 105.02793884 C54.09026754 112.9856136 54.08207083 120.94327453 54.07201904 128.90094322 C54.06081955 137.96506463 54.0553378 147.02918672 54.05032361 156.09331334 C54.03988713 174.72888498 54.02155704 193.36443767 54 212 C42.78 212 31.56 212 20 212 C19.67 202.76 19.34 193.52 19 184 C17.02 186.97 15.04 189.94 13 193 C1.92065128 206.50240755 -13.74656407 214.50374421 -31 217 C-42.57557259 217.94976007 -54.69230628 217.83137528 -66 215 C-67.24330078 214.70802734 -67.24330078 214.70802734 -68.51171875 214.41015625 C-83.98605686 210.30471961 -97.54333972 200.91023985 -107 188 C-109.2997672 183.77473177 -111.21545841 179.46427946 -113 175 C-113.36222656 174.17113281 -113.72445313 173.34226562 -114.09765625 172.48828125 C-118.6995588 159.79818633 -118.10576226 140.1607107 -113.26171875 127.6171875 C-105.14253373 110.77553435 -92.72305034 102.33763177 -75.41015625 96.08984375 C-56.62801058 90.08730235 -37.90512381 88.58881226 -18.31201172 87.56738281 C-14.61257542 87.3743517 -10.91371412 87.17231265 -7.21484375 86.96875 C-4.84377809 86.84062485 -2.47268518 86.71300294 -0.1015625 86.5859375 C1.54240005 86.49691666 1.54240005 86.49691666 3.21957397 86.40609741 C8.82243571 86.11599447 14.38968761 85.93665913 20 86 C19.95534157 82.05234844 19.88499912 78.10600644 19.79248047 74.15917969 C19.75091573 72.16884998 19.72875456 70.17814514 19.70703125 68.1875 C19.39746815 55.92880105 16.52514121 46.12699546 7.5 37.4375 C-2.92146452 28.63585113 -15.08959833 27.79399838 -28.125 27.6875 C-29.28515625 27.65849609 -30.4453125 27.62949219 -31.640625 27.59960938 C-44.26344001 27.50783276 -55.09857199 31.06326479 -65 39 C-69.84023494 43.99951141 -72.21908968 48.51120924 -75 55 C-86.55 55 -98.1 55 -110 55 C-108.20883168 38.87948514 -101.15718826 26.68653252 -88.82421875 16.12890625 C-63.66275778 -2.83789352 -30.19220436 -7.66417495 0 0 Z " fill="#B9DFDA" transform="translate(1931,984)"/>
<path d="M0 0 C0.92941406 0.34804688 1.85882812 0.69609375 2.81640625 1.0546875 C10.12900454 3.91248453 16.58690886 7.47729706 23 12 C23.65871094 12.46019531 24.31742188 12.92039062 24.99609375 13.39453125 C36.41897683 22.22246094 41.44897035 37.13147637 43.25328732 50.93816185 C44.13053647 58.59304422 44.1342778 66.20890302 44.11352539 73.90478516 C44.11324279 75.38407387 44.11340268 76.86336273 44.1139679 78.34265137 C44.11425302 82.32954785 44.10840258 86.31641381 44.10139394 90.30330324 C44.09511274 94.48063277 44.09455285 98.65796311 44.09336853 102.83529663 C44.09026921 110.732731 44.08207479 118.63015142 44.07201904 126.52757967 C44.06081432 135.5240109 44.0553365 144.52044283 44.05032361 153.51687932 C44.03989092 172.01126239 44.02156295 190.50562633 44 209 C33.11 209 22.22 209 11 209 C11 199.43 11 189.86 11 180 C10.34 180 9.68 180 9 180 C8.7421875 180.72574219 8.484375 181.45148438 8.21875 182.19921875 C2.56266282 195.19734218 -10.38532195 203.72562469 -23 209 C-44.13228397 216.74520478 -68.56160664 216.59332037 -89.1953125 207.37109375 C-104.71420473 199.78456008 -117.08167228 188.54939789 -123 172 C-123.44859375 170.80117187 -123.44859375 170.80117187 -123.90625 169.578125 C-128.80942252 153.86981305 -127.51391362 134.70956135 -120.8125 119.8125 C-111.90360432 103.38754484 -95.45626411 96.44523843 -78.51171875 90.84765625 C-58.88461576 85.26099428 -37.70610081 84.77173933 -17.42578125 84.2109375 C-13.9564731 84.10715739 -10.55323744 83.87190109 -7.10546875 83.4765625 C-1.07705567 82.80938153 4.94283931 82.91455416 11 83 C10.91817209 78.87424558 10.80541695 74.74986826 10.6875 70.625 C10.66494141 69.46871094 10.64238281 68.31242187 10.61914062 67.12109375 C10.25239561 55.31857226 7.86778053 43.88284145 -0.78125 35.21484375 C-11.734097 26.43909954 -23.10027445 24.8114459 -36.6875 24.75 C-38.36875977 24.7190625 -38.36875977 24.7190625 -40.08398438 24.6875 C-53.35877711 24.62586428 -65.81938072 28.0289709 -75.8125 37.1875 C-79.94289195 41.87503467 -79.94289195 41.87503467 -85 52 C-96.55 52 -108.1 52 -120 52 C-116.94012304 33.64073825 -109.29959481 20.65859978 -94.20751953 9.69824219 C-90.30720356 7.10378263 -86.2407308 4.99649526 -82 3 C-80.98808594 2.52175781 -79.97617188 2.04351563 -78.93359375 1.55078125 C-54.83046514 -8.6999746 -24.44565699 -9.81362722 0 0 Z " fill="#C2E5D9" transform="translate(3311,987)"/>
<path d="M0 0 C7.11457517 6.75419636 12.19284975 14.49504187 17 23 C17.47308594 23.82113281 17.94617187 24.64226562 18.43359375 25.48828125 C30.5506201 47.94818991 30 73.02183718 30 98 C-20.82 98 -71.64 98 -124 98 C-120.18770978 121.82681389 -117.13267041 139.21716731 -98.9140625 154.92578125 C-88.5993581 162.26774913 -76.57681672 166.23937677 -64 167 C-62.54787109 167.09861328 -62.54787109 167.09861328 -61.06640625 167.19921875 C-44.13250313 167.81230638 -28.78256096 162.89000261 -16.32421875 151.37890625 C-13.87404923 149.00700271 -13.87404923 149.00700271 -11.86376953 145.88793945 C-9.55203726 143.11218873 -9.07019758 143.0126478 -5.21948242 142.31884766 C-3.76446531 142.31978918 -2.309213 142.3532074 -0.85546875 142.4140625 C-0.08568192 142.42255219 0.68410492 142.43104187 1.47721863 142.43978882 C3.9237671 142.47324297 6.36695691 142.54849408 8.8125 142.625 C10.47586368 142.65511052 12.13927929 142.68248445 13.80273438 142.70703125 C17.86977371 142.77300631 21.93431851 142.87646157 26 143 C23.48586287 159.5169805 11.39413738 172.24412991 -1.5546875 181.90625 C-8.87398803 186.85818033 -16.67986716 190.17409891 -25 193 C-26.19238281 193.41636719 -27.38476562 193.83273437 -28.61328125 194.26171875 C-52.4079139 201.18865471 -81.83548389 198.87615025 -104 188 C-105.39798828 187.32130859 -105.39798828 187.32130859 -106.82421875 186.62890625 C-128.97193395 175.23070973 -144.00806511 155.25577025 -152 132 C-162.16314142 97.17584654 -160.4775367 58.96541201 -143.75 26.4375 C-134.71583122 10.24233783 -122.94658622 -1.8079029 -107 -11 C-105.99839844 -11.57878906 -104.99679688 -12.15757812 -103.96484375 -12.75390625 C-71.57315719 -30.14863429 -27.55389962 -23.73671926 0 0 Z " fill="#A7D7D1" transform="translate(2319,1003)"/>
<path d="M0 0 C20.81315889 17.7496135 29.45772235 43.58434489 32.38671875 69.9453125 C32.38671875 79.8453125 32.38671875 89.7453125 32.38671875 99.9453125 C-18.43328125 99.9453125 -69.25328125 99.9453125 -121.61328125 99.9453125 C-118.39890314 120.83877023 -114.57914246 141.56983725 -97.61328125 155.9453125 C-80.55360383 168.09440049 -60.68265952 171.03248311 -40.2265625 167.74609375 C-27.72331796 164.97510442 -19.21660573 159.09466841 -10.61328125 149.9453125 C-10.07171387 149.07503418 -9.53014648 148.20475586 -8.97216797 147.30810547 C-6.61328125 144.9453125 -6.61328125 144.9453125 -2.85449219 144.37768555 C-1.35198094 144.37847316 0.15068246 144.406494 1.65234375 144.45703125 C2.44574158 144.46410599 3.2391394 144.47118073 4.05657959 144.47846985 C6.5842624 144.50640202 9.10970863 144.56913261 11.63671875 144.6328125 C13.35283253 144.65789715 15.06898113 144.68071004 16.78515625 144.70117188 C20.98653546 144.75622411 25.18624827 144.84248387 29.38671875 144.9453125 C22.97333073 165.49032811 9.4729957 179.7186144 -9.42578125 189.6953125 C-16.2825214 192.99225546 -23.21256494 195.22554252 -30.61328125 196.9453125 C-31.31042236 197.12263916 -32.00756348 197.29996582 -32.72583008 197.48266602 C-39.73355621 199.1115437 -46.61183971 199.28453296 -53.78833008 199.26098633 C-55.78016634 199.25784501 -57.77198432 199.28210036 -59.76367188 199.30664062 C-86.21676226 199.31970388 -108.80597063 189.18386021 -127.86328125 171.0078125 C-147.68619941 150.41937515 -155.2460532 120.5205626 -155.00439453 92.64306641 C-154.98827901 90.4450076 -155.00438389 88.2487861 -155.0234375 86.05078125 C-155.06624182 56.27717036 -145.4638066 27.40099155 -124.80078125 5.6328125 C-90.72887267 -26.83947596 -36.86096516 -28.98186498 0 0 Z " fill="#9BD1CA" transform="translate(2537.61328125,1001.0546875)"/>
<path d="M0 0 C19.63531476 16.33987731 29.15747684 41.00881773 32.859375 65.609375 C33.88832964 77.44235338 33.609375 89.35674371 33.609375 101.234375 C-17.210625 101.234375 -68.030625 101.234375 -120.390625 101.234375 C-118.42136854 115.67690408 -118.42136854 115.67690408 -114.765625 129.609375 C-114.38821167 130.70741455 -114.38821167 130.70741455 -114.00317383 131.82763672 C-108.72138254 146.23023353 -98.95192124 156.66426646 -85.390625 163.609375 C-84.73827881 163.94364502 -84.08593262 164.27791504 -83.41381836 164.62231445 C-74.23271752 169.06138986 -65.48982607 169.55386492 -55.390625 169.484375 C-54.2665625 169.49210937 -53.1425 169.49984375 -51.984375 169.5078125 C-36.94339565 169.47267002 -23.72406846 165.53309609 -12.390625 155.234375 C-11.98110596 154.48986084 -11.57158691 153.74534668 -11.1496582 152.97827148 C-9.45513498 150.05936681 -8.10823756 148.26845012 -5.390625 146.234375 C0.78549471 145.09425678 6.7981354 145.38408425 13.046875 145.671875 C14.74924335 145.71706202 16.45172663 145.75811927 18.15429688 145.79492188 C22.30884344 145.8936878 26.457841 146.04871279 30.609375 146.234375 C24.43937709 165.9456796 11.59742102 180.37633752 -6.390625 190.234375 C-21.95638899 198.12815811 -37.3805343 200.58947852 -54.703125 200.546875 C-56.00185547 200.56298828 -57.30058594 200.57910156 -58.63867188 200.59570312 C-85.04557501 200.60883435 -107.62334119 190.43474684 -126.640625 172.296875 C-137.04760872 161.50914798 -144.19475773 147.84829171 -148.765625 133.671875 C-149.00418213 132.94170166 -149.24273926 132.21152832 -149.48852539 131.45922852 C-153.43680207 118.43291198 -153.79863182 105.10182826 -153.765625 91.609375 C-153.76508118 90.7715448 -153.76453735 89.9337146 -153.76397705 89.07049561 C-153.72629106 76.43845331 -153.20415146 64.37439112 -149.390625 52.234375 C-149.17631836 51.53844238 -148.96201172 50.84250977 -148.74121094 50.12548828 C-144.006777 35.2640519 -136.92395555 21.79489204 -126.390625 10.234375 C-125.45476563 9.17669922 -125.45476563 9.17669922 -124.5 8.09765625 C-92.47984121 -26.1423875 -36.60479456 -27.03491363 0 0 Z " fill="#D0EEE4" transform="translate(3686.390625,999.765625)"/>
<path d="M0 0 C0.60779297 0.26683594 1.21558594 0.53367187 1.84179688 0.80859375 C10.7815613 4.79666369 18.45001404 9.79784975 26 16 C26.85207031 16.68707031 27.70414063 17.37414062 28.58203125 18.08203125 C48.63577417 35.10402721 58.59334478 57.76894228 64 83 C52.12 83 40.24 83 28 83 C26.68 78.71 25.36 74.42 24 70 C15.8380713 50.78583822 1.95510879 38.19389126 -17.10742188 29.75927734 C-39.58145386 20.74299258 -65.46470559 22.14398118 -87.5390625 31.5 C-105.65215496 40.02380822 -117.85590267 53.5542952 -127 71 C-127.46019531 71.79535156 -127.92039062 72.59070313 -128.39453125 73.41015625 C-131.47845526 78.96121946 -133.33958912 84.82698604 -135.1875 90.875 C-135.43773926 91.6892041 -135.68797852 92.5034082 -135.94580078 93.34228516 C-139.68090671 106.07801147 -140.37284169 118.35797727 -140.37060547 131.55053711 C-140.37494421 134.40085213 -140.41126752 137.24957031 -140.44921875 140.09960938 C-140.63128855 169.56865707 -132.92231536 198.60640506 -113 221 C-112.32453125 221.76957031 -111.6490625 222.53914063 -110.953125 223.33203125 C-97.37968659 237.87146254 -77.40149598 246.18132011 -57.66479492 247.10986328 C-32.95661097 247.69962838 -10.8197067 242.73224807 7.65625 225.3671875 C18.54790165 214.36661934 23.93663828 202.89899298 28 188 C39.88 188 51.76 188 64 188 C57.85167341 218.74163294 43.31692132 244.87764468 16.78125 262.65234375 C-3.12640452 275.34972068 -26.1645492 281.07537565 -49.5625 281.25 C-50.60365967 281.25950684 -51.64481934 281.26901367 -52.7175293 281.27880859 C-59.99780348 281.24783603 -66.85565148 280.34702981 -74 279 C-75.24910156 278.81179688 -76.49820312 278.62359375 -77.78515625 278.4296875 C-105.45588387 273.74644159 -130.42888684 256.33368044 -147 234 C-155.01546389 222.64890828 -161.69740219 210.21512186 -166 197 C-166.40992188 195.86175781 -166.81984375 194.72351562 -167.2421875 193.55078125 C-181.86685007 152.14308279 -178.98065135 98.78006779 -160.1328125 59.22265625 C-145.24110087 29.19860053 -121.74048124 7.67387603 -90.41015625 -4.19921875 C-85.67038589 -5.7740209 -80.88167973 -6.9556913 -76 -8 C-75.08476563 -8.20753906 -74.16953125 -8.41507813 -73.2265625 -8.62890625 C-48.86859274 -13.29806131 -22.57013924 -10.0901799 0 0 Z " fill="#C7E6E1" transform="translate(1716,919)"/>
<path d="M0 0 C11.22 0 22.44 0 34 0 C34 16.83 34 33.66 34 51 C48.52 51 63.04 51 78 51 C78 60.24 78 69.48 78 79 C63.48 79 48.96 79 34 79 C34.04036054 96.28161906 34.09722299 113.56291965 34.18390274 130.84435749 C34.22363009 138.86930467 34.25605447 146.89415468 34.27099609 154.91918945 C34.28404545 161.91777487 34.31109329 168.91614591 34.35461307 175.91461056 C34.37715458 179.6167086 34.39291511 183.31854297 34.39188385 187.02071571 C34.39099292 191.16425726 34.42136905 195.30702693 34.45410156 199.45043945 C34.4490712 200.66389038 34.44404083 201.87734131 34.43885803 203.12756348 C34.53648362 211.14526393 35.29252201 219.59542058 40.66193008 225.97441578 C48.67215353 233.66946143 58.02283706 233.3951267 68.5 233.1875 C69.799375 233.17396484 71.09875 233.16042969 72.4375 233.14648438 C75.62543412 233.11132334 78.81249599 233.06210664 82 233 C82.02465504 237.39656173 82.04283842 241.7930872 82.05493164 246.18969727 C82.05997121 247.68644918 82.06680287 249.18319616 82.07543945 250.67993164 C82.08752159 252.82699807 82.09323191 254.97399962 82.09765625 257.12109375 C82.10289307 258.4145874 82.10812988 259.70808105 82.11352539 261.04077148 C82 264 82 264 81 265 C60.12516995 267.90793652 39.00721604 266.94122589 21 255 C9.26859107 245.89058799 2.09667075 233.69440978 0 219 C-0.08459675 216.98922338 -0.12206112 214.97608608 -0.12025452 212.96353149 C-0.12162918 211.77730194 -0.12300385 210.59107239 -0.12442017 209.36889648 C-0.12082489 208.08136475 -0.11722961 206.79383301 -0.11352539 205.46728516 C-0.11324308 204.08710736 -0.11340211 202.70692942 -0.1139679 201.32675171 C-0.11425416 197.5916757 -0.10838501 193.85663196 -0.10139394 190.12156343 C-0.095132 186.2138056 -0.09455435 182.30604699 -0.09336853 178.39828491 C-0.09026359 171.00362364 -0.08206148 163.6089772 -0.07201904 156.21432245 C-0.06083191 147.79354751 -0.0553409 139.37277185 -0.05032361 130.95199132 C-0.03987817 113.63465084 -0.02154309 96.31733077 0 79 C-10.56 79 -21.12 79 -32 79 C-32 69.76 -32 60.52 -32 51 C-21.44 51 -10.88 51 0 51 C0 34.17 0 17.34 0 0 Z " fill="#C9E9DE" transform="translate(3423,933)"/>
<path d="M0 0 C0.84691406 -0.00773437 1.69382812 -0.01546875 2.56640625 -0.0234375 C15.91741269 0.01745379 27.44894212 4.30781115 38.125 12.25 C39.05119141 12.92675781 39.05119141 12.92675781 39.99609375 13.6171875 C50.55884787 21.94506046 58.0340944 36.05622358 60.125 49.25 C61.48386316 64.99705775 58.90138969 80.18389557 49.015625 92.98046875 C46.80143943 95.50387679 44.51481919 97.89297422 42.125 100.25 C41.48691406 100.89839844 40.84882812 101.54679688 40.19140625 102.21484375 C29.70269663 112.18020819 15.63525327 116.84968675 1.375 116.75 C0.41489014 116.74427979 -0.54521973 116.73855957 -1.53442383 116.73266602 C-18.21489692 116.31659979 -31.82529817 108.35012138 -43.2890625 96.4921875 C-54.4480484 83.37519367 -58.0788963 66.02094431 -56.875 49.25 C-55.94926625 44.72698563 -54.57646052 40.53723275 -52.875 36.25 C-52.524375 35.36570312 -52.17375 34.48140625 -51.8125 33.5703125 C-48.72834935 26.69522668 -44.15949593 21.55240947 -38.875 16.25 C-37.95074219 15.2909375 -37.95074219 15.2909375 -37.0078125 14.3125 C-27.00388308 4.69498845 -13.68810738 -0.12387427 0 0 Z " fill="#6EC6A8" transform="translate(913.875,508.75)"/>
<path d="M0 0 C11.70893782 8.79087965 21.62421546 21.10280187 24.4921875 35.87109375 C26.31778945 55.63384087 23.20797217 71.63557169 10.8046875 87.49609375 C0.81618588 98.52506428 -14.30034747 105.98469619 -29.11328125 107.15625 C-45.10436613 107.5311684 -59.82932604 103.08669895 -72.0078125 92.37109375 C-73.52878841 90.89236717 -75.031235 89.39415609 -76.5078125 87.87109375 C-77.08015625 87.30777344 -77.6525 86.74445313 -78.2421875 86.1640625 C-82.96239212 81.16405194 -85.76813435 75.11820647 -88.5078125 68.87109375 C-88.85199219 68.09121094 -89.19617187 67.31132813 -89.55078125 66.5078125 C-94.7256495 52.44091712 -91.93800289 34.92091275 -85.8828125 21.68359375 C-82.61708482 15.55631261 -78.43112367 10.72684662 -73.5078125 5.87109375 C-72.86972656 5.22269531 -72.23164062 4.57429687 -71.57421875 3.90625 C-51.97208392 -14.71781574 -21.58542721 -14.89202322 0 0 Z " fill="#A8D4BA" transform="translate(1268.5078125,515.12890625)"/>
<path d="M0 0 C1.25490234 -0.00580078 1.25490234 -0.00580078 2.53515625 -0.01171875 C3.34339844 -0.01042969 4.15164062 -0.00914062 4.984375 -0.0078125 C6.07057129 -0.00612061 6.07057129 -0.00612061 7.17871094 -0.00439453 C9.25 0.125 9.25 0.125 13.25 1.125 C13.25 12.345 13.25 23.565 13.25 35.125 C7.805 34.63 7.805 34.63 2.25 34.125 C-14.68921907 33.32029421 -14.68921907 33.32029421 -30.75 38.125 C-32.15958984 38.76115234 -32.15958984 38.76115234 -33.59765625 39.41015625 C-45.92272062 45.49639849 -52.90790198 54.79419053 -58.0625 67.3125 C-60.03059421 75.36379449 -59.91772871 83.46038915 -59.95532227 91.70117188 C-59.96491681 93.06194343 -59.97492778 94.4227121 -59.98532104 95.78347778 C-60.01220557 99.45642207 -60.03330349 103.129379 -60.05332303 106.80236626 C-60.07528487 110.64874409 -60.10262337 114.49508373 -60.12937927 118.34143066 C-60.17916895 125.61558296 -60.22415833 132.88975661 -60.26740164 140.16395044 C-60.31689179 148.44937235 -60.371766 156.7347559 -60.42708123 165.02014065 C-60.54069041 182.05505959 -60.64686418 199.09001394 -60.75 216.125 C-71.64 216.125 -82.53 216.125 -93.75 216.125 C-93.75 146.165 -93.75 76.205 -93.75 4.125 C-83.19 4.125 -72.63 4.125 -61.75 4.125 C-61.75 14.685 -61.75 25.245 -61.75 36.125 C-60.76 36.125 -59.77 36.125 -58.75 36.125 C-58.4715625 34.6709375 -58.4715625 34.6709375 -58.1875 33.1875 C-56.67378811 27.93714267 -53.28739065 24.18074097 -49.75 20.125 C-49.15058594 19.43019531 -48.55117187 18.73539063 -47.93359375 18.01953125 C-35.21088115 4.28750115 -18.07857843 -0.08514244 0 0 Z " fill="#92CDC5" transform="translate(2707.75,979.875)"/>
<path d="M0 0 C4.90875 0.061875 9.8175 0.12375 14.875 0.1875 C14.875 11.4075 14.875 22.6275 14.875 34.1875 C9.43 33.6925 9.43 33.6925 3.875 33.1875 C-13.66950351 32.25428173 -28.11821208 33.37885763 -42.125 45.1875 C-42.76953125 45.72117187 -43.4140625 46.25484375 -44.078125 46.8046875 C-53.83109348 55.66716756 -57.36660805 67.84640257 -58.40695763 80.66036606 C-58.52874026 84.25817046 -58.56153902 87.84498273 -58.55737305 91.44482422 C-58.56641978 92.80648673 -58.57675396 94.16814118 -58.58825684 95.52978516 C-58.61551204 99.17762249 -58.62506776 102.82530406 -58.63111091 106.47322989 C-58.64057785 110.30359502 -58.66678696 114.13384747 -58.69111633 117.96414185 C-58.73455854 125.19559344 -58.76324158 132.42702289 -58.78643972 139.65856469 C-58.81361183 147.9006362 -58.85751521 156.14259308 -58.90272844 164.38458228 C-58.99525515 181.31884178 -59.06487351 198.25308975 -59.125 215.1875 C-70.015 215.1875 -80.905 215.1875 -92.125 215.1875 C-92.125 145.2275 -92.125 75.2675 -92.125 3.1875 C-81.565 3.1875 -71.005 3.1875 -60.125 3.1875 C-60.125 13.7475 -60.125 24.3075 -60.125 35.1875 C-59.135 35.1875 -58.145 35.1875 -57.125 35.1875 C-56.8465625 33.7334375 -56.8465625 33.7334375 -56.5625 32.25 C-55.04807587 26.99717225 -51.65908028 23.24853062 -48.125 19.1875 C-47.54878906 18.50429688 -46.97257812 17.82109375 -46.37890625 17.1171875 C-33.71549969 3.22828998 -17.99887237 -0.32184923 0 0 Z " fill="#B0DBD5" transform="translate(2131.125,980.8125)"/>
<path d="M0 0 C0.11802706 4.3956001 0.18785559 8.79078286 0.25 13.1875 C0.28351562 14.41404297 0.31703125 15.64058594 0.3515625 16.90429688 C0.51427072 32.32090075 -3.97845746 45.38263225 -14.51171875 56.60546875 C-21.14565682 62.98946253 -28.3092922 67.09412866 -37 70 C-37.77085937 70.2990625 -38.54171875 70.598125 -39.3359375 70.90625 C-53.33317194 75.67502388 -71.50705799 74.40868375 -84.984375 68.74609375 C-93.39928924 64.57275115 -98.88322499 59.37493396 -102.4375 50.625 C-105.31044737 41.64703947 -104.50016727 33.69007047 -101 25 C-95.96016308 15.64030286 -87.17610435 10.44113814 -77.3359375 7.09375 C-63.96772567 3.24123939 -50.3765418 2.39898137 -36.56347656 1.56738281 C-33.37516129 1.37500973 -30.18759803 1.17263081 -27 0.96875 C-24.94534907 0.8405583 -22.8906626 0.71293476 -20.8359375 0.5859375 C-19.89712738 0.52659027 -18.95831726 0.46724304 -17.99105835 0.40609741 C-11.98660174 0.04904304 -6.01459222 -0.06858202 0 0 Z " fill="#FEFEFE" transform="translate(3322,1098)"/>
<path d="M0 0 C1.134375 0.00902344 2.26875 0.01804687 3.4375 0.02734375 C4.283125 0.03894531 5.12875 0.05054688 6 0.0625 C6.10028716 4.25758924 6.17212116 8.45200905 6.21972656 12.64794922 C6.23961011 14.06962262 6.26672727 15.49121683 6.30175781 16.91259766 C6.62514582 30.39026838 4.33076491 41.17330221 -4 52.0625 C-4.40476562 52.65417969 -4.80953125 53.24585938 -5.2265625 53.85546875 C-13.38787238 64.79562954 -27.83824203 71.05463862 -41 73.0625 C-55.61694933 74.60727046 -72.22330777 73.91947648 -84.6875 65.1875 C-85.82640688 64.18393407 -86.93328265 63.14248498 -88 62.0625 C-88.55945312 61.52753906 -89.11890625 60.99257812 -89.6953125 60.44140625 C-95.48494173 54.3860694 -97.13453738 47.93590164 -97.4375 39.6875 C-97.2239036 31.00124647 -94.88761651 23.54832354 -89 17.0625 C-71.91211523 4.24004435 -52.70847991 3.0008281 -32.125 2 C-29.80470965 1.88340371 -27.4845483 1.76491048 -25.16452026 1.64320374 C-23.73770374 1.56871276 -22.3107266 1.49720611 -20.88357544 1.4294281 C-17.54491492 1.25860109 -14.25159451 0.98645009 -10.94091797 0.53735352 C-7.2427287 0.09174714 -3.72075319 -0.03875785 0 0 Z " fill="#FEFEFE" transform="translate(1945,1097.9375)"/>
<path d="M0 0 C0.94875 0.4125 1.8975 0.825 2.875 1.25 C16.76337875 8.03987405 25.18239354 20.25921596 30.875 34.25 C33.26406532 42.21355106 34 48.53197003 34 57 C-5.6 57 -45.2 57 -86 57 C-82.86719254 36.63675149 -76.94775556 19.64332862 -60.1640625 6.8359375 C-42.46676268 -4.81354558 -19.8982751 -8.84367782 0 0 Z " fill="#FEFEFE" transform="translate(2281,1015)"/>
<path d="M0 0 C14.96909058 12.3126587 20.90726128 27.21459239 23 46 C23 47.65 23 49.3 23 51 C-16.27 51 -55.54 51 -96 51 C-96 33.54629336 -88.82146362 18.69765228 -77.1171875 5.94921875 C-56.73206775 -14.00959621 -23.26987391 -15.8316182 0 0 Z " fill="#FEFEFE" transform="translate(3663,1021)"/>
<path d="M0 0 C12.49944961 10.82541618 19.52046703 23.66466393 22.4375 39.9609375 C22.4375 43.2609375 22.4375 46.5609375 22.4375 49.9609375 C-16.8325 49.9609375 -56.1025 49.9609375 -96.5625 49.9609375 C-96.5625 43.44846238 -96.44953267 39.04896372 -94.5 33.1484375 C-94.27666992 32.46120605 -94.05333984 31.77397461 -93.82324219 31.06591797 C-87.96424348 13.91539318 -76.35698853 1.14025367 -60.1875 -6.8515625 C-40.95369217 -15.00648242 -16.48826198 -13.12023285 0 0 Z " fill="#FEFEFE" transform="translate(2513.5625,1022.0390625)"/>
<path d="M0 0 C4.25053549 1.76032278 5.73752371 5.2013411 8.01953125 9.05859375 C8.98286238 10.61843539 9.9503125 12.17574076 10.921875 13.73046875 C11.39351074 14.48650391 11.86514648 15.24253906 12.35107422 16.02148438 C15.13155794 20.32687869 18.39095968 24.22435986 21.70703125 28.12109375 C22.48175781 29.09691406 23.25648437 30.07273437 24.0546875 31.078125 C31.23248051 39.6743737 45.17490285 50.24509006 56.63305664 51.2980957 C70.68722181 51.82271718 70.68722181 51.82271718 83.70703125 47.12109375 C84.49722656 46.72019531 85.28742188 46.31929687 86.1015625 45.90625 C100.26082291 38.21342348 110.84259005 25.28614628 119.44140625 11.9296875 C120.1072876 10.89763184 120.1072876 10.89763184 120.78662109 9.84472656 C121.63131518 8.51703176 122.46063865 7.17939393 123.27197266 5.83105469 C125.0379456 3.02144968 126.17930046 1.3326615 129.30859375 0.078125 C131.70703125 0.12109375 131.70703125 0.12109375 134.70703125 2.12109375 C134.32198261 8.31395933 132.31924572 11.90792558 128.70703125 16.87109375 C128.21009766 17.57065186 127.71316406 18.27020996 127.20117188 18.9909668 C115.89620309 34.748805 103.00861164 50.40993963 84.70703125 58.12109375 C83.86011719 58.49363281 83.01320313 58.86617187 82.140625 59.25 C69.71491063 64.10194561 57.11815531 63.6301703 44.8359375 58.5859375 C24.28203271 48.9633229 3.42020934 28.44671748 -5.29296875 7.12109375 C-4.92351343 3.24181291 -4.43429965 0.23417937 0 0 Z " fill="#FBFDFC" transform="translate(1014.29296875,807.87890625)"/>
</svg>
